<?xml version="1.0" standalone="no"?>
<!DOCTYPE svg PUBLIC "-//W3C//DTD SVG 1.1//EN" "http://www.w3.org/Graphics/SVG/1.1/DTD/svg11.dtd" >
<svg>
<metadata>
Created by FontForge 20090622 at Thu Apr 19 05:49:03 2018
 By deploy user
 ITC Franklin Gothic is a trademark of The International Typeface Corporation which may be registered in certain jurisdictions. Portions copyright Microsoft Corporation.  All rights reserved.
</metadata>
<defs>
<font id="FranklinGothic-Book" horiz-adv-x="1451" >
  <font-face 
    font-family="Franklin Gothic Book"
    font-weight="400"
    font-stretch="normal"
    units-per-em="2048"
    panose-1="2 11 5 3 2 1 2 2 2 4"
    ascent="1638"
    descent="-410"
    x-height="1010"
    cap-height="1365"
    bbox="-393 -677 2097 1954"
    underline-thickness="102"
    underline-position="-103"
    unicode-range="U+0020-U+FB02"
  />
<missing-glyph horiz-adv-x="2048" 
d="M256 0v1536h1536v-1536h-1536zM384 128h1280v1280h-1280v-1280z" />
    <glyph glyph-name=".notdef" horiz-adv-x="2048" 
d="M256 0v1536h1536v-1536h-1536zM384 128h1280v1280h-1280v-1280z" />
    <glyph glyph-name=".null" horiz-adv-x="0" 
 />
    <glyph glyph-name="nonmarkingreturn" horiz-adv-x="512" 
 />
    <glyph glyph-name="space" unicode=" " horiz-adv-x="512" 
 />
    <glyph glyph-name="exclam" unicode="!" horiz-adv-x="550" 
d="M315 340h-84l-74 1025h236zM380 0h-209v212h209v-212z" />
    <glyph glyph-name="quotedbl" unicode="&#x22;" horiz-adv-x="647" 
d="M236 837h-100l-30 528h160zM511 837h-100l-29 528h159z" />
    <glyph glyph-name="numbersign" unicode="#" horiz-adv-x="1201" 
d="M1136 965l-21 -123h-210l-50 -286h209l-21 -123h-211l-77 -433h-130l77 433h-290l-77 -433h-130l77 433h-218l22 123h218l51 286h-219l22 123h219l71 400h130l-71 -400h287l72 400h130l-71 -400h211zM773 842h-288l-50 -286h288z" />
    <glyph glyph-name="dollar" unicode="$" horiz-adv-x="1201" 
d="M646 -150h-122v193q-334 36 -428 313l135 53q78 -211 293 -229v464q-233 56 -302.5 146t-69.5 200q0 290 372 352v165h122v-165q295 -26 387 -264l-136 -44q-55 163 -251 176v-428q413 -74 413 -372q0 -128 -94 -237.5t-319 -129.5v-193zM524 1210q-103 -8 -164.5 -63
t-61.5 -139q0 -165 226 -208v410zM646 180q122 5 190.5 67t68.5 149q0 185 -259 221v-437z" />
    <glyph glyph-name="percent" unicode="%" horiz-adv-x="1475" 
d="M357 669q-131 0 -206.5 104t-75.5 252q0 149 73 251.5t206 102.5q141 0 212.5 -108t71.5 -250q0 -141 -74 -246.5t-207 -105.5zM359 748q86 0 128.5 75t42.5 189q0 127 -43.5 208t-133.5 81q-171 0 -171 -272q0 -281 177 -281zM388 0h-126l827 1365h124zM1120 -14
q-133 0 -207.5 105t-74.5 252q0 148 72.5 250.5t206.5 102.5q140 0 211 -108t71 -250q0 -140 -73.5 -246t-205.5 -106zM1122 66q86 0 128.5 74t42.5 189q0 123 -43 206.5t-134 83.5q-173 0 -173 -273q0 -280 179 -280z" />
    <glyph glyph-name="ampersand" unicode="&#x26;" horiz-adv-x="1365" 
d="M1291 144v-144q-91 -15 -148 -15q-42 0 -89.5 15t-138.5 109q-162 -136 -366 -136q-207 0 -333.5 118.5t-126.5 286.5q0 134 89.5 247.5t264.5 170.5q-132 189 -132 311q0 116 83 201t221 85q140 0 229.5 -79t89.5 -213q0 -218 -287 -354l288 -436q140 177 185 436
l146 -31q-61 -295 -251 -511q65 -71 146 -71q37 0 130 10zM578 845q161 89 194 143t33 104q0 71 -51 122.5t-130 51.5q-72 0 -119 -45.5t-47 -102.5q0 -88 120 -273zM509 693q-142 -61 -195.5 -131.5t-53.5 -176.5q0 -145 92.5 -214t215.5 -69q156 0 269 109z" />
    <glyph glyph-name="quotesingle" unicode="'" horiz-adv-x="371" 
d="M236 837h-100l-30 528h160z" />
    <glyph glyph-name="parenleft" unicode="(" horiz-adv-x="601" 
d="M506 -341h-105q-294 386 -294 855q0 448 294 851h105q-253 -377 -253 -853q0 -454 253 -853z" />
    <glyph glyph-name="parenright" unicode=")" horiz-adv-x="601" 
d="M95 1365h104q295 -386 295 -855q0 -448 -295 -851h-104q253 377 253 853q0 454 -253 853z" />
    <glyph glyph-name="asterisk" unicode="*" horiz-adv-x="1201" 
d="M561 989l-38 376h154l-37 -376l354 155l47 -144l-388 -76l257 -282l-126 -88l-184 324l-183 -324l-126 88l256 282l-387 76l46 144z" />
    <glyph glyph-name="plus" unicode="+" horiz-adv-x="1201" 
d="M123 753h403v421h150v-421h403v-138h-403v-421h-150v421h-403v138z" />
    <glyph glyph-name="comma" unicode="," horiz-adv-x="512" 
d="M365 228v-205l-149 -280h-85l118 257h-102v228h218z" />
    <glyph glyph-name="hyphen" unicode="-" horiz-adv-x="512" 
d="M482 573v-122h-452v122h452z" />
    <glyph glyph-name="period" unicode="." horiz-adv-x="512" 
d="M368 224v-224h-223v224h223z" />
    <glyph glyph-name="slash" unicode="/" horiz-adv-x="930" 
d="M38 -341h-134l824 1706h134z" />
    <glyph glyph-name="zero" unicode="0" horiz-adv-x="1201" 
d="M602 -27q-236 0 -377 204.5t-141 507.5q0 298 134 503t379 205q256 0 388.5 -214t132.5 -502q0 -282 -136 -493t-380 -211zM603 107q173 0 256 156.5t83 393.5q0 259 -85 431t-262 172q-171 0 -254.5 -157t-83.5 -413q0 -266 88 -424.5t258 -158.5z" />
    <glyph glyph-name="one" unicode="1" horiz-adv-x="1201" 
d="M1144 127v-127h-956v127h410v1054q-181 -189 -376 -295v172q269 141 417 335h122v-1266h383z" />
    <glyph glyph-name="two" unicode="2" horiz-adv-x="1201" 
d="M1075 142v-142h-969v142q574 430 684.5 566.5t110.5 270.5q0 125 -93 202t-214 77q-125 0 -221 -84.5t-108 -229.5l-159 48q100 401 490 401q211 0 343 -120t132 -293q0 -119 -62.5 -229t-236.5 -263t-450 -346h753z" />
    <glyph glyph-name="three" unicode="3" horiz-adv-x="1201" 
d="M396 642v136h156q171 0 244.5 70t73.5 170q0 110 -82 174.5t-206 64.5q-230 0 -318 -222l-154 44q132 314 488 314q200 0 323 -106.5t123 -256.5q0 -116 -74 -202.5t-190 -108.5q130 -19 223.5 -109t93.5 -233q0 -171 -139 -287.5t-381 -116.5q-192 0 -328.5 91
t-188.5 242l159 53q72 -247 355 -247q184 0 264.5 78.5t80.5 187.5q0 118 -96.5 191t-270.5 73h-156z" />
    <glyph glyph-name="four" unicode="4" horiz-adv-x="1201" 
d="M903 0h-165v325h-675v115l626 954h214v-934h221v-135h-221v-325zM738 460v646q0 70 3 151q-43 -79 -74 -128l-426 -669h497z" />
    <glyph glyph-name="five" unicode="5" horiz-adv-x="1201" 
d="M1001 1365l-14 -147h-671l-29 -443q152 149 334 149q192 0 331.5 -133t139.5 -340q0 -210 -151.5 -344t-370.5 -134q-172 0 -306 90t-176 233l146 50q90 -238 338 -238q163 0 259 96.5t96 246.5q0 157 -95 245t-228 88q-194 0 -321 -186l-135 29l44 738h809z" />
    <glyph glyph-name="six" unicode="6" horiz-adv-x="1201" 
d="M1097 1086l-154 -42q-79 208 -288 208q-384 0 -393 -635q61 141 173 209t237 68q190 0 318.5 -132.5t128.5 -317.5q0 -192 -136.5 -331.5t-349.5 -139.5q-242 0 -385.5 182.5t-143.5 496.5q0 307 135.5 524t419.5 217q327 0 438 -307zM630 110q145 0 237.5 95.5
t92.5 229.5q0 132 -90.5 226.5t-224.5 94.5q-138 0 -241 -99t-103 -232q0 -123 92 -219t237 -96z" />
    <glyph glyph-name="seven" unicode="7" horiz-adv-x="1201" 
d="M575 0h-176q0 343 140 667.5t343 547.5h-741l17 150h902v-102q-244 -294 -365 -612t-121 -604q0 -16 1 -47z" />
    <glyph glyph-name="eight" unicode="8" horiz-adv-x="1201" 
d="M399 708q-259 113 -259 328q0 156 129 256.5t342 100.5q210 0 334 -96.5t124 -252.5q0 -217 -265 -311q214 -99 268.5 -191t54.5 -184q0 -164 -139.5 -274.5t-378.5 -110.5q-255 0 -395 112.5t-140 267.5q0 231 325 355zM606 793q172 46 243 106t71 150
q0 105 -84.5 159.5t-222.5 54.5q-132 0 -216 -57.5t-84 -154.5q0 -96 93.5 -166t199.5 -92zM587 636q-346 -82 -346 -289q0 -108 94.5 -176.5t278.5 -68.5q156 0 251 67t95 171q0 199 -373 296z" />
    <glyph glyph-name="nine" unicode="9" horiz-adv-x="1201" 
d="M117 249l137 50q85 -189 286 -189q195 0 293.5 164t101.5 445q-134 -246 -403 -246q-190 0 -319 129.5t-129 320.5q0 194 135.5 332t345.5 138q257 0 394 -180.5t137 -496.5q0 -332 -145 -537.5t-413 -205.5q-313 0 -421 276zM570 610q141 0 236.5 98.5t95.5 230.5
q0 128 -90.5 220t-238.5 92q-150 0 -237 -94.5t-87 -230.5q0 -146 96.5 -231t224.5 -85z" />
    <glyph glyph-name="colon" unicode=":" horiz-adv-x="512" 
d="M368 1010v-224h-223v224h223zM368 225v-225h-223v225h223z" />
    <glyph glyph-name="semicolon" unicode=";" horiz-adv-x="512" 
d="M365 1010v-221h-219v221h219zM365 228v-205l-151 -278h-83l117 255h-102v228h219z" />
    <glyph glyph-name="semicolon" unicode="&#x37e;" horiz-adv-x="512" 
d="M365 1010v-221h-219v221h219zM365 228v-205l-151 -278h-83l117 255h-102v228h219z" />
    <glyph glyph-name="less" unicode="&#x3c;" horiz-adv-x="1201" 
d="M1024 1159v-152l-723 -331l723 -331v-151l-887 416v133z" />
    <glyph glyph-name="equal" unicode="=" horiz-adv-x="1201" 
d="M123 931h956v-138h-956v138zM123 606h956v-138h-956v138z" />
    <glyph glyph-name="greater" unicode="&#x3e;" horiz-adv-x="1201" 
d="M177 194v152l724 331l-724 331v151l887 -417v-132z" />
    <glyph glyph-name="question" unicode="?" horiz-adv-x="1035" 
d="M537 340h-144q1 156 4.5 194.5t21.5 77t40.5 60t106.5 68.5q91 51 125.5 79.5t60 79t25.5 110.5q0 114 -82.5 179t-194.5 65q-254 0 -310 -295l-149 32q75 403 467 403q200 0 323 -109.5t123 -280.5q0 -223 -256 -356q-112 -59 -137 -92.5t-25 -104.5zM571 197v-197h-202
v197h202z" />
    <glyph glyph-name="at" unicode="@" horiz-adv-x="1526" 
d="M1113 1042l-56 -467q-6 -52 -6 -90q0 -69 67 -69q75 0 139 106t64 249q0 226 -153.5 362t-379.5 136q-235 0 -404 -168.5t-169 -419.5q0 -235 160 -408.5t447 -173.5q227 0 448 113l44 -121q-234 -118 -492 -118q-341 0 -540.5 209.5t-199.5 499.5q0 304 208 507.5
t503 203.5q278 0 464.5 -176.5t186.5 -432.5q0 -197 -100.5 -347.5t-244.5 -150.5q-118 0 -160 122q-94 -126 -225 -126q-134 0 -224.5 106t-90.5 267q0 176 103 290t250 114q140 0 215 -116l12 99h134zM723 415q87 0 151.5 89.5t64.5 207.5q0 96 -51 155t-123 59
q-86 0 -148.5 -77t-62.5 -199q0 -107 49.5 -171t119.5 -64z" />
    <glyph glyph-name="A" unicode="A" horiz-adv-x="1097" 
d="M1090 0h-175l-138 399h-505l-122 -399h-143l443 1365h195zM741 527l-210 656l-212 -656h422z" />
    <glyph glyph-name="B" unicode="B" horiz-adv-x="1238" 
d="M171 0v1365h540q204 0 302.5 -100t98.5 -232q0 -232 -242 -308q144 -37 214 -132t70 -215q0 -161 -108.5 -269.5t-334.5 -108.5h-540zM336 780h297q185 0 247 70.5t62 165.5q0 94 -66.5 152t-198.5 58h-341v-446zM336 150h366q134 0 207 65t73 169q0 73 -33 135.5
t-93 96.5t-179 34h-341v-500z" />
    <glyph glyph-name="C" unicode="C" horiz-adv-x="1186" 
d="M989 459l156 -35q-112 -451 -506 -451q-259 0 -406.5 209t-147.5 514q0 315 154 506t413 191q384 0 493 -439l-161 -32q-88 326 -333 326q-181 0 -280.5 -151.5t-99.5 -425.5q0 -251 102 -402.5t270 -151.5q261 0 346 342z" />
    <glyph glyph-name="D" unicode="D" horiz-adv-x="1325" 
d="M171 0v1365h458q289 0 450 -197t161 -482q0 -289 -157 -487.5t-398 -198.5h-514zM342 145h277q220 0 334 152t114 401q0 202 -108.5 363t-339.5 161h-277v-1077z" />
    <glyph glyph-name="E" unicode="E" horiz-adv-x="1122" 
d="M1054 150v-150h-883v1365h864v-150h-693v-434h550v-139h-550v-492h712z" />
    <glyph glyph-name="F" unicode="F" horiz-adv-x="1040" 
d="M342 0h-171v1365h836v-150h-665v-431h551v-138h-551v-646z" />
    <glyph glyph-name="G" unicode="G" horiz-adv-x="1325" 
d="M1182 688v-706h-105l-47 171q-126 -180 -375 -180q-270 0 -420 203t-150 493q0 310 159 517t432 207q377 0 492 -396l-162 -39q-35 152 -131 221t-210 69q-202 0 -298 -163t-96 -409q0 -265 107.5 -414.5t292.5 -149.5q144 0 240.5 95.5t96.5 263.5q0 31 -2 74h-338v143
h514z" />
    <glyph glyph-name="H" unicode="H" horiz-adv-x="1316" 
d="M1146 0h-171v650h-633v-650h-171v1365h171v-565h633v565h171v-1365z" />
    <glyph glyph-name="I" unicode="I" horiz-adv-x="512" 
d="M342 0h-171v1365h171v-1365z" />
    <glyph glyph-name="J" unicode="J" horiz-adv-x="765" 
d="M608 1365v-948q0 -248 -112 -346t-297 -98q-99 0 -199 27v140q98 -20 178 -20q114 0 168 34t72.5 88t18.5 175v948h171z" />
    <glyph glyph-name="K" unicode="K" horiz-adv-x="1287" 
d="M1250 0h-187l-408 753l-313 -389v-364h-171v1365h171v-792l617 792h185l-370 -478z" />
    <glyph glyph-name="L" unicode="L" horiz-adv-x="1003" 
d="M977 150v-150h-806v1365h175v-1215h631z" />
    <glyph glyph-name="M" unicode="M" horiz-adv-x="1659" 
d="M1489 0h-166v1192l-444 -1192h-116l-447 1192v-1192h-145v1365h254l411 -1092l403 1092h250v-1365z" />
    <glyph glyph-name="N" unicode="N" horiz-adv-x="1346" 
d="M1176 0h-166l-706 1190l2 -90q3 -51 3 -86v-1014h-138v1365h214l660 -1113l-2 95q-2 56 -2 99v919h135v-1365z" />
    <glyph glyph-name="O" unicode="O" horiz-adv-x="1292" 
d="M642 -27q-263 0 -410 204.5t-147 501.5q0 310 154 512t408 202q253 0 406 -198.5t153 -500.5q0 -290 -148.5 -505.5t-415.5 -215.5zM646 112q179 0 280 163t101 420q0 264 -104.5 411t-277.5 147q-175 0 -278 -159t-103 -416q0 -251 104 -408.5t278 -157.5z" />
    <glyph glyph-name="P" unicode="P" horiz-adv-x="1145" 
d="M342 0h-171v1365h484q227 0 335 -123.5t108 -281.5q0 -176 -117.5 -291t-307.5 -115h-331v-554zM342 696h314q121 0 195 72.5t74 191.5q0 102 -66 182t-191 80h-326v-526z" />
    <glyph glyph-name="Q" unicode="Q" horiz-adv-x="1292" 
d="M647 -27q-263 0 -412.5 200.5t-149.5 499.5q0 318 155 519t406 201q245 0 402.5 -192t157.5 -507q0 -262 -118 -459t-302 -245l-1 -19q0 -151 182 -151q87 0 157 13v-137q-68 -21 -141 -21q-157 0 -241.5 66.5t-94.5 231.5zM646 112q179 0 280 163t101 420
q0 264 -104.5 411t-277.5 147q-175 0 -278 -159t-103 -416q0 -251 104 -408.5t278 -157.5z" />
    <glyph glyph-name="R" unicode="R" horiz-adv-x="1255" 
d="M1153 0h-179l-252 591h-391v-591h-160v1365h538q219 0 324.5 -119.5t105.5 -261.5q0 -109 -59 -209t-195 -143zM331 730h357q141 0 210.5 74.5t69.5 182.5t-73.5 168t-185.5 60h-378v-485z" />
    <glyph glyph-name="S" unicode="S" horiz-adv-x="1166" 
d="M21 363l154 35q93 -279 403 -279q162 0 244 68.5t82 183.5q0 87 -62.5 140t-144.5 73l-273 68q-106 27 -173.5 65.5t-114.5 118.5t-47 183q0 171 129 272.5t331 101.5q372 0 489 -337l-155 -46q-27 120 -127 181.5t-213 61.5q-112 0 -199.5 -59t-87.5 -167
q0 -151 222 -204l255 -61q350 -84 350 -377q0 -177 -131.5 -294.5t-370.5 -117.5q-424 0 -560 390z" />
    <glyph glyph-name="T" unicode="T" horiz-adv-x="994" 
d="M582 0h-170v1215h-391v150h953v-150h-392v-1215z" />
    <glyph glyph-name="U" unicode="U" horiz-adv-x="1241" 
d="M949 1365h142v-891q0 -268 -131.5 -384.5t-344.5 -116.5q-237 0 -351 120t-114 381v891h171v-891q0 -159 37 -224t112 -96t157 -31q158 0 240 83t82 268v891z" />
    <glyph glyph-name="V" unicode="V" horiz-adv-x="1099" 
d="M1092 1365l-460 -1365h-165l-460 1365h178l381 -1126l377 1126h149z" />
    <glyph glyph-name="W" unicode="W" horiz-adv-x="1674" 
d="M1635 1365l-329 -1365h-171l-298 1059l-277 -1059h-175l-346 1365h177l273 -1106l290 1106h138l313 -1106l255 1106h150z" />
    <glyph glyph-name="X" unicode="X" horiz-adv-x="1065" 
d="M1005 1365l-383 -625l438 -740h-193l-345 582l-358 -582h-159l437 706l-389 659h191l299 -504l306 504h156z" />
    <glyph glyph-name="Y" unicode="Y" horiz-adv-x="1045" 
d="M1065 1365l-457 -791v-574h-171v574l-457 791h201l363 -628l365 628h156z" />
    <glyph glyph-name="Z" unicode="Z" horiz-adv-x="1066" 
d="M1019 146v-146h-963v146l741 1071h-707v139h907v-114l-750 -1096h772z" />
    <glyph glyph-name="bracketleft" unicode="[" horiz-adv-x="601" 
d="M516 -341h-354v1706h354v-105h-217v-1496h217v-105z" />
    <glyph glyph-name="backslash" unicode="\" horiz-adv-x="930" 
d="M892 -341l-824 1706h134l824 -1706h-134z" />
    <glyph glyph-name="bracketright" unicode="]" horiz-adv-x="601" 
d="M85 1365h354v-1706h-354v105h217v1496h-217v105z" />
    <glyph glyph-name="asciicircum" unicode="^" horiz-adv-x="1024" 
d="M974 745h-167l-297 503l-295 -503h-165l361 624h201z" />
    <glyph glyph-name="underscore" unicode="_" horiz-adv-x="1024" 
d="M0 -136h1024v-137h-1024v137z" />
    <glyph glyph-name="grave" unicode="`" horiz-adv-x="1024" 
d="M188 1356l62 120l395 -228l-42 -81z" />
    <glyph glyph-name="a" unicode="a" horiz-adv-x="1083" 
d="M948 0h-156q-9 48 -18 182q-104 -209 -354 -209q-170 0 -261 90t-91 216q0 153 130 251.5t442 98.5q42 0 134 -4q0 120 -18.5 173.5t-78.5 85.5t-158 32q-239 0 -278 -182l-145 25q53 279 446 279q209 0 296.5 -92.5t87.5 -320.5v-429q0 -107 22 -196zM774 505
q-96 6 -146 6q-186 0 -289 -61t-103 -178q0 -74 55.5 -126t160.5 -52q142 0 233.5 103t91.5 242q0 28 -3 66z" />
    <glyph glyph-name="b" unicode="b" horiz-adv-x="1100" 
d="M233 0h-76v1365h157v-523q108 196 298 196q174 0 291.5 -137t117.5 -398q0 -225 -115.5 -377.5t-300.5 -152.5q-206 0 -316 194zM314 396q11 -155 95.5 -225t178.5 -70q120 0 193.5 104t73.5 285q0 195 -71 306.5t-197 111.5q-99 0 -178.5 -79.5t-94.5 -205.5v-227z" />
    <glyph glyph-name="c" unicode="c" horiz-adv-x="954" 
d="M754 354l142 -25q-30 -167 -133 -261.5t-257 -94.5q-209 0 -318.5 154t-109.5 376q0 230 115.5 382.5t314.5 152.5q165 0 264.5 -98.5t123.5 -254.5l-142 -27q-40 250 -242 250q-130 0 -200 -110.5t-70 -286.5q0 -194 69.5 -301.5t195.5 -107.5q195 0 247 252z" />
    <glyph glyph-name="d" unicode="d" horiz-adv-x="1103" 
d="M946 1365v-1365h-143v173q-106 -200 -319 -200q-177 0 -291 148.5t-114 375.5q0 232 113 386.5t300 154.5q182 0 297 -166v493h157zM789 620q0 133 -81 213t-189 80q-117 0 -192.5 -104t-75.5 -292q0 -203 69.5 -309t190.5 -106q110 0 194 92t84 216v210z" />
    <glyph glyph-name="e" unicode="e" horiz-adv-x="1066" 
d="M824 301l146 -30q-40 -129 -156 -213.5t-273 -84.5q-207 0 -335 145.5t-128 381.5q0 241 133 389.5t334 148.5q198 0 318.5 -137t123.5 -410h-734q0 -229 96 -309t203 -80q193 0 272 199zM815 608q-2 85 -28 151t-88 112.5t-149 46.5q-117 0 -198.5 -84t-91.5 -226h555z
" />
    <glyph glyph-name="f" unicode="f" horiz-adv-x="614" 
d="M576 1010v-123h-240v-887h-157v887h-172v123h172q4 243 93.5 313t218.5 70q63 0 144 -14v-125q-51 13 -97 13q-103 0 -152.5 -45.5t-49.5 -170.5v-41h240z" />
    <glyph glyph-name="g" unicode="g" horiz-adv-x="1006" 
d="M982 1168v-125q-108 0 -144.5 -25t-48.5 -90q97 -112 97 -244q0 -138 -105.5 -237t-283.5 -99q-40 0 -69 6q-55 11 -69 11q-27 0 -65 -26.5t-38 -68.5q0 -60 55 -78t259 -23q173 -5 255.5 -23.5t139.5 -82t57 -155.5q0 -289 -508 -289q-241 0 -351.5 72.5t-110.5 193.5
q0 147 154 202q-99 65 -99 163q0 117 140 179q-131 106 -131 267q0 150 112 246t273 96q114 0 207 -43q15 99 69.5 137t165.5 38q11 0 39 -2zM502 468q100 0 163 61.5t63 159.5q0 100 -65.5 163.5t-158.5 63.5q-89 0 -158 -59.5t-69 -169.5q0 -98 62 -158.5t163 -60.5z
M314 41q-110 -48 -110 -139q0 -77 90.5 -119.5t230.5 -42.5q130 0 238 36.5t108 123.5q0 47 -32 77t-87.5 38t-193.5 12q-165 4 -244 14z" />
    <glyph glyph-name="h" unicode="h" horiz-adv-x="1106" 
d="M949 0h-157v613q0 108 -13.5 162t-64 93.5t-116.5 39.5q-121 0 -202.5 -99t-81.5 -265v-544h-157v1365h157v-541q107 214 306 214q89 0 158.5 -35t106.5 -92t50.5 -112.5t13.5 -185.5v-613z" />
    <glyph glyph-name="i" unicode="i" horiz-adv-x="470" 
d="M319 1365v-174h-169v174h169zM314 1010v-1010h-157v1010h157z" />
    <glyph glyph-name="j" unicode="j" horiz-adv-x="469" 
d="M322 1365v-174h-178v174h178zM314 1021v-1052q0 -178 -84.5 -248t-206.5 -70q-60 0 -147 21v124q65 -16 115 -16q89 0 127.5 42.5t38.5 146.5v1052h157z" />
    <glyph glyph-name="k" unicode="k" horiz-adv-x="1026" 
d="M991 0h-163l-295 564l-219 -252v-312h-157v1365h157v-874l469 519h168l-316 -355z" />
    <glyph glyph-name="l" unicode="l" horiz-adv-x="471" 
d="M314 0h-157v1365h157v-1365z" />
    <glyph glyph-name="m" unicode="m" horiz-adv-x="1667" 
d="M1510 0h-153v628q0 97 -13.5 145.5t-65.5 89t-117 40.5q-90 0 -173.5 -82.5t-83.5 -251.5v-569h-152v665q0 133 -63.5 188t-133.5 55q-100 0 -174 -86t-74 -218v-604h-150v1010h135v-194q113 222 311 222q109 0 185 -71t98 -171q104 242 319 242q103 0 180.5 -59
t101 -135.5t23.5 -215.5v-628z" />
    <glyph glyph-name="n" unicode="n" horiz-adv-x="1110" 
d="M953 0h-147v649q0 140 -61 197t-148 57q-120 0 -201.5 -96t-81.5 -253v-554h-157v1010h146v-186q123 214 319 214q113 0 192.5 -58.5t109 -131.5t29.5 -264v-584z" />
    <glyph glyph-name="o" unicode="o" horiz-adv-x="1064" 
d="M519 -27q-208 0 -324.5 154t-116.5 382q0 241 131 385t326 144q209 0 329.5 -151.5t120.5 -378.5q0 -236 -130 -385.5t-336 -149.5zM531 102q120 0 201 99t81 308q0 210 -85 304.5t-199 94.5q-117 0 -198 -95.5t-81 -302.5q0 -219 81 -313.5t200 -94.5z" />
    <glyph glyph-name="p" unicode="p" horiz-adv-x="1094" 
d="M314 -341h-157v1351h141v-196q107 224 319 224q179 0 289 -149.5t110 -378.5q0 -247 -113 -392t-290 -145q-190 0 -299 181v-495zM314 651v-284q15 -115 97 -190t171 -75q103 0 182.5 90t79.5 311q0 191 -72 294.5t-191 103.5q-94 0 -168.5 -73t-98.5 -177z" />
    <glyph glyph-name="q" unicode="q" horiz-adv-x="1097" 
d="M940 1024v-1365h-157v525q-99 -211 -305 -211q-172 0 -286 138.5t-114 385.5q0 235 114 388t300 153q88 0 160.5 -35t146.5 -158l62 179h79zM783 584q-13 178 -95.5 251t-174.5 73q-117 0 -190 -111t-73 -293q0 -178 69.5 -287.5t190.5 -109.5q122 0 197.5 104.5
t75.5 238.5v134z" />
    <glyph glyph-name="r" unicode="r" horiz-adv-x="675" 
d="M314 0h-157v1010h138v-236q73 167 146.5 216.5t150.5 49.5q24 0 62 -4v-150h-32q-130 0 -216 -97t-92 -255v-534z" />
    <glyph glyph-name="s" unicode="s" horiz-adv-x="950" 
d="M21 262l150 31q50 -191 316 -191q98 0 166 44t68 124q0 119 -173 151l-213 40q-125 24 -199 94t-74 185q0 127 101 212.5t272 85.5q329 0 406 -257l-144 -31q-62 158 -255 158q-96 0 -157.5 -39.5t-61.5 -110.5q0 -112 157 -141l197 -35q309 -56 309 -299
q0 -139 -115 -224.5t-306 -85.5q-359 0 -444 289z" />
    <glyph glyph-name="t" unicode="t" horiz-adv-x="630" 
d="M615 108v-124q-83 -11 -144 -11q-293 0 -293 306v608h-179v123h179l7 254l146 14v-268h226v-123h-226v-634q0 -156 162 -156q54 0 122 11z" />
    <glyph glyph-name="u" unicode="u" horiz-adv-x="1109" 
d="M952 0h-141v193q-108 -220 -322 -220q-155 0 -243.5 102t-88.5 290v645h157v-645q0 -150 62.5 -206.5t137.5 -56.5q76 0 137.5 43t102.5 122.5t41 173.5v569h157v-1010z" />
    <glyph glyph-name="v" unicode="v" horiz-adv-x="922" 
d="M897 1010l-349 -1010h-163l-361 1010h174l281 -821l278 821h140z" />
    <glyph glyph-name="w" unicode="w" horiz-adv-x="1360" 
d="M1321 1010l-291 -1010h-127l-226 750l-207 -750h-129l-303 1010h158l219 -753l210 753h115l227 -756l227 756h127z" />
    <glyph glyph-name="x" unicode="x" horiz-adv-x="868" 
d="M861 0h-181l-257 410l-263 -410h-153l340 524l-307 486h181l216 -345l220 345h151l-294 -452z" />
    <glyph glyph-name="y" unicode="y" horiz-adv-x="850" 
d="M850 1010l-405 -1128q-88 -244 -281 -244q-61 0 -135 21v123q61 -14 105 -14q75 0 125.5 43t100.5 208l-349 991h160l270 -759l277 759h132z" />
    <glyph glyph-name="z" unicode="z" horiz-adv-x="867" 
d="M812 121v-121h-744v121l537 766h-496v123h703v-85l-556 -804h556z" />
    <glyph glyph-name="braceleft" unicode="{" horiz-adv-x="601" 
d="M246 511q126 -55 126 -231v-330q0 -107 37.5 -145.5t150.5 -39.5v-106l-35 -1q-160 0 -225 66.5t-65 225.5v330q0 93 -29.5 131.5t-87.5 53.5v99q57 14 87 52.5t30 125.5v355q0 147 69.5 208t212.5 61q14 0 43 -1v-106q-113 -3 -150.5 -40.5t-37.5 -136.5v-346
q0 -67 -20.5 -127.5t-105.5 -97.5z" />
    <glyph glyph-name="bar" unicode="|" horiz-adv-x="1024" 
d="M436 1365h153v-1706h-153v1706z" />
    <glyph glyph-name="braceright" unicode="}" horiz-adv-x="601" 
d="M355 513q-126 55 -126 231v330q0 107 -37.5 145.5t-150.5 39.5v106l34 1q168 0 229 -68.5t61 -223.5v-330q0 -88 27 -128t91 -57v-99q-56 -14 -87 -52.5t-31 -125.5v-355q0 -130 -60.5 -199.5t-220.5 -69.5q-14 0 -43 1v106q112 3 150 40.5t38 136.5v346q0 71 21 130
t105 95z" />
    <glyph glyph-name="asciitilde" unicode="~" horiz-adv-x="1201" 
d="M108 585q107 238 281 238q84 0 229 -70q134 -64 199 -64q106 0 184 137l92 -54q-114 -231 -280 -231q-84 0 -256 81q-112 52 -184 52q-96 0 -175 -147z" />
    <glyph glyph-name="Adieresis" unicode="&#xc4;" horiz-adv-x="1097" 
d="M1090 0h-175l-138 399h-505l-122 -399h-143l443 1365h195zM741 527l-210 656l-212 -656h422zM814 1625q0 -43 -31.5 -73t-74.5 -30t-74.5 30t-31.5 72q0 43 31.5 72.5t73.5 29.5q44 0 75.5 -29.5t31.5 -71.5zM492 1624q0 -42 -31.5 -72t-73.5 -30t-72.5 30t-30.5 71
q0 43 30.5 72.5t69.5 29.5q48 0 78 -30t30 -71z" />
    <glyph glyph-name="Aring" unicode="&#xc5;" horiz-adv-x="1097" 
d="M729 1635q0 -74 -52.5 -127t-125.5 -53q-75 0 -128.5 53t-53.5 128q0 73 53 126.5t132 53.5q70 0 122.5 -53.5t52.5 -127.5zM640 1634q0 37 -26 64t-63 27q-38 0 -65.5 -26.5t-27.5 -63.5q0 -38 27.5 -65t64.5 -27t63.5 26.5t26.5 64.5zM1090 0h-175l-138 399h-505
l-122 -399h-143l443 1365h195zM741 527l-210 656l-212 -656h422z" />
    <glyph glyph-name="Ccedilla" unicode="&#xc7;" horiz-adv-x="1186" 
d="M648 -27l-25 -80q24 2 37 2q68 0 124.5 -39.5t56.5 -111.5q0 -68 -57 -111.5t-160 -43.5q-105 0 -193 50l26 72q83 -40 154 -40q115 0 115 75q0 80 -129 80q-28 0 -81 -5l52 156q-224 26 -353.5 232t-129.5 487q0 315 154 506t413 191q384 0 493 -439l-161 -32
q-88 326 -333 326q-181 0 -280.5 -151.5t-99.5 -425.5q0 -251 102 -402.5t270 -151.5q261 0 346 342l156 -35q-111 -451 -497 -451z" />
    <glyph glyph-name="Eacute" unicode="&#xc9;" horiz-adv-x="1122" 
d="M1054 150v-150h-883v1365h864v-150h-693v-434h550v-139h-550v-492h712zM909 1677l-414 -189l-43 81l396 228z" />
    <glyph glyph-name="Ntilde" unicode="&#xd1;" horiz-adv-x="1346" 
d="M1176 0h-166l-706 1190l2 -90q3 -51 3 -86v-1014h-138v1365h214l660 -1113l-2 95q-2 56 -2 99v919h135v-1365zM945 1701l77 -72q-106 -101 -202 -101q-49 0 -129 35q-87 38 -134 38q-81 0 -135 -66l-84 58q88 128 224 128q46 0 128 -34q89 -37 128 -37q65 0 127 51z" />
    <glyph glyph-name="Odieresis" unicode="&#xd6;" horiz-adv-x="1292" 
d="M642 -27q-263 0 -410 204.5t-147 501.5q0 310 154 512t408 202q253 0 406 -198.5t153 -500.5q0 -290 -148.5 -505.5t-415.5 -215.5zM646 112q179 0 280 163t101 420q0 264 -104.5 411t-277.5 147q-175 0 -278 -159t-103 -416q0 -251 104 -408.5t278 -157.5zM911 1625
q0 -43 -31.5 -73t-74.5 -30t-74.5 30t-31.5 72q0 43 31.5 72.5t73.5 29.5q44 0 75.5 -29.5t31.5 -71.5zM589 1624q0 -42 -31.5 -72t-73.5 -30t-72.5 30t-30.5 71q0 43 30.5 72.5t69.5 29.5q48 0 78 -30t30 -71z" />
    <glyph glyph-name="Udieresis" unicode="&#xdc;" horiz-adv-x="1241" 
d="M949 1365h142v-891q0 -268 -131.5 -384.5t-344.5 -116.5q-237 0 -351 120t-114 381v891h171v-891q0 -159 37 -224t112 -96t157 -31q158 0 240 83t82 268v891zM892 1625q0 -43 -31.5 -73t-74.5 -30t-74.5 30t-31.5 72q0 43 31.5 72.5t73.5 29.5q44 0 75.5 -29.5
t31.5 -71.5zM570 1624q0 -42 -31.5 -72t-73.5 -30t-72.5 30t-30.5 71q0 43 30.5 72.5t69.5 29.5q48 0 78 -30t30 -71z" />
    <glyph glyph-name="aacute" unicode="&#xe1;" horiz-adv-x="1083" 
d="M948 0h-156q-9 48 -18 182q-104 -209 -354 -209q-170 0 -261 90t-91 216q0 153 130 251.5t442 98.5q42 0 134 -4q0 120 -18.5 173.5t-78.5 85.5t-158 32q-239 0 -278 -182l-145 25q53 279 446 279q209 0 296.5 -92.5t87.5 -320.5v-429q0 -107 22 -196zM774 505
q-96 6 -146 6q-186 0 -289 -61t-103 -178q0 -74 55.5 -126t160.5 -52q142 0 233.5 103t91.5 242q0 28 -3 66zM832 1356l-414 -189l-43 81l396 228z" />
    <glyph glyph-name="agrave" unicode="&#xe0;" horiz-adv-x="1083" 
d="M948 0h-156q-9 48 -18 182q-104 -209 -354 -209q-170 0 -261 90t-91 216q0 153 130 251.5t442 98.5q42 0 134 -4q0 120 -18.5 173.5t-78.5 85.5t-158 32q-239 0 -278 -182l-145 25q53 279 446 279q209 0 296.5 -92.5t87.5 -320.5v-429q0 -107 22 -196zM774 505
q-96 6 -146 6q-186 0 -289 -61t-103 -178q0 -74 55.5 -126t160.5 -52q142 0 233.5 103t91.5 242q0 28 -3 66zM252 1356l62 120l395 -228l-42 -81z" />
    <glyph glyph-name="acircumflex" unicode="&#xe2;" horiz-adv-x="1083" 
d="M948 0h-156q-9 48 -18 182q-104 -209 -354 -209q-170 0 -261 90t-91 216q0 153 130 251.5t442 98.5q42 0 134 -4q0 120 -18.5 173.5t-78.5 85.5t-158 32q-239 0 -278 -182l-145 25q53 279 446 279q209 0 296.5 -92.5t87.5 -320.5v-429q0 -107 22 -196zM774 505
q-96 6 -146 6q-186 0 -289 -61t-103 -178q0 -74 55.5 -126t160.5 -52q142 0 233.5 103t91.5 242q0 28 -3 66zM867 1194l-141 -20l-191 134l-184 -134l-147 20l334 260z" />
    <glyph glyph-name="adieresis" unicode="&#xe4;" horiz-adv-x="1083" 
d="M948 0h-156q-9 48 -18 182q-104 -209 -354 -209q-170 0 -261 90t-91 216q0 153 130 251.5t442 98.5q42 0 134 -4q0 120 -18.5 173.5t-78.5 85.5t-158 32q-239 0 -278 -182l-145 25q53 279 446 279q209 0 296.5 -92.5t87.5 -320.5v-429q0 -107 22 -196zM774 505
q-96 6 -146 6q-186 0 -289 -61t-103 -178q0 -74 55.5 -126t160.5 -52q142 0 233.5 103t91.5 242q0 28 -3 66zM801 1304q0 -43 -31.5 -73t-74.5 -30t-74.5 30t-31.5 72q0 43 31.5 72.5t73.5 29.5q44 0 75.5 -29.5t31.5 -71.5zM479 1303q0 -42 -31.5 -72t-73.5 -30t-72.5 30
t-30.5 71q0 43 30.5 72.5t69.5 29.5q48 0 78 -30t30 -71z" />
    <glyph glyph-name="atilde" unicode="&#xe3;" horiz-adv-x="1083" 
d="M948 0h-156q-9 48 -18 182q-104 -209 -354 -209q-170 0 -261 90t-91 216q0 153 130 251.5t442 98.5q42 0 134 -4q0 120 -18.5 173.5t-78.5 85.5t-158 32q-239 0 -278 -182l-145 25q53 279 446 279q209 0 296.5 -92.5t87.5 -320.5v-429q0 -107 22 -196zM774 505
q-96 6 -146 6q-186 0 -289 -61t-103 -178q0 -74 55.5 -126t160.5 -52q142 0 233.5 103t91.5 242q0 28 -3 66zM807 1380l77 -72q-106 -101 -202 -101q-49 0 -129 35q-87 38 -134 38q-81 0 -135 -66l-84 58q88 128 224 128q46 0 128 -34q89 -37 128 -37q65 0 127 51z" />
    <glyph glyph-name="aring" unicode="&#xe5;" horiz-adv-x="1083" 
d="M948 0h-156q-9 48 -18 182q-104 -209 -354 -209q-170 0 -261 90t-91 216q0 153 130 251.5t442 98.5q42 0 134 -4q0 120 -18.5 173.5t-78.5 85.5t-158 32q-239 0 -278 -182l-145 25q53 279 446 279q209 0 296.5 -92.5t87.5 -320.5v-429q0 -107 22 -196zM774 505
q-96 6 -146 6q-186 0 -289 -61t-103 -178q0 -74 55.5 -126t160.5 -52q142 0 233.5 103t91.5 242q0 28 -3 66zM709 1326q0 -71 -50.5 -121.5t-121.5 -50.5t-123 51t-52 122q0 70 51.5 122t127.5 52q67 0 117.5 -51.5t50.5 -123.5zM626 1326q0 38 -26 65t-59 27
q-43 0 -69.5 -27t-26.5 -63q0 -38 27 -65t65 -27q37 0 63 26.5t26 63.5z" />
    <glyph glyph-name="ccedilla" unicode="&#xe7;" horiz-adv-x="954" 
d="M506 -27l-19 -66q103 0 150.5 -38t47.5 -95t-45 -101.5t-145 -44.5q-104 0 -179 45l24 64q73 -35 144 -35q44 0 72 19.5t28 50.5q0 71 -116 71q-25 0 -74 -5l46 139q-177 25 -269.5 175.5t-92.5 350.5q0 230 115.5 382.5t314.5 152.5q165 0 264.5 -98.5t123.5 -254.5
l-142 -27q-40 250 -242 250q-130 0 -200 -110.5t-70 -286.5q0 -194 69.5 -301.5t195.5 -107.5q195 0 247 252l142 -25q-29 -164 -131 -260t-259 -96z" />
    <glyph glyph-name="eacute" unicode="&#xe9;" horiz-adv-x="1066" 
d="M824 301l146 -30q-40 -129 -156 -213.5t-273 -84.5q-207 0 -335 145.5t-128 381.5q0 241 133 389.5t334 148.5q198 0 318.5 -137t123.5 -410h-734q0 -229 96 -309t203 -80q193 0 272 199zM815 608q-2 85 -28 151t-88 112.5t-149 46.5q-117 0 -198.5 -84t-91.5 -226h555z
M850 1356l-414 -189l-43 81l396 228z" />
    <glyph glyph-name="egrave" unicode="&#xe8;" horiz-adv-x="1066" 
d="M824 301l146 -30q-40 -129 -156 -213.5t-273 -84.5q-207 0 -335 145.5t-128 381.5q0 241 133 389.5t334 148.5q198 0 318.5 -137t123.5 -410h-734q0 -229 96 -309t203 -80q193 0 272 199zM815 608q-2 85 -28 151t-88 112.5t-149 46.5q-117 0 -198.5 -84t-91.5 -226h555z
M270 1356l62 120l395 -228l-42 -81z" />
    <glyph glyph-name="ecircumflex" unicode="&#xea;" horiz-adv-x="1066" 
d="M824 301l146 -30q-40 -129 -156 -213.5t-273 -84.5q-207 0 -335 145.5t-128 381.5q0 241 133 389.5t334 148.5q198 0 318.5 -137t123.5 -410h-734q0 -229 96 -309t203 -80q193 0 272 199zM815 608q-2 85 -28 151t-88 112.5t-149 46.5q-117 0 -198.5 -84t-91.5 -226h555z
M878 1194l-141 -20l-191 134l-184 -134l-147 20l334 260z" />
    <glyph glyph-name="edieresis" unicode="&#xeb;" horiz-adv-x="1066" 
d="M824 301l146 -30q-40 -129 -156 -213.5t-273 -84.5q-207 0 -335 145.5t-128 381.5q0 241 133 389.5t334 148.5q198 0 318.5 -137t123.5 -410h-734q0 -229 96 -309t203 -80q193 0 272 199zM815 608q-2 85 -28 151t-88 112.5t-149 46.5q-117 0 -198.5 -84t-91.5 -226h555z
M821 1304q0 -43 -31.5 -73t-74.5 -30t-74.5 30t-31.5 72q0 43 31.5 72.5t73.5 29.5q44 0 75.5 -29.5t31.5 -71.5zM499 1303q0 -42 -31.5 -72t-73.5 -30t-72.5 30t-30.5 71q0 43 30.5 72.5t69.5 29.5q48 0 78 -30t30 -71z" />
    <glyph glyph-name="iacute" unicode="&#xed;" horiz-adv-x="470" 
d="M313 1010v-1010h-157v1010h157zM586 1356l-414 -189l-43 81l396 228z" />
    <glyph glyph-name="igrave" unicode="&#xec;" horiz-adv-x="470" 
d="M313 1010v-1010h-157v1010h157zM-112 1356l62 120l395 -228l-42 -81z" />
    <glyph glyph-name="icircumflex" unicode="&#xee;" horiz-adv-x="470" 
d="M313 1010v-1010h-157v1010h157zM566 1194l-141 -20l-191 134l-184 -134l-147 20l334 260z" />
    <glyph glyph-name="idieresis" unicode="&#xef;" horiz-adv-x="470" 
d="M314 1010v-1010h-157v1010h157zM522 1304q0 -43 -31.5 -73t-74.5 -30t-74.5 30t-31.5 72q0 43 31.5 72.5t73.5 29.5q44 0 75.5 -29.5t31.5 -71.5zM200 1303q0 -42 -31.5 -72t-73.5 -30t-72.5 30t-30.5 71q0 43 30.5 72.5t69.5 29.5q48 0 78 -30t30 -71z" />
    <glyph glyph-name="ntilde" unicode="&#xf1;" horiz-adv-x="1110" 
d="M953 0h-147v649q0 140 -61 197t-148 57q-120 0 -201.5 -96t-81.5 -253v-554h-157v1010h146v-186q123 214 319 214q113 0 192.5 -58.5t109 -131.5t29.5 -264v-584zM827 1380l77 -72q-106 -101 -202 -101q-49 0 -129 35q-87 38 -134 38q-81 0 -135 -66l-84 58
q88 128 224 128q46 0 128 -34q89 -37 128 -37q65 0 127 51z" />
    <glyph glyph-name="oacute" unicode="&#xf3;" horiz-adv-x="1064" 
d="M519 -27q-208 0 -324.5 154t-116.5 382q0 241 131 385t326 144q209 0 329.5 -151.5t120.5 -378.5q0 -236 -130 -385.5t-336 -149.5zM531 102q120 0 201 99t81 308q0 210 -85 304.5t-199 94.5q-117 0 -198 -95.5t-81 -302.5q0 -219 81 -313.5t200 -94.5zM828 1356
l-414 -189l-43 81l396 228z" />
    <glyph glyph-name="ograve" unicode="&#xf2;" horiz-adv-x="1064" 
d="M519 -27q-208 0 -324.5 154t-116.5 382q0 241 131 385t326 144q209 0 329.5 -151.5t120.5 -378.5q0 -236 -130 -385.5t-336 -149.5zM531 102q120 0 201 99t81 308q0 210 -85 304.5t-199 94.5q-117 0 -198 -95.5t-81 -302.5q0 -219 81 -313.5t200 -94.5zM248 1356l62 120
l395 -228l-42 -81z" />
    <glyph glyph-name="ocircumflex" unicode="&#xf4;" horiz-adv-x="1064" 
d="M519 -27q-208 0 -324.5 154t-116.5 382q0 241 131 385t326 144q209 0 329.5 -151.5t120.5 -378.5q0 -236 -130 -385.5t-336 -149.5zM531 102q120 0 201 99t81 308q0 210 -85 304.5t-199 94.5q-117 0 -198 -95.5t-81 -302.5q0 -219 81 -313.5t200 -94.5zM863 1194
l-141 -20l-191 134l-184 -134l-147 20l334 260z" />
    <glyph glyph-name="odieresis" unicode="&#xf6;" horiz-adv-x="1064" 
d="M519 -27q-208 0 -324.5 154t-116.5 382q0 241 131 385t326 144q209 0 329.5 -151.5t120.5 -378.5q0 -236 -130 -385.5t-336 -149.5zM531 102q120 0 201 99t81 308q0 210 -85 304.5t-199 94.5q-117 0 -198 -95.5t-81 -302.5q0 -219 81 -313.5t200 -94.5zM796 1304
q0 -43 -31.5 -73t-74.5 -30t-74.5 30t-31.5 72q0 43 31.5 72.5t73.5 29.5q44 0 75.5 -29.5t31.5 -71.5zM474 1303q0 -42 -31.5 -72t-73.5 -30t-72.5 30t-30.5 71q0 43 30.5 72.5t69.5 29.5q48 0 78 -30t30 -71z" />
    <glyph glyph-name="otilde" unicode="&#xf5;" horiz-adv-x="1064" 
d="M519 -27q-208 0 -324.5 154t-116.5 382q0 241 131 385t326 144q209 0 329.5 -151.5t120.5 -378.5q0 -236 -130 -385.5t-336 -149.5zM531 102q120 0 201 99t81 308q0 210 -85 304.5t-199 94.5q-117 0 -198 -95.5t-81 -302.5q0 -219 81 -313.5t200 -94.5zM810 1380l77 -72
q-106 -101 -202 -101q-49 0 -129 35q-87 38 -134 38q-81 0 -135 -66l-84 58q88 128 224 128q46 0 128 -34q89 -37 128 -37q65 0 127 51z" />
    <glyph glyph-name="uacute" unicode="&#xfa;" horiz-adv-x="1109" 
d="M952 0h-141v193q-108 -220 -322 -220q-155 0 -243.5 102t-88.5 290v645h157v-645q0 -150 62.5 -206.5t137.5 -56.5q76 0 137.5 43t102.5 122.5t41 173.5v569h157v-1010zM871 1356l-414 -189l-43 81l396 228z" />
    <glyph glyph-name="ugrave" unicode="&#xf9;" horiz-adv-x="1109" 
d="M952 0h-141v193q-108 -220 -322 -220q-155 0 -243.5 102t-88.5 290v645h157v-645q0 -150 62.5 -206.5t137.5 -56.5q76 0 137.5 43t102.5 122.5t41 173.5v569h157v-1010zM244 1356l62 120l395 -228l-42 -81z" />
    <glyph glyph-name="ucircumflex" unicode="&#xfb;" horiz-adv-x="1109" 
d="M952 0h-141v193q-108 -220 -322 -220q-155 0 -243.5 102t-88.5 290v645h157v-645q0 -150 62.5 -206.5t137.5 -56.5q76 0 137.5 43t102.5 122.5t41 173.5v569h157v-1010zM886 1194l-141 -20l-191 134l-184 -134l-147 20l334 260z" />
    <glyph glyph-name="udieresis" unicode="&#xfc;" horiz-adv-x="1109" 
d="M952 0h-141v193q-108 -220 -322 -220q-155 0 -243.5 102t-88.5 290v645h157v-645q0 -150 62.5 -206.5t137.5 -56.5q76 0 137.5 43t102.5 122.5t41 173.5v569h157v-1010zM819 1304q0 -43 -31.5 -73t-74.5 -30t-74.5 30t-31.5 72q0 43 31.5 72.5t73.5 29.5q44 0 75.5 -29.5
t31.5 -71.5zM497 1303q0 -42 -31.5 -72t-73.5 -30t-72.5 30t-30.5 71q0 43 30.5 72.5t69.5 29.5q48 0 78 -30t30 -71z" />
    <glyph glyph-name="dagger" unicode="&#x2020;" horiz-adv-x="1201" 
d="M527 1365h146v-398h380v-136h-380v-1172h-146v1172h-380v136h380v398z" />
    <glyph glyph-name="degree" unicode="&#xb0;" horiz-adv-x="1201" 
d="M330 1122q0 111 79.5 191t191.5 80t191.5 -79.5t79.5 -191.5q0 -111 -80 -190.5t-195 -79.5q-108 0 -187.5 79.5t-79.5 190.5zM446 1123q0 -65 45.5 -110t104.5 -45q68 0 114 45.5t46 109.5t-45.5 109.5t-110.5 45.5q-63 0 -108.5 -45.5t-45.5 -109.5z" />
    <glyph glyph-name="cent" unicode="&#xa2;" horiz-adv-x="1201" 
d="M667 -57h-112v283q-138 20 -218.5 101t-110 179.5t-29.5 196.5q0 170 87 306.5t271 162.5v251h112v-251q100 -7 196.5 -83t126.5 -227l-136 -26q-19 91 -72 152.5t-115 66.5v-706q150 35 187 215l136 -22q-62 -278 -323 -316v-283zM555 1051q-200 -44 -200 -359
q0 -286 200 -343v702z" />
    <glyph glyph-name="sterling" unicode="&#xa3;" horiz-adv-x="1201" 
d="M1049 306l130 -85q-49 -106 -148.5 -163.5t-205.5 -57.5h-830v150q155 3 219.5 22.5t121 92.5t56.5 178q0 73 -19 206h-218v117h207q-19 107 -19 190q0 199 107 318t265 119q198 0 328 -187l-111 -86q-103 136 -209 136q-82 0 -142 -65.5t-60 -174.5q0 -78 21 -250h293
v-117h-279q6 -85 6 -141q0 -239 -159 -358h318q149 0 216.5 39t111.5 117z" />
    <glyph glyph-name="section" unicode="&#xa7;" horiz-adv-x="1201" 
d="M134 -72l176 26q91 -192 305 -192q116 0 202 60t86 157q0 138 -209 194l-207 55q-175 47 -243 118t-68 177q0 173 193 295q-164 90 -164 266q0 138 105 223.5t280 85.5q158 0 268.5 -71.5t146.5 -193.5l-153 -18q-67 168 -267 168q-106 0 -166.5 -50.5t-60.5 -124.5
q0 -81 65 -131t179 -83l186 -52q122 -34 185.5 -109.5t63.5 -167.5q0 -146 -163 -277q193 -92 193 -280q0 -154 -129 -262t-332 -108q-353 0 -472 295zM490 769q-156 -80 -156 -199q0 -131 217 -192l197 -56q74 36 108 92t34 100q0 52 -45.5 105.5t-132.5 79.5z" />
    <glyph glyph-name="bullet" unicode="&#x2022;" horiz-adv-x="1365" 
d="M964 696q0 -117 -82.5 -201.5t-198.5 -84.5q-119 0 -200.5 84.5t-81.5 201.5q0 118 82.5 202t199.5 84q116 0 198.5 -84t82.5 -202z" />
    <glyph glyph-name="paragraph" unicode="&#xb6;" horiz-adv-x="1201" 
d="M1086 1365v-95h-137v-1611h-100v1611h-98v-1611h-99v1066h-151q-181 0 -259.5 30t-123 100t-44.5 169q0 109 45.5 190t120 116t265.5 35h581zM652 821v449h-112q-114 0 -172.5 -16t-93.5 -67.5t-35 -143.5q0 -100 54 -161t217 -61h142z" />
    <glyph glyph-name="germandbls" unicode="&#xdf;" horiz-adv-x="1162" 
d="M158 -87v878h-107v126h107q13 273 136 394t305 121q150 0 263 -82t113 -218q0 -130 -115 -205.5t-273 -75.5l-24 1q-30 0 -30 -17q0 -16 25 -31.5t119 -50.5q271 -99 351 -192t80 -217q0 -160 -119 -273t-309 -113q-97 0 -226 33l44 114q102 -21 166 -21q130 0 201 78
t71 150q0 142 -147 208l-249 110q-157 69 -157 167q0 30 16.5 72t31 52.5t61.5 15.5q312 34 312 207q0 70 -58 114.5t-149 44.5q-136 0 -209.5 -93t-73.5 -239v-1058h-156z" />
    <glyph glyph-name="registered" unicode="&#xae;" horiz-adv-x="1584" 
d="M1498 687q0 -291 -207.5 -498.5t-498.5 -207.5t-498.5 207.5t-207.5 498.5q0 290 207.5 498t498.5 208t498.5 -208t207.5 -498zM1397 687q0 250 -177.5 427.5t-427.5 177.5q-249 0 -427 -178t-178 -427q0 -250 177 -427.5t428 -177.5q249 0 427 178t178 427zM1124 277
h-134l-157 349h-225v-349h-121v819h346q140 0 209.5 -72t69.5 -160q0 -65 -38 -125t-119 -85zM608 722h212q83 0 123.5 41.5t40.5 102.5q0 63 -43 95.5t-108 32.5h-225v-272z" />
    <glyph glyph-name="copyright" unicode="&#xa9;" horiz-adv-x="1584" 
d="M1498 687q0 -291 -207.5 -498.5t-498.5 -207.5t-498.5 207.5t-207.5 498.5q0 290 207.5 498t498.5 208t498.5 -208t207.5 -498zM1397 687q0 250 -177.5 427.5t-427.5 177.5q-249 0 -427 -178t-178 -427q0 -250 177 -427.5t428 -177.5q249 0 427 178t178 427zM989 564
l117 -25q-71 -278 -327 -278q-172 0 -264 128t-92 306q0 190 99.5 303.5t264.5 113.5q255 0 319 -270l-121 -22q-52 194 -202 194q-103 0 -163 -87.5t-60 -246.5q0 -144 60.5 -232t161.5 -88q162 0 207 204z" />
    <glyph glyph-name="trademark" unicode="&#x2122;" horiz-adv-x="1592" 
d="M360 587h-125v680h-234v98h594v-98h-235v-680zM1500 587h-121v619l-247 -619h-87l-249 619v-619h-109v778h172l238 -590l234 590h169v-778z" />
    <glyph glyph-name="acute" unicode="&#xb4;" horiz-adv-x="1024" 
d="M836 1356l-414 -189l-43 81l396 228z" />
    <glyph glyph-name="dieresis" unicode="&#xa8;" horiz-adv-x="1024" 
d="M777 1304q0 -43 -31.5 -73t-74.5 -30t-74.5 30t-31.5 72q0 43 31.5 72.5t73.5 29.5q44 0 75.5 -29.5t31.5 -71.5zM455 1303q0 -42 -31.5 -72t-73.5 -30t-72.5 30t-30.5 71q0 43 30.5 72.5t69.5 29.5q48 0 78 -30t30 -71z" />
    <glyph glyph-name="notequal" unicode="&#x2260;" horiz-adv-x="1124" 
d="M1106 279h-621l-184 -330l-100 57l151 273h-321v112h385l157 285h-542v112h606l186 336l101 -57l-156 -279h338v-112h-399l-160 -285h559v-112z" />
    <glyph glyph-name="AE" unicode="&#xc6;" horiz-adv-x="1856" 
d="M1788 150v-150h-939v422h-459l-252 -422h-165l813 1365h976v-150h-742v-434h600v-139h-600v-492h768zM849 554v662l-385 -662h385z" />
    <glyph glyph-name="Oslash" unicode="&#xd8;" horiz-adv-x="1292" 
d="M63 -49l157 241q-135 200 -135 493q0 297 151.5 502.5t412.5 205.5q182 0 326 -114l97 140h146l-158 -233q146 -197 146 -494q0 -284 -146.5 -501.5t-421.5 -217.5q-195 0 -336 125l-95 -147h-144zM876 1162q-91 91 -234 91q-171 0 -274.5 -156t-103.5 -412
q0 -213 68 -350zM404 224q92 -112 241 -112q192 0 287 171t95 409q0 223 -73 363z" />
    <glyph glyph-name="infinity" unicode="&#x221e;" horiz-adv-x="1460" 
d="M653 668q71 169 159 222.5t212 53.5q161 0 272 -116.5t111 -301.5q0 -186 -111.5 -303t-238.5 -117q-95 0 -170.5 63t-165.5 224q-117 -233 -324 -233q-149 0 -246.5 104.5t-97.5 263.5q0 157 89 262t218 105q80 0 149 -42t144 -185zM750 465q64 -138 134.5 -201
t176.5 -63q126 0 207.5 91t81.5 234q0 140 -84 240t-199 100q-55 0 -97.5 -21.5t-74.5 -62t-64 -116.5zM614 557l11 33q-96 215 -267 215q-110 0 -179.5 -76.5t-69.5 -198.5q0 -123 66.5 -207.5t162.5 -84.5q82 0 149.5 65t126.5 254z" />
    <glyph glyph-name="plusminus" unicode="&#xb1;" horiz-adv-x="1201" 
d="M123 753h403v421h150v-421h403v-138h-403v-421h-150v421h-403v138zM123 98h956v-138h-956v138z" />
    <glyph glyph-name="lessequal" unicode="&#x2264;" horiz-adv-x="1124" 
d="M1077 240l-1018 471v127l1018 471v-127l-887 -408l887 -407v-127zM1077 0h-1018v112h1018v-112z" />
    <glyph glyph-name="greaterequal" unicode="&#x2265;" horiz-adv-x="1124" 
d="M1077 711l-1018 -471v127l887 407l-887 408v127l1018 -471v-127zM1077 0h-1018v112h1018v-112z" />
    <glyph glyph-name="yen" unicode="&#xa5;" horiz-adv-x="1202" 
d="M843 847h253v-118h-321l-91 -157h412v-117h-412v-455h-166v455h-412v117h412l-90 157h-322v118h254l-301 518h201l362 -627l365 627h157z" />
    <glyph glyph-name="uni00B5" unicode="&#xb5;" horiz-adv-x="1095" 
d="M150 -341v1351h157v-566q0 -111 21 -174t77.5 -110.5t136.5 -47.5q246 0 246 344v554h157v-1010h-143v158q-89 -185 -255 -185q-159 0 -240 158v-472h-157z" />
    <glyph glyph-name="partialdiff" unicode="&#x2202;" horiz-adv-x="1012" 
d="M295 1120h-45q131 303 379 303q161 0 263.5 -127t102.5 -376q0 -358 -164.5 -654.5t-427.5 -296.5q-155 0 -246 91t-91 245q0 239 166.5 420.5t383.5 181.5q222 0 312 -190h4q10 144 10 186q0 175 -92.5 276t-253.5 101q-194 0 -301 -160zM911 629q-81 225 -284 225
q-178 0 -286 -190.5t-108 -399.5q0 -108 54 -172.5t143 -64.5q136 0 279.5 162.5t201.5 439.5z" />
    <glyph glyph-name="summation" unicode="&#x2211;" horiz-adv-x="1460" 
d="M1423 238q-32 -125 -54 -240t-34 -219q-63 11 -102.5 16.5t-54.5 5.5h-1031q-20 0 -59 -3t-59 -3l714 815l-710 930q70 -7 123 -10.5t90 -3.5h1018l12 -326h-41q-31 102 -52.5 141t-81.5 66q-30 13 -74.5 20t-104.5 7h-539l559 -734l-602 -694h760q127 0 177.5 52
t98.5 180h47z" />
    <glyph glyph-name="product" unicode="&#x220f;" horiz-adv-x="1686" 
d="M1645 -207h-629v47q120 0 159.5 41t39.5 125v1419h-734v-1419q0 -84 39.5 -125t159.5 -41v-47h-629v47q122 0 160.5 41t38.5 125v1282q0 101 -48.5 152t-146.5 51v47h1586v-47q-98 0 -146.5 -51t-48.5 -152v-1282q0 -84 38.5 -125t160.5 -41v-47z" />
    <glyph glyph-name="uniF006" unicode="&#xf006;" horiz-adv-x="1124" 
d="M1085 309q-5 -155 -75.5 -248.5t-167.5 -93.5q-79 0 -138.5 91.5t-59.5 281.5q0 42 2 80t5 72l35 329h-231q-60 -624 -98.5 -742.5t-130.5 -118.5q-39 0 -74 31t-35 82q0 46 72.5 128.5t80.5 150.5l60 469h-97q-40 0 -78.5 -19.5t-56.5 -45.5l-43 -64h-35
q49 152 120.5 228.5t164.5 76.5h764v-176h-258q-12 -120 -18.5 -240t-6.5 -241q0 -82 38 -133t95 -51q35 0 73.5 28.5t43.5 74.5q3 22 4.5 34.5t1.5 15.5h43z" />
    <glyph glyph-name="integral" unicode="&#x222b;" horiz-adv-x="561" 
d="M602 1760q0 -39 -29.5 -64t-75.5 -25q-37 0 -60 25t-44 25q-18 0 -27.5 -14.5t-9.5 -43.5q0 -34 19.5 -256t19.5 -551q0 -505 -30 -709.5t-79 -282.5q-26 -41 -67.5 -62t-85.5 -21q-49 0 -86 35t-37 85q0 38 25.5 65t64.5 27q34 0 65.5 -33t44.5 -33q25 0 39.5 44.5
t14.5 153.5q0 37 -6 197t-6 562q0 481 17 638.5t41 215.5q29 70 69 104t84 34q57 0 98 -32.5t41 -83.5z" />
    <glyph glyph-name="ordfeminine" unicode="&#xaa;" horiz-adv-x="715" 
d="M624 767h-120q-8 38 -11 82q-66 -98 -211 -98q-112 0 -171 55.5t-59 131.5q0 93 85 153.5t285 60.5q21 0 71 -2q0 84 -29 120.5t-120 36.5q-143 0 -164 -109l-112 18q29 177 289 177q137 0 194 -57t57 -193v-254q0 -67 16 -122zM493 1065q-54 3 -81 3q-234 0 -234 -132
q0 -100 125 -100q83 0 137.5 59t54.5 138q0 13 -2 32z" />
    <glyph glyph-name="ordmasculine" unicode="&#xba;" horiz-adv-x="704" 
d="M343 751q-125 0 -205 87.5t-80 235.5q0 145 85 232t211 87q128 0 209.5 -87t81.5 -233q0 -142 -84 -232t-218 -90zM351 841q71 0 118 57t47 176t-49 174t-117 55q-69 0 -116 -55.5t-47 -173.5t45 -175.5t119 -57.5z" />
    <glyph glyph-name="uni2126" unicode="&#x2126;" horiz-adv-x="1573" 
d="M1506 0h-604l33 311q161 59 226 200t65 313q0 227 -107 373t-331 146t-331 -146t-107 -373q0 -172 65 -313t226 -200l33 -311h-604v332h30q16 -66 40 -95.5t96 -29.5h323l-4 57q-238 65 -341 221t-103 332q0 259 192 425.5t485 166.5t485 -166.5t192 -425.5
q0 -176 -103 -332t-341 -221l-4 -57h323q72 0 96 29.5t40 95.5h30v-332z" />
    <glyph glyph-name="ae" unicode="&#xe6;" horiz-adv-x="1722" 
d="M1484 297l142 -27q-40 -132 -155.5 -214.5t-267.5 -82.5q-277 0 -409 256q-106 -256 -365 -256q-183 0 -274 85.5t-91 214.5q0 159 132.5 256t425.5 97q63 0 139 -7q2 44 2 70q0 226 -256 226q-114 0 -178.5 -51.5t-77.5 -120.5l-149 26q31 136 150 202.5t274 66.5
q244 0 351 -147q127 147 329 147q182 0 306 -131t131 -416h-731q0 -217 91.5 -303t209.5 -86q189 0 271 195zM1472 608q-4 134 -74.5 220.5t-193.5 86.5q-121 0 -200 -87t-86 -220h554zM756 503q-56 9 -128 9q-196 0 -294.5 -64t-98.5 -165q0 -76 54 -128.5t142 -52.5
q127 0 226.5 92.5t99.5 253.5q0 18 -1 55z" />
    <glyph glyph-name="oslash" unicode="&#xf8;" horiz-adv-x="1064" 
d="M184 142q-106 148 -106 368q0 239 131 383.5t325 144.5q149 0 259 -82l90 120h140l-150 -200q112 -149 112 -368q0 -236 -129.5 -385.5t-336.5 -149.5q-158 0 -260 87l-87 -115h-136zM286 279l419 559q-78 70 -176 70q-116 0 -197.5 -95t-81.5 -305q0 -135 36 -229z
M773 743l-425 -565q79 -76 184 -76q119 0 200 99t81 308q0 146 -40 234z" />
    <glyph glyph-name="questiondown" unicode="&#xbf;" horiz-adv-x="1035" 
d="M465 814v196h202v-196h-202zM499 684h143q0 -156 -3.5 -194t-22 -77.5t-40.5 -60.5t-106 -68q-91 -51 -125.5 -79.5t-59.5 -78.5t-25 -111q0 -114 82.5 -179t193.5 -65q254 0 310 296l149 -33q-75 -403 -468 -403q-204 0 -324.5 110.5t-120.5 279.5q0 223 255 356
q112 59 137.5 92.5t25.5 103.5z" />
    <glyph glyph-name="exclamdown" unicode="&#xa1;" horiz-adv-x="550" 
d="M171 1010h208v-211h-208v211zM236 684h83l74 -1025h-236z" />
    <glyph glyph-name="logicalnot" unicode="&#xac;" horiz-adv-x="1201" 
d="M1044 0h-152v408h-735v138h887v-546z" />
    <glyph glyph-name="radical" unicode="&#x221a;" horiz-adv-x="1124" 
d="M1055 1868l-307 -1946l-498 1028l-197 -96l-33 68l299 147l404 -825l260 1634z" />
    <glyph glyph-name="florin" unicode="&#x192;" horiz-adv-x="1201" 
d="M1005 1169l-24 -138h-246l-171 -970q-24 -134 -69.5 -203.5t-126 -113t-178.5 -43.5q-33 0 -90 4l22 123q51 -2 55 -2q78 0 128 32.5t68.5 81.5t41.5 180l162 911h-187l25 138h187q32 210 147 290t245 80q32 0 75 -7l-22 -122q-118 0 -165 -18t-73.5 -61t-49.5 -162h246z
" />
    <glyph glyph-name="approxequal" unicode="&#x2248;" horiz-adv-x="1124" 
d="M1022 874h51q-21 -155 -95.5 -238t-186.5 -83q-97 0 -304 117q-139 78 -211 78q-149 0 -178 -187h-47q20 154 93.5 238t181.5 84q47 0 107 -19.5t224 -107.5q118 -62 193 -62q144 0 172 180zM1022 487h51q-21 -155 -95.5 -238t-186.5 -83q-96 0 -268.5 97t-246.5 97
q-149 0 -178 -186h-47q20 153 93.5 236.5t181.5 83.5q47 0 112 -21.5t219 -103.5q118 -62 193 -62q144 0 172 180z" />
    <glyph glyph-name="uni2206" unicode="&#x2206;" horiz-adv-x="1253" 
d="M668 1409l577 -1409h-1233zM594 1059l-447 -959h844z" />
    <glyph glyph-name="guillemotleft" unicode="&#xab;" horiz-adv-x="704" 
d="M254 240l-172 293l172 282h90l-106 -282l106 -293h-90zM517 240l-173 293l173 282h92l-107 -282l107 -293h-92z" />
    <glyph glyph-name="guillemotright" unicode="&#xbb;" horiz-adv-x="704" 
d="M450 815l172 -292l-172 -283h-89l105 283l-105 292h89zM187 815l174 -292l-174 -283h-91l107 283l-107 292h91z" />
    <glyph glyph-name="ellipsis" unicode="&#x2026;" horiz-adv-x="1526" 
d="M366 224v-224h-223v224h223zM873 224v-224h-221v224h221zM1383 224v-224h-223v224h223z" />
    <glyph glyph-name="uni00A0" unicode="&#xa0;" horiz-adv-x="512" 
 />
    <glyph glyph-name="Agrave" unicode="&#xc0;" horiz-adv-x="1097" 
d="M1090 0h-175l-138 399h-505l-122 -399h-143l443 1365h195zM741 527l-210 656l-212 -656h422zM221 1677l62 120l395 -228l-42 -81z" />
    <glyph glyph-name="Atilde" unicode="&#xc3;" horiz-adv-x="1097" 
d="M1090 0h-175l-138 399h-505l-122 -399h-143l443 1365h195zM741 527l-210 656l-212 -656h422zM814 1701l77 -72q-106 -101 -202 -101q-49 0 -129 35q-87 38 -134 38q-81 0 -135 -66l-84 58q88 128 224 128q46 0 128 -34q89 -37 128 -37q65 0 127 51z" />
    <glyph glyph-name="Otilde" unicode="&#xd5;" horiz-adv-x="1292" 
d="M642 -27q-263 0 -410 204.5t-147 501.5q0 310 154 512t408 202q253 0 406 -198.5t153 -500.5q0 -290 -148.5 -505.5t-415.5 -215.5zM646 112q179 0 280 163t101 420q0 264 -104.5 411t-277.5 147q-175 0 -278 -159t-103 -416q0 -251 104 -408.5t278 -157.5zM924 1701
l77 -72q-106 -101 -202 -101q-49 0 -129 35q-87 38 -134 38q-81 0 -135 -66l-84 58q88 128 224 128q46 0 128 -34q89 -37 128 -37q65 0 127 51z" />
    <glyph glyph-name="OE" unicode="&#x152;" horiz-adv-x="1972" 
d="M1904 150v-150h-866v143q-133 -170 -363 -170q-264 0 -427 201.5t-163 503.5t162 508.5t435 206.5q220 0 356 -167v139h866v-150h-685v-434h551v-139h-551v-492h685zM1038 995q-25 119 -125.5 188.5t-229.5 69.5q-197 0 -308 -159.5t-111 -411.5q0 -247 109.5 -408.5
t304.5 -161.5q119 0 220.5 65.5t139.5 219.5v598z" />
    <glyph glyph-name="oe" unicode="&#x153;" horiz-adv-x="1747" 
d="M1512 304l141 -28q-50 -153 -165 -228t-244 -75q-216 0 -352 175q-147 -175 -358 -175q-198 0 -327 144.5t-129 385.5q0 244 135 389.5t330 145.5q205 0 349 -173q145 173 347 173q190 0 308 -139.5t122 -407.5h-710q0 -120 24.5 -198t99.5 -136t169 -58q180 0 260 205z
M537 98q126 0 206 99t80 310q0 200 -76.5 298.5t-206.5 98.5q-286 0 -286 -424q0 -193 80.5 -287.5t202.5 -94.5zM1501 608q-1 122 -71.5 209t-191.5 87q-104 0 -183 -74.5t-91 -221.5h537z" />
    <glyph glyph-name="endash" unicode="&#x2013;" horiz-adv-x="1201" 
d="M999 573v-122h-797v122h797z" />
    <glyph glyph-name="emdash" unicode="&#x2014;" horiz-adv-x="1365" 
d="M1362 573v-122h-1359v122h1359z" />
    <glyph glyph-name="quotedblleft" unicode="&#x201c;" horiz-adv-x="821" 
d="M154 928v171l156 266h71l-112 -240h82v-197h-197zM453 928v171l161 266h74l-117 -240h83v-197h-201z" />
    <glyph glyph-name="quotedblright" unicode="&#x201d;" horiz-adv-x="821" 
d="M677 1365v-170l-156 -267h-71l112 241h-81v196h196zM378 1365v-170l-161 -267h-74l117 241h-82v196h200z" />
    <glyph glyph-name="quoteleft" unicode="&#x2018;" horiz-adv-x="512" 
d="M154 923v203l134 239h71l-99 -239h99v-203h-205z" />
    <glyph glyph-name="quoteright" unicode="&#x2019;" horiz-adv-x="512" 
d="M359 1365v-203l-135 -239h-70l99 239h-99v203h205z" />
    <glyph glyph-name="divide" unicode="&#xf7;" horiz-adv-x="1201" 
d="M696 992q0 -40 -28.5 -68t-67.5 -28t-67.5 28t-28.5 68t28.5 68t67.5 28q40 0 68 -28t28 -68zM123 753h956v-138h-956v138zM696 388q0 -40 -28.5 -68t-67.5 -28q-40 0 -68 28t-28 68t28 68.5t68 28.5t68 -28.5t28 -68.5z" />
    <glyph glyph-name="lozenge" unicode="&#x25ca;" horiz-adv-x="1012" 
d="M962 763l-397 -763h-122l-397 763l397 763h122zM839 763l-335 652l-335 -652l335 -652z" />
    <glyph glyph-name="ydieresis" unicode="&#xff;" horiz-adv-x="850" 
d="M850 1011l-405 -1128q-88 -244 -281 -244q-61 0 -135 21v123q61 -14 105 -14q75 0 125.5 43t100.5 208l-349 991h160l270 -759l277 759h132zM703 1304q0 -43 -31.5 -73t-74.5 -30t-74.5 30t-31.5 72q0 43 31.5 72.5t73.5 29.5q44 0 75.5 -29.5t31.5 -71.5zM381 1303
q0 -42 -31.5 -72t-73.5 -30t-72.5 30t-30.5 71q0 43 30.5 72.5t69.5 29.5q48 0 78 -30t30 -71z" />
    <glyph glyph-name="Ydieresis" unicode="&#x178;" horiz-adv-x="1045" 
d="M1065 1365l-457 -791v-574h-171v574l-457 791h201l363 -628l365 628h156zM801 1625q0 -43 -31.5 -73t-74.5 -30t-74.5 30t-31.5 72q0 43 31.5 72.5t73.5 29.5q44 0 75.5 -29.5t31.5 -71.5zM479 1624q0 -42 -31.5 -72t-73.5 -30t-72.5 30t-30.5 71q0 43 30.5 72.5
t69.5 29.5q48 0 78 -30t30 -71z" />
    <glyph glyph-name="fraction" unicode="&#x2215;" horiz-adv-x="218" 
d="M-247 0h-112l827 1365h110z" />
    <glyph glyph-name="Euro" unicode="&#x20ac;" horiz-adv-x="1200" 
d="M1139 373q-60 -205 -173 -302.5t-300 -97.5q-194 0 -333 139t-186 386h-143v116h129q-2 25 -2 82q0 45 2 66h-129v117h141q47 261 198.5 387.5t336.5 126.5q360 0 457 -383l-166 -23q-73 270 -293 270q-122 0 -219 -87.5t-135 -290.5h401v-117h-416q-2 -25 -2 -80
q0 -47 2 -68h416v-116h-403q38 -215 142 -302t206 -87q235 0 311 292z" />
    <glyph glyph-name="guilsinglleft" unicode="&#x2039;" horiz-adv-x="439" 
d="M254 240l-172 293l172 282h90l-106 -282l106 -293h-90z" />
    <glyph glyph-name="guilsinglright" unicode="&#x203a;" horiz-adv-x="439" 
d="M185 815l173 -292l-173 -283h-89l106 283l-106 292h89z" />
    <glyph glyph-name="fi" unicode="&#xfb01;" horiz-adv-x="988" 
d="M576 1010v-123h-234v-887h-158v887h-177v123h177q3 142 26.5 213.5t94.5 120.5t173 49q38 0 98 -11v-124q-47 11 -83 11q-60 0 -96.5 -31t-45.5 -76t-9 -152h234zM837 1365v-174h-169v174h169zM830 1010v-1010h-157v1010h157z" />
    <glyph glyph-name="fl" unicode="&#xfb02;" horiz-adv-x="987" 
d="M576 1010v-123h-234v-887h-158v887h-177v123h177q3 142 26.5 213.5t94.5 120.5t173 49q38 0 98 -11v-124q-47 11 -83 11q-60 0 -96.5 -31t-45.5 -76t-9 -152h234zM830 0h-157v1365h157v-1365z" />
    <glyph glyph-name="daggerdbl" unicode="&#x2021;" horiz-adv-x="1201" 
d="M527 1365h146v-398h380v-136h-380v-625h380v-136h-380v-411h-146v411h-380v136h380v625h-380v136h380v398z" />
    <glyph glyph-name="periodcentered" unicode="&#x2219;" horiz-adv-x="223" 
d="M223 795v-224h-223v224h223z" />
    <glyph glyph-name="quotesinglbase" unicode="&#x201a;" horiz-adv-x="512" 
d="M359 203v-203l-135 -239h-70l99 239h-99v203h205z" />
    <glyph glyph-name="quotedblbase" unicode="&#x201e;" horiz-adv-x="821" 
d="M677 197v-171l-156 -266h-71l112 240h-81v197h196zM378 197v-171l-161 -266h-74l117 240h-82v197h200z" />
    <glyph glyph-name="perthousand" unicode="&#x2030;" horiz-adv-x="2172" 
d="M357 669q-131 0 -206.5 104t-75.5 252q0 149 73 251.5t206 102.5q141 0 212.5 -108t71.5 -250q0 -141 -74 -246.5t-207 -105.5zM359 748q86 0 128.5 75t42.5 189q0 127 -43.5 208t-133.5 81q-171 0 -171 -272q0 -281 177 -281zM388 0h-126l827 1365h124zM1120 -14
q-133 0 -207.5 105t-74.5 252q0 148 72.5 250.5t206.5 102.5q140 0 211 -108t71 -250q0 -140 -73.5 -246t-205.5 -106zM1122 66q86 0 128.5 74t42.5 189q0 123 -43 206.5t-134 83.5q-173 0 -173 -273q0 -280 179 -280zM1817 -14q-129 0 -205.5 103t-76.5 254
q0 148 72.5 250.5t206.5 102.5q137 0 210 -106.5t73 -251.5q0 -140 -73.5 -246t-206.5 -106zM1819 66q86 0 128 74.5t42 188.5q0 123 -42.5 206.5t-133.5 83.5q-172 0 -172 -273q0 -280 178 -280z" />
    <glyph glyph-name="Acircumflex" unicode="&#xc2;" horiz-adv-x="1097" 
d="M1090 0h-175l-138 399h-505l-122 -399h-143l443 1365h195zM741 527l-210 656l-212 -656h422zM880 1515l-141 -20l-191 134l-184 -134l-147 20l334 260z" />
    <glyph glyph-name="Ecircumflex" unicode="&#xca;" horiz-adv-x="1122" 
d="M1054 150v-150h-883v1365h864v-150h-693v-434h550v-139h-550v-492h712zM937 1515l-141 -20l-191 134l-184 -134l-147 20l334 260z" />
    <glyph glyph-name="Aacute" unicode="&#xc1;" horiz-adv-x="1097" 
d="M1090 0h-175l-138 399h-505l-122 -399h-143l443 1365h195zM741 527l-210 656l-212 -656h422zM873 1677l-414 -189l-43 81l396 228z" />
    <glyph glyph-name="Edieresis" unicode="&#xcb;" horiz-adv-x="1122" 
d="M1054 150v-150h-883v1365h864v-150h-693v-434h550v-139h-550v-492h712zM871 1625q0 -43 -31.5 -73t-74.5 -30t-74.5 30t-31.5 72q0 43 31.5 72.5t73.5 29.5q44 0 75.5 -29.5t31.5 -71.5zM549 1624q0 -42 -31.5 -72t-73.5 -30t-72.5 30t-30.5 71q0 43 30.5 72.5t69.5 29.5
q48 0 78 -30t30 -71z" />
    <glyph glyph-name="Egrave" unicode="&#xc8;" horiz-adv-x="1122" 
d="M1054 150v-150h-883v1365h864v-150h-693v-434h550v-139h-550v-492h712zM323 1677l62 120l395 -228l-42 -81z" />
    <glyph glyph-name="Iacute" unicode="&#xcd;" horiz-adv-x="512" 
d="M362 0h-171v1365h171v-1365zM580 1677l-414 -189l-43 81l396 228z" />
    <glyph glyph-name="Icircumflex" unicode="&#xce;" horiz-adv-x="512" 
d="M342 0h-171v1365h171v-1365zM588 1515l-141 -20l-191 134l-184 -134l-147 20l334 260z" />
    <glyph glyph-name="Idieresis" unicode="&#xcf;" horiz-adv-x="512" 
d="M342 0h-171v1365h171v-1365zM543 1625q0 -43 -31.5 -73t-74.5 -30t-74.5 30t-31.5 72q0 43 31.5 72.5t73.5 29.5q44 0 75.5 -29.5t31.5 -71.5zM221 1624q0 -42 -31.5 -72t-73.5 -30t-72.5 30t-30.5 71q0 43 30.5 72.5t69.5 29.5q48 0 78 -30t30 -71z" />
    <glyph glyph-name="Igrave" unicode="&#xcc;" horiz-adv-x="512" 
d="M362 0h-171v1365h171v-1365zM-27 1677l62 120l395 -228l-42 -81z" />
    <glyph glyph-name="Oacute" unicode="&#xd3;" horiz-adv-x="1292" 
d="M642 -27q-263 0 -410 204.5t-147 501.5q0 310 154 512t408 202q253 0 406 -198.5t153 -500.5q0 -290 -148.5 -505.5t-415.5 -215.5zM646 112q179 0 280 163t101 420q0 264 -104.5 411t-277.5 147q-175 0 -278 -159t-103 -416q0 -251 104 -408.5t278 -157.5zM956 1677
l-414 -189l-43 81l396 228z" />
    <glyph glyph-name="Ocircumflex" unicode="&#xd4;" horiz-adv-x="1292" 
d="M642 -27q-263 0 -410 204.5t-147 501.5q0 310 154 512t408 202q253 0 406 -198.5t153 -500.5q0 -290 -148.5 -505.5t-415.5 -215.5zM646 112q179 0 280 163t101 420q0 264 -104.5 411t-277.5 147q-175 0 -278 -159t-103 -416q0 -251 104 -408.5t278 -157.5zM977 1515
l-141 -20l-191 134l-184 -134l-147 20l334 260z" />
    <glyph glyph-name="Ograve" unicode="&#xd2;" horiz-adv-x="1292" 
d="M642 -27q-263 0 -410 204.5t-147 501.5q0 310 154 512t408 202q253 0 406 -198.5t153 -500.5q0 -290 -148.5 -505.5t-415.5 -215.5zM646 112q179 0 280 163t101 420q0 264 -104.5 411t-277.5 147q-175 0 -278 -159t-103 -416q0 -251 104 -408.5t278 -157.5zM348 1677
l62 120l395 -228l-42 -81z" />
    <glyph glyph-name="Uacute" unicode="&#xda;" horiz-adv-x="1241" 
d="M949 1365h142v-891q0 -268 -131.5 -384.5t-344.5 -116.5q-237 0 -351 120t-114 381v891h171v-891q0 -159 37 -224t112 -96t157 -31q158 0 240 83t82 268v891zM951 1677l-414 -189l-43 81l396 228z" />
    <glyph glyph-name="Ucircumflex" unicode="&#xdb;" horiz-adv-x="1241" 
d="M949 1365h142v-891q0 -268 -131.5 -384.5t-344.5 -116.5q-237 0 -351 120t-114 381v891h171v-891q0 -159 37 -224t112 -96t157 -31q158 0 240 83t82 268v891zM959 1515l-141 -20l-191 134l-184 -134l-147 20l334 260z" />
    <glyph glyph-name="Ugrave" unicode="&#xd9;" horiz-adv-x="1241" 
d="M949 1365h142v-891q0 -268 -131.5 -384.5t-344.5 -116.5q-237 0 -351 120t-114 381v891h171v-891q0 -159 37 -224t112 -96t157 -31q158 0 240 83t82 268v891zM317 1677l62 120l395 -228l-42 -81z" />
    <glyph glyph-name="dotlessi" unicode="&#x131;" horiz-adv-x="470" 
d="M313 1010v-1010h-157v1010h157z" />
    <glyph glyph-name="circumflex" unicode="&#x2c6;" horiz-adv-x="1024" 
d="M843 1194l-141 -20l-191 134l-184 -134l-147 20l334 260z" />
    <glyph glyph-name="tilde" unicode="&#x2dc;" horiz-adv-x="1024" 
d="M777 1380l77 -72q-106 -101 -202 -101q-49 0 -129 35q-87 38 -134 38q-81 0 -135 -66l-84 58q88 128 224 128q46 0 128 -34q89 -37 128 -37q65 0 127 51z" />
    <glyph glyph-name="macron" unicode="&#x2c9;" horiz-adv-x="1024" 
d="M823 1345v-109h-621v109h621z" />
    <glyph glyph-name="breve" unicode="&#x2d8;" horiz-adv-x="1024" 
d="M213 1438h114q25 -136 181 -136q163 0 189 136h114q-43 -256 -286 -256q-275 0 -312 256z" />
    <glyph glyph-name="dotaccent" unicode="&#x2d9;" horiz-adv-x="1024" 
d="M618 1304q0 -43 -31.5 -73t-74.5 -30t-74.5 30t-31.5 72q0 43 31.5 72.5t72.5 29.5q45 0 76.5 -29.5t31.5 -71.5z" />
    <glyph glyph-name="ring" unicode="&#x2da;" horiz-adv-x="1024" 
d="M686 1326q0 -71 -50.5 -121.5t-121.5 -50.5t-123 51t-52 122q0 70 51.5 122t127.5 52q67 0 117.5 -51.5t50.5 -123.5zM603 1326q0 38 -26 65t-59 27q-43 0 -69.5 -27t-26.5 -63q0 -38 27 -65t65 -27q37 0 63 26.5t26 63.5z" />
    <glyph glyph-name="cedilla" unicode="&#xb8;" horiz-adv-x="1024" 
d="M438 0h66l-26 -93q102 0 150 -38t48 -95q0 -56 -44.5 -101t-148.5 -45q-102 0 -176 45l24 64q73 -35 142 -35q48 0 75 21t27 51q0 69 -121 69q-29 0 -69 -5z" />
    <glyph glyph-name="hungarumlaut" unicode="&#x2dd;" horiz-adv-x="1024" 
d="M646 1365l-322 -198l-51 78l303 231zM973 1365l-322 -198l-50 78l303 231z" />
    <glyph glyph-name="ogonek" unicode="&#x2db;" horiz-adv-x="1024" 
d="M909 0q-90 -59 -107.5 -87.5t-17.5 -56.5q0 -87 112 -87q37 0 86 13l18 -63q-65 -32 -148 -32q-93 0 -140.5 39t-47.5 102q0 109 150 172h95z" />
    <glyph glyph-name="caron" unicode="&#x2c7;" horiz-adv-x="1024" 
d="M180 1420l141 20l191 -133l184 133l147 -20l-334 -259z" />
    <glyph glyph-name="Lslash" unicode="&#x141;" horiz-adv-x="1003" 
d="M977 150v-150h-803v527l-134 -127v164l134 127v674h175v-566l258 233v-164l-258 -233v-485h628z" />
    <glyph glyph-name="lslash" unicode="&#x142;" horiz-adv-x="471" 
d="M157 596l-134 -132v151l134 132v618h157v-531l134 127v-151l-134 -127v-683h-157v596z" />
    <glyph glyph-name="Scaron" unicode="&#x160;" horiz-adv-x="1166" 
d="M21 363l154 35q93 -279 403 -279q162 0 244 68.5t82 183.5q0 87 -62.5 140t-144.5 73l-273 68q-106 27 -173.5 65.5t-114.5 118.5t-47 183q0 171 129 272.5t331 101.5q372 0 489 -337l-155 -46q-27 120 -127 181.5t-213 61.5q-112 0 -199.5 -59t-87.5 -167
q0 -151 222 -204l255 -61q350 -84 350 -377q0 -177 -131.5 -294.5t-370.5 -117.5q-424 0 -560 390zM227 1741l141 20l191 -133l184 133l147 -20l-334 -259z" />
    <glyph glyph-name="scaron" unicode="&#x161;" horiz-adv-x="950" 
d="M21 262l150 31q50 -191 316 -191q98 0 166 44t68 124q0 119 -173 151l-213 40q-125 24 -199 94t-74 185q0 127 101 212.5t272 85.5q329 0 406 -257l-144 -31q-62 158 -255 158q-96 0 -157.5 -39.5t-61.5 -110.5q0 -112 157 -141l197 -35q309 -56 309 -299
q0 -139 -115 -224.5t-306 -85.5q-359 0 -444 289zM119 1420l141 20l191 -133l184 133l147 -20l-334 -259z" />
    <glyph glyph-name="Zcaron" unicode="&#x17d;" horiz-adv-x="1066" 
d="M1019 146v-146h-963v146l741 1071h-707v139h907v-114l-750 -1096h772zM213 1741l141 20l191 -133l184 133l147 -20l-334 -259z" />
    <glyph glyph-name="zcaron" unicode="&#x17e;" horiz-adv-x="867" 
d="M812 121v-121h-744v121l537 766h-496v123h703v-85l-556 -804h556zM129 1420l141 20l191 -133l184 133l147 -20l-334 -259z" />
    <glyph glyph-name="brokenbar" unicode="&#xa6;" horiz-adv-x="1024" 
d="M436 1365h153v-682h-153v682zM436 314h153v-655h-153v655z" />
    <glyph glyph-name="Eth" unicode="&#xd0;" horiz-adv-x="1325" 
d="M35 655v137h137v573h456q289 0 450 -197t161 -481q0 -289 -156.5 -488t-398.5 -199h-512v655h-137zM342 792h326v-137h-326v-510h276q220 0 334 152.5t114 400.5q0 200 -109 362t-339 162h-276v-430z" />
    <glyph glyph-name="eth" unicode="&#xf0;" horiz-adv-x="1061" 
d="M345 1164l146 88q-57 44 -164 94l77 82q110 -35 207 -106l176 99l70 -87l-153 -86q278 -282 278 -707q0 -281 -130.5 -424.5t-325.5 -143.5q-221 0 -334.5 157.5t-113.5 362.5q0 213 123.5 365t301.5 152q144 0 245 -114q-48 159 -169 281l-175 -101zM528 881
q-132 0 -205 -109t-73 -272q0 -199 79 -299.5t204 -100.5q121 0 199 101.5t78 286.5q0 175 -78 284t-204 109z" />
    <glyph glyph-name="Yacute" unicode="&#xdd;" horiz-adv-x="1045" 
d="M1065 1365l-457 -791v-574h-171v574l-457 791h201l363 -628l365 628h156zM853 1677l-414 -189l-43 81l396 228z" />
    <glyph glyph-name="yacute" unicode="&#xfd;" horiz-adv-x="850" 
d="M850 1011l-405 -1128q-88 -244 -281 -244q-61 0 -135 21v123q61 -14 105 -14q75 0 125.5 43t100.5 208l-349 991h160l270 -759l277 759h132zM768 1356l-414 -189l-43 81l396 228z" />
    <glyph glyph-name="Thorn" unicode="&#xde;" horiz-adv-x="1159" 
d="M342 0h-171v1365h171v-198h313q227 0 335 -123.5t108 -285.5q0 -171 -117 -286.5t-308 -115.5h-331v-356zM342 498h314q121 0 195 72.5t74 190.5q0 110 -69.5 186.5t-187.5 76.5h-326v-526z" />
    <glyph glyph-name="thorn" unicode="&#xfe;" horiz-adv-x="1094" 
d="M314 -341h-157v1706h157v-531q105 204 306 204q174 0 285 -148t111 -380q0 -247 -113 -392t-290 -145q-190 0 -299 181v-495zM314 651v-284q15 -115 97 -190t171 -75q103 0 182.5 90t79.5 311q0 191 -72 294.5t-191 103.5q-94 0 -168.5 -73t-98.5 -177z" />
    <glyph glyph-name="minus" unicode="&#x2212;" horiz-adv-x="1201" 
d="M123 753h956v-138h-956v138z" />
    <glyph glyph-name="multiply" unicode="&#xd7;" horiz-adv-x="1201" 
d="M909 277l-308 309l-309 -309l-98 98l309 309l-309 309l98 98l309 -309l308 309l98 -98l-308 -309l308 -309z" />
    <glyph glyph-name="onesuperior" unicode="&#xb9;" horiz-adv-x="792" 
d="M711 635v-89h-550v89h225v599q-110 -108 -232 -170v117q167 83 262 201h86v-747h209z" />
    <glyph glyph-name="twosuperior" unicode="&#xb2;" horiz-adv-x="792" 
d="M698 643v-97h-617v94q359 255 426.5 334t67.5 156q0 71 -55.5 114.5t-127.5 43.5q-76 0 -134 -49t-65 -138l-112 33q64 248 312 248q135 0 218.5 -73.5t83.5 -172.5q0 -131 -124 -244.5t-326 -248.5h453z" />
    <glyph glyph-name="threesuperior" unicode="&#xb3;" horiz-adv-x="792" 
d="M263 926v93h104q190 0 190 134q0 62 -49 98t-123 36q-147 0 -193 -131l-109 29q84 197 312 197q124 0 203.5 -64t79.5 -158q0 -134 -138 -182q74 -16 122.5 -70t48.5 -132q0 -103 -88 -174t-241 -71q-248 0 -330 208l112 35q43 -147 217 -147q109 0 158 44t49 106
q0 67 -58.5 108t-162.5 41h-104z" />
    <glyph glyph-name="onehalf" unicode="&#xbd;" horiz-adv-x="1802" 
d="M645 635v-89h-550v89h225v599q-110 -108 -232 -170v117q167 83 262 201h86v-747h209zM523 0h-126l827 1365h124zM1718 97v-97h-616v94q360 257 427 335t67 155q0 71 -55.5 114t-127.5 43q-76 0 -134 -48t-65 -138l-112 32q63 249 312 249q135 0 218.5 -73.5t83.5 -173.5
q0 -96 -81.5 -198.5t-368.5 -293.5h452z" />
    <glyph glyph-name="onequarter" unicode="&#xbc;" horiz-adv-x="1802" 
d="M659 635v-89h-550v89h225v599q-110 -108 -232 -170v117q167 83 262 201h86v-747h209zM537 0h-126l827 1365h124zM1583 0h-115v191h-418v77l391 568h142v-551h138v-94h-138v-191zM1468 285v436q-16 -29 -32 -52l-256 -384h288z" />
    <glyph glyph-name="threequarters" unicode="&#xbe;" horiz-adv-x="1802" 
d="M252 926v93h104q190 0 190 134q0 62 -49 98t-123 36q-147 0 -193 -131l-109 29q84 197 312 197q124 0 203.5 -64t79.5 -158q0 -134 -138 -182q74 -16 122.5 -70t48.5 -132q0 -103 -88 -174t-241 -71q-248 0 -330 208l112 35q43 -147 217 -147q109 0 158 44t49 106
q0 67 -58.5 108t-162.5 41h-104zM606 0h-126l827 1365h125zM1612 0h-116v191h-418v77l391 568h143v-551h138v-94h-138v-191zM1496 285v436q-16 -29 -32 -52l-256 -384h288z" />
    <glyph glyph-name="franc" unicode="&#x20a3;" horiz-adv-x="1040" 
d="M171 274h-145v137h145v954h835v-150h-665v-431h552v-138h-552v-235h325v-137h-325v-274h-170v274z" />
    <glyph glyph-name="Gbreve" unicode="&#x11e;" horiz-adv-x="1325" 
d="M1182 688v-706h-105l-47 171q-126 -180 -375 -180q-270 0 -420 203t-150 493q0 310 159 517t432 207q377 0 492 -396l-162 -39q-35 152 -131 221t-210 69q-202 0 -298 -163t-96 -409q0 -265 107.5 -414.5t292.5 -149.5q144 0 240.5 95.5t96.5 263.5q0 31 -2 74h-338v143
h514zM375 1759h114q25 -136 181 -136q163 0 189 136h114q-43 -256 -286 -256q-275 0 -312 256z" />
    <glyph glyph-name="gbreve" unicode="&#x11f;" horiz-adv-x="1006" 
d="M982 1168v-125q-108 0 -144.5 -25t-48.5 -90q97 -112 97 -244q0 -138 -105.5 -237t-283.5 -99q-40 0 -69 6q-55 11 -69 11q-27 0 -65 -26.5t-38 -68.5q0 -60 55 -78t259 -23q173 -5 255.5 -23.5t139.5 -82t57 -155.5q0 -289 -508 -289q-241 0 -351.5 72.5t-110.5 193.5
q0 147 154 202q-99 65 -99 163q0 117 140 179q-131 106 -131 267q0 150 112 246t273 96q114 0 207 -43q15 99 69.5 137t165.5 38q11 0 39 -2zM502 468q100 0 163 61.5t63 159.5q0 100 -65.5 163.5t-158.5 63.5q-89 0 -158 -59.5t-69 -169.5q0 -98 62 -158.5t163 -60.5z
M314 41q-110 -48 -110 -139q0 -77 90.5 -119.5t230.5 -42.5q130 0 238 36.5t108 123.5q0 47 -32 77t-87.5 38t-193.5 12q-165 4 -244 14zM213 1438h114q25 -136 181 -136q163 0 189 136h114q-43 -256 -286 -256q-275 0 -312 256z" />
    <glyph glyph-name="Idotaccent" unicode="&#x130;" horiz-adv-x="512" 
d="M339 0h-171v1365h171v-1365zM359 1628q0 -43 -31.5 -73t-74.5 -30t-74.5 30t-31.5 72q0 43 31.5 72.5t72.5 29.5q45 0 76.5 -29.5t31.5 -71.5z" />
    <glyph glyph-name="Scedilla" unicode="&#x15e;" horiz-adv-x="1166" 
d="M551 -27l-25 -80q24 2 36 2q68 0 125 -39t57 -112q0 -68 -57.5 -111.5t-160.5 -43.5q-105 0 -192 50l26 72q83 -40 154 -40q115 0 115 75q0 81 -130 81q-27 0 -80 -6l53 158q-330 40 -451 384l154 35q93 -279 403 -279q162 0 244 68.5t82 183.5q0 87 -62.5 140t-144.5 73
l-273 68q-106 27 -173.5 65.5t-114.5 118.5t-47 183q0 171 129 272.5t331 101.5q372 0 489 -337l-155 -46q-27 120 -127 181.5t-213 61.5q-112 0 -199.5 -59t-87.5 -167q0 -151 222 -204l255 -61q350 -84 350 -377q0 -184 -138 -300.5t-394 -111.5z" />
    <glyph glyph-name="scedilla" unicode="&#x15f;" horiz-adv-x="950" 
d="M21 262l150 31q24 -106 117 -148.5t198 -42.5q99 0 167 44t68 124q0 119 -173 151l-213 40q-125 24 -199 94t-74 185q0 127 101 212.5t272 85.5q329 0 406 -257l-144 -31q-62 158 -255 158q-96 0 -157.5 -39.5t-61.5 -110.5q0 -112 157 -141l197 -35q309 -56 309 -299
q0 -140 -116 -225t-296 -85l-18 -66q99 0 148.5 -37t49.5 -96q0 -57 -45.5 -101.5t-145.5 -44.5q-104 0 -178 45l23 64q75 -35 142 -35q46 0 74 19.5t28 50.5q0 71 -115 71q-26 0 -75 -5l46 137q-321 31 -387 287z" />
    <glyph glyph-name="Cacute" unicode="&#x106;" horiz-adv-x="1186" 
d="M989 459l156 -35q-112 -451 -506 -451q-259 0 -406.5 209t-147.5 514q0 315 154 506t413 191q384 0 493 -439l-161 -32q-88 326 -333 326q-181 0 -280.5 -151.5t-99.5 -425.5q0 -251 102 -402.5t270 -151.5q261 0 346 342zM966 1677l-414 -189l-43 81l396 228z" />
    <glyph glyph-name="cacute" unicode="&#x107;" horiz-adv-x="954" 
d="M754 354l142 -25q-30 -167 -133 -261.5t-257 -94.5q-209 0 -318.5 154t-109.5 376q0 230 115.5 382.5t314.5 152.5q165 0 264.5 -98.5t123.5 -254.5l-142 -27q-40 250 -242 250q-130 0 -200 -110.5t-70 -286.5q0 -194 69.5 -301.5t195.5 -107.5q195 0 247 252zM811 1356
l-414 -189l-43 81l396 228z" />
    <glyph glyph-name="Ccaron" unicode="&#x10c;" horiz-adv-x="1186" 
d="M989 459l156 -35q-112 -451 -506 -451q-259 0 -406.5 209t-147.5 514q0 315 154 506t413 191q384 0 493 -439l-161 -32q-88 326 -333 326q-181 0 -280.5 -151.5t-99.5 -425.5q0 -251 102 -402.5t270 -151.5q261 0 346 342zM318 1741l141 20l191 -133l184 133l147 -20
l-334 -259z" />
    <glyph glyph-name="ccaron" unicode="&#x10d;" horiz-adv-x="954" 
d="M754 354l142 -25q-30 -167 -133 -261.5t-257 -94.5q-209 0 -318.5 154t-109.5 376q0 230 115.5 382.5t314.5 152.5q165 0 264.5 -98.5t123.5 -254.5l-142 -27q-40 250 -242 250q-130 0 -200 -110.5t-70 -286.5q0 -194 69.5 -301.5t195.5 -107.5q195 0 247 252zM176 1420
l141 20l191 -133l184 133l147 -20l-334 -259z" />
    <glyph glyph-name="dcroat" unicode="&#x111;" horiz-adv-x="1103" 
d="M790 1365h157v-118h137v-116h-137v-1131h-143v173q-106 -200 -320 -200q-177 0 -291 148.5t-114 375.5q0 232 113 386.5t301 154.5q182 0 297 -166v259h-290v116h290v118zM790 620q0 133 -81 213t-190 80q-117 0 -192.5 -104t-75.5 -292q0 -210 71 -312.5t190 -102.5
q110 0 194 92t84 216v210z" />
    <glyph glyph-name="uni00AD" unicode="&#xad;" horiz-adv-x="512" 
d="M482 573v-122h-452v122h452z" />
    <glyph glyph-name="uni00AF" unicode="&#xaf;" horiz-adv-x="1024" 
d="M0 1768h1024v-137h-1024v137z" />
    <glyph glyph-name="uni00B7" unicode="&#xb7;" horiz-adv-x="223" 
d="M223 631v-224h-223v224h223z" />
    <glyph glyph-name="Amacron" unicode="&#x100;" horiz-adv-x="1128" 
d="M1090 0h-175l-138 399h-505l-122 -399h-143l443 1365h195zM741 527l-210 656l-212 -656h422zM859 1659v-109h-621v109h621z" />
    <glyph glyph-name="amacron" unicode="&#x101;" horiz-adv-x="1083" 
d="M948 0h-156q-9 48 -18 182q-104 -209 -354 -209q-170 0 -261 90t-91 216q0 153 130 251.5t442 98.5q42 0 134 -4q0 120 -18.5 173.5t-78.5 85.5t-158 32q-239 0 -278 -182l-145 25q53 279 446 279q209 0 296.5 -92.5t87.5 -320.5v-429q0 -107 22 -196zM774 505
q-96 6 -146 6q-186 0 -289 -61t-103 -178q0 -74 55.5 -126t160.5 -52q142 0 233.5 103t91.5 242q0 28 -3 66zM846 1345v-109h-621v109h621z" />
    <glyph glyph-name="Abreve" unicode="&#x102;" horiz-adv-x="1097" 
d="M1090 0h-175l-138 399h-505l-122 -399h-143l443 1365h195zM741 527l-210 656l-212 -656h422zM250 1759h114q25 -136 181 -136q163 0 189 136h114q-43 -256 -286 -256q-275 0 -312 256z" />
    <glyph glyph-name="abreve" unicode="&#x103;" horiz-adv-x="1083" 
d="M948 0h-156q-9 48 -18 182q-104 -209 -354 -209q-170 0 -261 90t-91 216q0 153 130 251.5t442 98.5q42 0 134 -4q0 120 -18.5 173.5t-78.5 85.5t-158 32q-239 0 -278 -182l-145 25q53 279 446 279q209 0 296.5 -92.5t87.5 -320.5v-429q0 -107 22 -196zM774 505
q-96 6 -146 6q-186 0 -289 -61t-103 -178q0 -74 55.5 -126t160.5 -52q142 0 233.5 103t91.5 242q0 28 -3 66zM237 1438h114q25 -136 181 -136q163 0 189 136h114q-43 -256 -286 -256q-275 0 -312 256z" />
    <glyph glyph-name="Aogonek" unicode="&#x104;" horiz-adv-x="1097" 
d="M991 0h-76l-138 399h-505l-122 -399h-143l443 1365h195l445 -1365q-134 -77 -134 -158q0 -96 114 -96q45 0 88 14l18 -69q-66 -34 -150 -34q-93 0 -143 41.5t-50 111.5q0 127 158 190zM741 527l-210 656l-212 -656h422z" />
    <glyph glyph-name="aogonek" unicode="&#x105;" horiz-adv-x="1083" 
d="M853 0h-61q-9 48 -18 182q-104 -209 -354 -209q-170 0 -261 90t-91 216q0 151 129 250.5t446 99.5q39 0 131 -4q0 120 -18.5 173.5t-78.5 85.5t-158 32q-239 0 -278 -182l-145 25q53 279 448 279q206 0 294 -93t88 -320v-429q0 -132 22 -196q-91 -60 -108 -89t-17 -56
q0 -86 111 -86q38 0 87 13l18 -63q-65 -32 -148 -32q-90 0 -139 38t-49 102q0 110 150 173zM774 505q-96 6 -146 6q-186 0 -289 -61t-103 -178q0 -74 55.5 -126t160.5 -52q142 0 233.5 103t91.5 242q0 28 -3 66z" />
    <glyph glyph-name="Ccircumflex" unicode="&#x108;" horiz-adv-x="1186" 
d="M989 459l156 -35q-112 -451 -506 -451q-259 0 -406.5 209t-147.5 514q0 315 154 506t413 191q384 0 493 -439l-161 -32q-88 326 -333 326q-181 0 -280.5 -151.5t-99.5 -425.5q0 -251 102 -402.5t270 -151.5q261 0 346 342zM981 1515l-141 -20l-191 134l-184 -134l-147 20
l334 260z" />
    <glyph glyph-name="ccircumflex" unicode="&#x109;" horiz-adv-x="954" 
d="M754 354l142 -25q-30 -167 -133 -261.5t-257 -94.5q-209 0 -318.5 154t-109.5 376q0 230 115.5 382.5t314.5 152.5q165 0 264.5 -98.5t123.5 -254.5l-142 -27q-40 250 -242 250q-130 0 -200 -110.5t-70 -286.5q0 -194 69.5 -301.5t195.5 -107.5q195 0 247 252zM846 1194
l-141 -20l-191 134l-184 -134l-147 20l334 260z" />
    <glyph glyph-name="Cdotaccent" unicode="&#x10a;" horiz-adv-x="1186" 
d="M989 459l156 -35q-112 -451 -506 -451q-259 0 -406.5 209t-147.5 514q0 315 154 506t413 191q384 0 493 -439l-161 -32q-88 326 -333 326q-181 0 -280.5 -151.5t-99.5 -425.5q0 -251 102 -402.5t270 -151.5q261 0 346 342zM753 1628q0 -43 -31.5 -73t-74.5 -30t-74.5 30
t-31.5 72q0 43 31.5 72.5t72.5 29.5q45 0 76.5 -29.5t31.5 -71.5z" />
    <glyph glyph-name="cdotaccent" unicode="&#x10b;" horiz-adv-x="954" 
d="M754 354l142 -25q-30 -167 -133 -261.5t-257 -94.5q-209 0 -318.5 154t-109.5 376q0 230 115.5 382.5t314.5 152.5q165 0 264.5 -98.5t123.5 -254.5l-142 -27q-40 250 -242 250q-130 0 -200 -110.5t-70 -286.5q0 -194 69.5 -301.5t195.5 -107.5q195 0 247 252zM610 1304
q0 -43 -31.5 -73t-74.5 -30t-74.5 30t-31.5 72q0 43 31.5 72.5t72.5 29.5q45 0 76.5 -29.5t31.5 -71.5z" />
    <glyph glyph-name="Dcaron" unicode="&#x10e;" horiz-adv-x="1325" 
d="M171 0v1365h458q289 0 450 -197t161 -482q0 -289 -157 -487.5t-398 -198.5h-514zM342 145h277q220 0 334 152t114 401q0 202 -108.5 363t-339.5 161h-277v-1077zM290 1741l141 20l191 -133l184 133l147 -20l-334 -259z" />
    <glyph glyph-name="dcaron" unicode="&#x10f;" horiz-adv-x="1288" 
d="M946 1365v-1365h-143v173q-106 -200 -319 -200q-177 0 -291 148.5t-114 375.5q0 232 113 386.5t300 154.5q182 0 297 -166v493h157zM789 620q0 133 -81 213t-189 80q-117 0 -192.5 -104t-75.5 -292q0 -203 69.5 -309t190.5 -106q110 0 194 92t84 216v210zM1110 1365h165
l-155 -379h-77z" />
    <glyph glyph-name="Dcroat" unicode="&#x110;" horiz-adv-x="1325" 
d="M35 655v137h137v573h456q289 0 450 -197t161 -481q0 -289 -156.5 -488t-398.5 -199h-512v655h-137zM342 792h326v-137h-326v-510h276q220 0 334 152.5t114 400.5q0 200 -109 362t-339 162h-276v-430z" />
    <glyph glyph-name="Emacron" unicode="&#x112;" horiz-adv-x="1122" 
d="M1054 150v-150h-883v1365h864v-150h-693v-434h550v-139h-550v-492h712zM916 1659v-109h-621v109h621z" />
    <glyph glyph-name="emacron" unicode="&#x113;" horiz-adv-x="1066" 
d="M824 301l146 -30q-40 -129 -156 -213.5t-273 -84.5q-207 0 -335 145.5t-128 381.5q0 241 133 389.5t334 148.5q198 0 318.5 -137t123.5 -410h-734q0 -229 96 -309t203 -80q193 0 272 199zM815 608q-2 85 -28 151t-88 112.5t-149 46.5q-117 0 -198.5 -84t-91.5 -226h555z
M857 1345v-109h-621v109h621z" />
    <glyph glyph-name="Ebreve" unicode="&#x114;" horiz-adv-x="1122" 
d="M1054 150v-150h-883v1365h864v-150h-693v-434h550v-139h-550v-492h712zM304 1759h114q25 -136 181 -136q163 0 189 136h114q-43 -256 -286 -256q-275 0 -312 256z" />
    <glyph glyph-name="ebreve" unicode="&#x115;" horiz-adv-x="1066" 
d="M824 301l146 -30q-40 -129 -156 -213.5t-273 -84.5q-207 0 -335 145.5t-128 381.5q0 241 133 389.5t334 148.5q198 0 318.5 -137t123.5 -410h-734q0 -229 96 -309t203 -80q193 0 272 199zM815 608q-2 85 -28 151t-88 112.5t-149 46.5q-117 0 -198.5 -84t-91.5 -226h555z
M245 1438h114q25 -136 181 -136q163 0 189 136h114q-43 -256 -286 -256q-275 0 -312 256z" />
    <glyph glyph-name="Edotaccent" unicode="&#x116;" horiz-adv-x="1122" 
d="M1054 150v-150h-883v1365h864v-150h-693v-434h550v-139h-550v-492h712zM715 1628q0 -43 -31.5 -73t-74.5 -30t-74.5 30t-31.5 72q0 43 31.5 72.5t72.5 29.5q45 0 76.5 -29.5t31.5 -71.5z" />
    <glyph glyph-name="edotaccent" unicode="&#x117;" horiz-adv-x="1066" 
d="M824 301l146 -30q-40 -129 -156 -213.5t-273 -84.5q-207 0 -335 145.5t-128 381.5q0 241 133 389.5t334 148.5q198 0 318.5 -137t123.5 -410h-734q0 -229 96 -309t203 -80q193 0 272 199zM815 608q-2 85 -28 151t-88 112.5t-149 46.5q-117 0 -198.5 -84t-91.5 -226h555z
M653 1304q0 -43 -31.5 -73t-74.5 -30t-74.5 30t-31.5 72q0 43 31.5 72.5t72.5 29.5q45 0 76.5 -29.5t31.5 -71.5z" />
    <glyph glyph-name="Eogonek" unicode="&#x118;" horiz-adv-x="1122" 
d="M1054 0q-134 -77 -134 -158q0 -96 114 -96q45 0 88 14l18 -69q-66 -34 -150 -34q-93 0 -143 41.5t-50 111.5q0 127 158 190h-784v1365h864v-150h-693v-434h550v-139h-550v-492h712v-150z" />
    <glyph glyph-name="eogonek" unicode="&#x119;" horiz-adv-x="1066" 
d="M866 -211l18 -63q-66 -32 -145 -32q-191 0 -191 140q0 90 103 150q-55 -11 -110 -11q-202 0 -332.5 142t-130.5 385q0 241 133 389.5t334 148.5q198 0 318.5 -137t123.5 -410h-734q0 -229 96 -309t203 -80q193 0 272 199l146 -30q-30 -103 -150 -212
q-100 -90 -126 -124.5t-26 -73.5q0 -85 112 -85q38 0 86 13zM815 608q-2 85 -28 151t-88 112.5t-149 46.5q-117 0 -198.5 -84t-91.5 -226h555z" />
    <glyph glyph-name="Ecaron" unicode="&#x11a;" horiz-adv-x="1122" 
d="M1054 150v-150h-883v1365h864v-150h-693v-434h550v-139h-550v-492h712zM274 1741l141 20l191 -133l184 133l147 -20l-334 -259z" />
    <glyph glyph-name="ecaron" unicode="&#x11b;" horiz-adv-x="1066" 
d="M824 301l146 -30q-40 -129 -156 -213.5t-273 -84.5q-207 0 -335 145.5t-128 381.5q0 241 133 389.5t334 148.5q198 0 318.5 -137t123.5 -410h-734q0 -229 96 -309t203 -80q193 0 272 199zM815 608q-2 85 -28 151t-88 112.5t-149 46.5q-117 0 -198.5 -84t-91.5 -226h555z
M215 1420l141 20l191 -133l184 133l147 -20l-334 -259z" />
    <glyph glyph-name="Gcircumflex" unicode="&#x11c;" horiz-adv-x="1325" 
d="M1182 688v-706h-105l-47 171q-126 -180 -375 -180q-270 0 -420 203t-150 493q0 310 159 517t432 207q377 0 492 -396l-162 -39q-35 152 -131 221t-210 69q-202 0 -298 -163t-96 -409q0 -265 107.5 -414.5t292.5 -149.5q144 0 240.5 95.5t96.5 263.5q0 31 -2 74h-338v143
h514zM1003 1515l-141 -20l-191 134l-184 -134l-147 20l334 260z" />
    <glyph glyph-name="gcircumflex" unicode="&#x11d;" horiz-adv-x="1006" 
d="M982 1168v-125q-108 0 -144.5 -25t-48.5 -90q97 -112 97 -244q0 -138 -105.5 -237t-283.5 -99q-40 0 -69 6q-55 11 -69 11q-27 0 -65 -26.5t-38 -68.5q0 -60 55 -78t259 -23q173 -5 255.5 -23.5t139.5 -82t57 -155.5q0 -289 -508 -289q-241 0 -351.5 72.5t-110.5 193.5
q0 147 154 202q-99 65 -99 163q0 117 140 179q-131 106 -131 267q0 150 112 246t273 96q114 0 207 -43q15 99 69.5 137t165.5 38q11 0 39 -2zM502 468q100 0 163 61.5t63 159.5q0 100 -65.5 163.5t-158.5 63.5q-89 0 -158 -59.5t-69 -169.5q0 -98 62 -158.5t163 -60.5z
M314 41q-110 -48 -110 -139q0 -77 90.5 -119.5t230.5 -42.5q130 0 238 36.5t108 123.5q0 47 -32 77t-87.5 38t-193.5 12q-165 4 -244 14zM834 1194l-141 -20l-191 134l-184 -134l-147 20l334 260z" />
    <glyph glyph-name="Gdotaccent" unicode="&#x120;" horiz-adv-x="1325" 
d="M1182 688v-706h-105l-47 171q-126 -180 -375 -180q-270 0 -420 203t-150 493q0 310 159 517t432 207q377 0 492 -396l-162 -39q-35 152 -131 221t-210 69q-202 0 -298 -163t-96 -409q0 -265 107.5 -414.5t292.5 -149.5q144 0 240.5 95.5t96.5 263.5q0 31 -2 74h-338v143
h514zM778 1628q0 -43 -31.5 -73t-74.5 -30t-74.5 30t-31.5 72q0 43 31.5 72.5t72.5 29.5q45 0 76.5 -29.5t31.5 -71.5z" />
    <glyph glyph-name="gdotaccent" unicode="&#x121;" horiz-adv-x="1006" 
d="M982 1168v-125q-108 0 -144.5 -25t-48.5 -90q97 -112 97 -244q0 -138 -105.5 -237t-283.5 -99q-40 0 -69 6q-55 11 -69 11q-27 0 -65 -26.5t-38 -68.5q0 -60 55 -78t259 -23q173 -5 255.5 -23.5t139.5 -82t57 -155.5q0 -289 -508 -289q-241 0 -351.5 72.5t-110.5 193.5
q0 147 154 202q-99 65 -99 163q0 117 140 179q-131 106 -131 267q0 150 112 246t273 96q114 0 207 -43q15 99 69.5 137t165.5 38q11 0 39 -2zM502 468q100 0 163 61.5t63 159.5q0 100 -65.5 163.5t-158.5 63.5q-89 0 -158 -59.5t-69 -169.5q0 -98 62 -158.5t163 -60.5z
M314 41q-110 -48 -110 -139q0 -77 90.5 -119.5t230.5 -42.5q130 0 238 36.5t108 123.5q0 47 -32 77t-87.5 38t-193.5 12q-165 4 -244 14zM614 1304q0 -43 -31.5 -73t-74.5 -30t-74.5 30t-31.5 72q0 43 31.5 72.5t72.5 29.5q45 0 76.5 -29.5t31.5 -71.5z" />
    <glyph glyph-name="Gcommaaccent" unicode="&#x122;" horiz-adv-x="1325" 
d="M1182 688v-706h-105l-47 171q-126 -180 -375 -180q-270 0 -420 203t-150 493q0 310 159 517t432 207q377 0 492 -396l-162 -39q-35 152 -131 221t-210 69q-202 0 -298 -163t-96 -409q0 -265 107.5 -414.5t292.5 -149.5q144 0 240.5 95.5t96.5 263.5q0 31 -2 74h-338v143
h514zM576 -119h166l-155 -361h-77z" />
    <glyph glyph-name="gcommaaccent" unicode="&#x123;" horiz-adv-x="1006" 
d="M982 1168v-125q-108 0 -144.5 -25t-48.5 -90q97 -112 97 -244q0 -138 -105.5 -237t-283.5 -99q-40 0 -69 6q-55 11 -69 11q-27 0 -65 -26.5t-38 -68.5q0 -60 55 -78t259 -23q173 -5 255.5 -23.5t139.5 -82t57 -155.5q0 -289 -508 -289q-241 0 -351.5 72.5t-110.5 193.5
q0 147 154 202q-99 65 -99 163q0 117 140 179q-131 106 -131 267q0 150 112 246t273 96q114 0 207 -43q15 99 69.5 137t165.5 38q11 0 39 -2zM502 468q100 0 163 61.5t63 159.5q0 100 -65.5 163.5t-158.5 63.5q-89 0 -158 -59.5t-69 -169.5q0 -98 62 -158.5t163 -60.5z
M314 41q-110 -48 -110 -139q0 -77 90.5 -119.5t230.5 -42.5q130 0 238 36.5t108 123.5q0 47 -32 77t-87.5 38t-193.5 12q-165 4 -244 14zM567 1205h-165l155 379h77z" />
    <glyph glyph-name="Hcircumflex" unicode="&#x124;" horiz-adv-x="1316" 
d="M1146 0h-171v650h-633v-650h-171v1365h171v-565h633v565h171v-1365zM990 1515l-141 -20l-191 134l-184 -134l-147 20l334 260z" />
    <glyph glyph-name="hcircumflex" unicode="&#x125;" horiz-adv-x="1106" 
d="M949 0h-157v613q0 108 -13.5 162t-64 93.5t-116.5 39.5q-121 0 -202.5 -99t-81.5 -265v-544h-157v1365h157v-541q107 214 306 214q89 0 158.5 -35t106.5 -92t50.5 -112.5t13.5 -185.5v-613zM591 1515l-141 -20l-191 134l-184 -134l-147 20l334 260z" />
    <glyph glyph-name="Hbar" unicode="&#x126;" horiz-adv-x="1316" 
d="M171 1164v201h170v-201h634v201h171v-201h129v-137h-129v-1027h-171v650h-634v-650h-170v1027h-130v137h130zM975 1027h-634v-227h634v227z" />
    <glyph glyph-name="hbar" unicode="&#x127;" horiz-adv-x="1106" 
d="M21 1131v116h137v118h157v-118h290v-116h-290v-307q107 214 309 214q86 0 155 -35.5t106.5 -92.5t50.5 -112t13 -185v-613h-157v613q0 108 -13 162t-64 93.5t-116 39.5q-121 0 -202.5 -99t-81.5 -265v-544h-157v1131h-137z" />
    <glyph glyph-name="Itilde" unicode="&#x128;" horiz-adv-x="512" 
d="M342 0h-171v1365h171v-1365zM521 1701l77 -72q-106 -101 -202 -101q-49 0 -129 35q-87 38 -134 38q-81 0 -135 -66l-84 58q88 128 224 128q46 0 128 -34q89 -37 128 -37q65 0 127 51z" />
    <glyph glyph-name="itilde" unicode="&#x129;" horiz-adv-x="470" 
d="M313 1010v-1010h-157v1010h157zM500 1380l77 -72q-106 -101 -202 -101q-49 0 -129 35q-87 38 -134 38q-81 0 -135 -66l-84 58q88 128 224 128q46 0 128 -34q89 -37 128 -37q65 0 127 51z" />
    <glyph glyph-name="Imacron" unicode="&#x12a;" horiz-adv-x="512" 
d="M342 0h-171v1365h171v-1365zM567 1659v-109h-621v109h621z" />
    <glyph glyph-name="imacron" unicode="&#x12b;" horiz-adv-x="470" 
d="M313 1010v-1010h-157v1010h157zM545 1345v-109h-621v109h621z" />
    <glyph glyph-name="Ibreve" unicode="&#x12c;" horiz-adv-x="512" 
d="M342 0h-171v1365h171v-1365zM-43 1759h114q25 -136 181 -136q163 0 189 136h114q-43 -256 -286 -256q-275 0 -312 256z" />
    <glyph glyph-name="ibreve" unicode="&#x12d;" horiz-adv-x="470" 
d="M313 1010v-1010h-157v1010h157zM-64 1438h114q25 -136 181 -136q163 0 189 136h114q-43 -256 -286 -256q-275 0 -312 256z" />
    <glyph glyph-name="Iogonek" unicode="&#x12e;" horiz-adv-x="512" 
d="M245 0h-74v1365h171v-1365q-107 -71 -107 -157q0 -97 99 -97q29 0 75 14l19 -69q-69 -34 -137 -34q-87 0 -133 43t-46 110q0 115 133 190z" />
    <glyph glyph-name="iogonek" unicode="&#x12f;" horiz-adv-x="470" 
d="M320 1365v-174h-170v174h170zM314 0q-93 -64 -93 -147q0 -85 90 -85q36 0 76 14l18 -63q-67 -32 -138 -32q-89 0 -127.5 42t-38.5 100q0 105 125 171h-69v1010h157v-1010z" />
    <glyph glyph-name="IJ" unicode="&#x132;" horiz-adv-x="1270" 
d="M342 0h-171v1365h171v-1365zM1113 1365v-948q0 -248 -112 -346t-297 -98q-99 0 -198 27v140q98 -20 178 -20q113 0 167.5 34t72.5 88t18 175v948h171z" />
    <glyph glyph-name="ij" unicode="&#x133;" horiz-adv-x="932" 
d="M319 1365v-174h-169v174h169zM785 1365v-174h-179v174h179zM777 1021v-1052q0 -178 -84.5 -248t-207.5 -70q-59 0 -146 21v124q64 -16 115 -16q92 0 129 44.5t37 144.5v1052h157zM314 1010v-1010h-157v1010h157z" />
    <glyph glyph-name="Jcircumflex" unicode="&#x134;" horiz-adv-x="765" 
d="M608 1365v-948q0 -248 -112 -346t-297 -98q-99 0 -199 27v140q98 -20 178 -20q114 0 168 34t72.5 88t18.5 175v948h171zM840 1515l-141 -20l-191 134l-184 -134l-147 20l334 260z" />
    <glyph glyph-name="jcircumflex" unicode="&#x135;" horiz-adv-x="469" 
d="M563 1194l-141 -20l-191 134l-184 -134l-147 20l334 260zM314 1021v-1052q0 -185 -89.5 -251.5t-187.5 -66.5q-59 0 -161 21v124q65 -16 116 -16q86 0 125.5 42t39.5 147v1052h157z" />
    <glyph glyph-name="Kcommaaccent" unicode="&#x136;" horiz-adv-x="1287" 
d="M1250 0h-187l-408 753l-313 -389v-364h-171v1365h171v-792l617 792h185l-370 -478zM606 -119h166l-155 -361h-77z" />
    <glyph glyph-name="kcommaaccent" unicode="&#x137;" horiz-adv-x="1026" 
d="M991 0h-163l-295 564l-219 -252v-312h-157v1365h157v-874l469 519h168l-316 -355zM479 -109h166l-155 -361h-77z" />
    <glyph glyph-name="kgreenlandic" unicode="&#x138;" horiz-adv-x="1026" 
d="M991 0h-163l-295 564l-219 -251v-313h-157v1010h157v-517l469 517h168l-316 -355z" />
    <glyph glyph-name="Lacute" unicode="&#x139;" horiz-adv-x="1003" 
d="M977 150v-150h-806v1365h175v-1215h631zM597 1677l-414 -189l-43 81l396 228z" />
    <glyph glyph-name="lacute" unicode="&#x13a;" horiz-adv-x="471" 
d="M314 0h-157v1365h157v-1365zM571 1677l-414 -189l-43 81l396 228z" />
    <glyph glyph-name="Lcommaaccent" unicode="&#x13b;" horiz-adv-x="1003" 
d="M977 150v-150h-806v1365h175v-1215h631zM511 -119h166l-155 -361h-77z" />
    <glyph glyph-name="lcommaaccent" unicode="&#x13c;" horiz-adv-x="471" 
d="M314 0h-157v1365h157v-1365zM156 -109h166l-155 -361h-77z" />
    <glyph glyph-name="Lcaron" unicode="&#x13d;" horiz-adv-x="1003" 
d="M977 150v-150h-806v1365h175v-1215h631zM624 1365h165l-155 -379h-77z" />
    <glyph glyph-name="lcaron" unicode="&#x13e;" horiz-adv-x="643" 
d="M314 0h-157v1365h157v-1365zM478 1365h165l-155 -379h-77z" />
    <glyph glyph-name="Ldot" unicode="&#x13f;" horiz-adv-x="1003" 
d="M977 150v-150h-806v1365h175v-1215h631zM870 809v-224h-223v224h223z" />
    <glyph glyph-name="ldot" unicode="&#x140;" horiz-adv-x="694" 
d="M314 0h-157v1365h157v-1365zM664 779v-165h-164v165h164z" />
    <glyph glyph-name="Nacute" unicode="&#x143;" horiz-adv-x="1346" 
d="M1176 0h-166l-706 1190l2 -90q3 -51 3 -86v-1014h-138v1365h214l660 -1113l-2 95q-2 56 -2 99v919h135v-1365zM993 1677l-414 -189l-43 81l396 228z" />
    <glyph glyph-name="nacute" unicode="&#x144;" horiz-adv-x="1110" 
d="M953 0h-147v649q0 140 -61 197t-148 57q-120 0 -201.5 -96t-81.5 -253v-554h-157v1010h146v-186q123 214 319 214q113 0 192.5 -58.5t109 -131.5t29.5 -264v-584zM865 1356l-414 -189l-43 81l396 228z" />
    <glyph glyph-name="Ncommaaccent" unicode="&#x145;" horiz-adv-x="1346" 
d="M1176 0h-166l-706 1190l2 -90q3 -51 3 -86v-1014h-138v1365h214l660 -1113l-2 95q-2 56 -2 99v919h135v-1365zM601 -119h166l-155 -361h-77z" />
    <glyph glyph-name="ncommaaccent" unicode="&#x146;" horiz-adv-x="1110" 
d="M953 0h-147v649q0 140 -61 197t-148 57q-120 0 -201.5 -96t-81.5 -253v-554h-157v1010h146v-186q123 214 319 214q113 0 192.5 -58.5t109 -131.5t29.5 -264v-584zM485 -109h166l-155 -361h-77z" />
    <glyph glyph-name="Ncaron" unicode="&#x147;" horiz-adv-x="1346" 
d="M1176 0h-166l-706 1190l2 -90q3 -51 3 -86v-1014h-138v1365h214l660 -1113l-2 95q-2 56 -2 99v919h135v-1365zM342 1741l141 20l191 -133l184 133l147 -20l-334 -259z" />
    <glyph glyph-name="ncaron" unicode="&#x148;" horiz-adv-x="1110" 
d="M953 0h-147v649q0 140 -61 197t-148 57q-120 0 -201.5 -96t-81.5 -253v-554h-157v1010h146v-186q123 214 319 214q113 0 192.5 -58.5t109 -131.5t29.5 -264v-584zM223 1420l141 20l191 -133l184 133l147 -20l-334 -259z" />
    <glyph glyph-name="napostrophe" unicode="&#x149;" horiz-adv-x="1383" 
d="M1226 0h-147v649q0 140 -61 197t-148 57q-120 0 -201.5 -96t-81.5 -253v-554h-157v1010h146v-186q123 214 319 214q113 0 192.5 -58.5t109 -131.5t29.5 -264v-584zM348 1365v-203l-135 -239h-70l99 239h-99v203h205z" />
    <glyph glyph-name="Eng" unicode="&#x14a;" horiz-adv-x="1316" 
d="M171 1365h156v-251q83 146 179 212.5t232 66.5q140 0 237.5 -74t134 -174t36.5 -355v-712q0 -246 -105 -338t-227 -92q-61 0 -167 22v139q80 -20 133 -20q103 0 149 63.5t46 203.5v855q0 187 -74.5 265t-187.5 78q-76 0 -162.5 -45t-147.5 -159t-61 -267v-783h-171v1365z
" />
    <glyph glyph-name="eng" unicode="&#x14b;" horiz-adv-x="1110" 
d="M157 1010h146v-186q123 214 319 214q113 0 192.5 -58.5t109 -131.5t29.5 -264v-615q0 -185 -90 -251.5t-187 -66.5q-60 0 -161 21v124q64 -16 115 -16q89 0 127 43.5t38 145.5v680q0 139 -57 196.5t-142 57.5q-119 0 -200.5 -96t-81.5 -253v-554h-157v1010z" />
    <glyph glyph-name="Omacron" unicode="&#x14c;" horiz-adv-x="1292" 
d="M642 -27q-263 0 -410 204.5t-147 501.5q0 310 154 512t408 202q253 0 406 -198.5t153 -500.5q0 -290 -148.5 -505.5t-415.5 -215.5zM646 112q179 0 280 163t101 420q0 264 -104.5 411t-277.5 147q-175 0 -278 -159t-103 -416q0 -251 104 -408.5t278 -157.5zM956 1659
v-109h-621v109h621z" />
    <glyph glyph-name="omacron" unicode="&#x14d;" horiz-adv-x="1064" 
d="M519 -27q-208 0 -324.5 154t-116.5 382q0 241 131 385t326 144q209 0 329.5 -151.5t120.5 -378.5q0 -236 -130 -385.5t-336 -149.5zM531 102q120 0 201 99t81 308q0 210 -85 304.5t-199 94.5q-117 0 -198 -95.5t-81 -302.5q0 -219 81 -313.5t200 -94.5zM842 1345v-109
h-621v109h621z" />
    <glyph glyph-name="Obreve" unicode="&#x14e;" horiz-adv-x="1292" 
d="M642 -27q-263 0 -410 204.5t-147 501.5q0 310 154 512t408 202q253 0 406 -198.5t153 -500.5q0 -290 -148.5 -505.5t-415.5 -215.5zM646 112q179 0 280 163t101 420q0 264 -104.5 411t-277.5 147q-175 0 -278 -159t-103 -416q0 -251 104 -408.5t278 -157.5zM347 1759h114
q25 -136 181 -136q163 0 189 136h114q-43 -256 -286 -256q-275 0 -312 256z" />
    <glyph glyph-name="obreve" unicode="&#x14f;" horiz-adv-x="1064" 
d="M519 -27q-208 0 -324.5 154t-116.5 382q0 241 131 385t326 144q209 0 329.5 -151.5t120.5 -378.5q0 -236 -130 -385.5t-336 -149.5zM531 102q120 0 201 99t81 308q0 210 -85 304.5t-199 94.5q-117 0 -198 -95.5t-81 -302.5q0 -219 81 -313.5t200 -94.5zM233 1438h114
q25 -136 181 -136q163 0 189 136h114q-43 -256 -286 -256q-275 0 -312 256z" />
    <glyph glyph-name="Ohungarumlaut" unicode="&#x150;" horiz-adv-x="1292" 
d="M642 -27q-263 0 -410 204.5t-147 501.5q0 310 154 512t408 202q253 0 406 -198.5t153 -500.5q0 -290 -148.5 -505.5t-415.5 -215.5zM646 112q179 0 280 163t101 420q0 264 -104.5 411t-277.5 147q-175 0 -278 -159t-103 -416q0 -251 104 -408.5t278 -157.5zM757 1686
l-322 -198l-51 78l303 231zM1084 1686l-322 -198l-50 78l303 231z" />
    <glyph glyph-name="ohungarumlaut" unicode="&#x151;" horiz-adv-x="1064" 
d="M519 -27q-208 0 -324.5 154t-116.5 382q0 241 131 385t326 144q209 0 329.5 -151.5t120.5 -378.5q0 -236 -130 -385.5t-336 -149.5zM531 102q120 0 201 99t81 308q0 210 -85 304.5t-199 94.5q-117 0 -198 -95.5t-81 -302.5q0 -219 81 -313.5t200 -94.5zM654 1365
l-322 -198l-51 78l303 231zM981 1365l-322 -198l-50 78l303 231z" />
    <glyph glyph-name="Racute" unicode="&#x154;" horiz-adv-x="1255" 
d="M1153 0h-179l-252 591h-391v-591h-160v1365h538q219 0 324.5 -119.5t105.5 -261.5q0 -109 -59 -209t-195 -143zM331 730h357q141 0 210.5 74.5t69.5 182.5t-73.5 168t-185.5 60h-378v-485zM911 1677l-414 -189l-43 81l396 228z" />
    <glyph glyph-name="racute" unicode="&#x155;" horiz-adv-x="675" 
d="M314 0h-157v1010h138v-236q73 167 146.5 216.5t150.5 49.5q24 0 62 -4v-150h-32q-130 0 -216 -97t-92 -255v-534zM703 1356l-414 -189l-43 81l396 228z" />
    <glyph glyph-name="Rcommaaccent" unicode="&#x156;" horiz-adv-x="1255" 
d="M1153 0h-179l-252 591h-391v-591h-160v1365h538q219 0 324.5 -119.5t105.5 -261.5q0 -109 -59 -209t-195 -143zM331 730h357q141 0 210.5 74.5t69.5 182.5t-73.5 168t-185.5 60h-378v-485zM559 -119h166l-155 -361h-77z" />
    <glyph glyph-name="rcommaaccent" unicode="&#x157;" horiz-adv-x="675" 
d="M314 0h-157v1010h138v-236q73 167 146.5 216.5t150.5 49.5q24 0 62 -4v-150h-32q-130 0 -216 -97t-92 -255v-534zM158 -109h166l-155 -361h-77z" />
    <glyph glyph-name="Rcaron" unicode="&#x158;" horiz-adv-x="1255" 
d="M1153 0h-179l-252 591h-391v-591h-160v1365h538q219 0 324.5 -119.5t105.5 -261.5q0 -109 -59 -209t-195 -143zM331 730h357q141 0 210.5 74.5t69.5 182.5t-73.5 168t-185.5 60h-378v-485zM263 1741l141 20l191 -133l184 133l147 -20l-334 -259z" />
    <glyph glyph-name="rcaron" unicode="&#x159;" horiz-adv-x="675" 
d="M327 0h-157v1010h138v-236q73 167 146.5 216.5t150.5 49.5q24 0 62 -4v-150h-32q-130 0 -216 -97t-92 -255v-534zM67 1420l141 20l191 -133l184 133l147 -20l-334 -259z" />
    <glyph glyph-name="Sacute" unicode="&#x15a;" horiz-adv-x="1166" 
d="M21 363l154 35q93 -279 403 -279q162 0 244 68.5t82 183.5q0 87 -62.5 140t-144.5 73l-273 68q-106 27 -173.5 65.5t-114.5 118.5t-47 183q0 171 129 272.5t331 101.5q372 0 489 -337l-155 -46q-27 120 -127 181.5t-213 61.5q-112 0 -199.5 -59t-87.5 -167
q0 -151 222 -204l255 -61q350 -84 350 -377q0 -177 -131.5 -294.5t-370.5 -117.5q-424 0 -560 390zM876 1677l-414 -189l-43 81l396 228z" />
    <glyph glyph-name="sacute" unicode="&#x15b;" horiz-adv-x="950" 
d="M21 262l150 31q50 -191 316 -191q98 0 166 44t68 124q0 119 -173 151l-213 40q-125 24 -199 94t-74 185q0 127 101 212.5t272 85.5q329 0 406 -257l-144 -31q-62 158 -255 158q-96 0 -157.5 -39.5t-61.5 -110.5q0 -112 157 -141l197 -35q309 -56 309 -299
q0 -139 -115 -224.5t-306 -85.5q-359 0 -444 289zM757 1356l-414 -189l-43 81l396 228z" />
    <glyph glyph-name="Scircumflex" unicode="&#x15c;" horiz-adv-x="1166" 
d="M21 363l154 35q93 -279 403 -279q162 0 244 68.5t82 183.5q0 87 -62.5 140t-144.5 73l-273 68q-106 27 -173.5 65.5t-114.5 118.5t-47 183q0 171 129 272.5t331 101.5q372 0 489 -337l-155 -46q-27 120 -127 181.5t-213 61.5q-112 0 -199.5 -59t-87.5 -167
q0 -151 222 -204l255 -61q350 -84 350 -377q0 -177 -131.5 -294.5t-370.5 -117.5q-424 0 -560 390zM890 1515l-141 -20l-191 134l-184 -134l-147 20l334 260z" />
    <glyph glyph-name="scircumflex" unicode="&#x15d;" horiz-adv-x="950" 
d="M21 262l150 31q50 -191 316 -191q98 0 166 44t68 124q0 119 -173 151l-213 40q-125 24 -199 94t-74 185q0 127 101 212.5t272 85.5q329 0 406 -257l-144 -31q-62 158 -255 158q-96 0 -157.5 -39.5t-61.5 -110.5q0 -112 157 -141l197 -35q309 -56 309 -299
q0 -139 -115 -224.5t-306 -85.5q-359 0 -444 289zM782 1194l-141 -20l-191 134l-184 -134l-147 20l334 260z" />
    <glyph glyph-name="Tcommaaccent" unicode="&#x162;" horiz-adv-x="994" 
d="M582 0h-170v1215h-391v150h953v-150h-392v-1215zM413 -119h166l-155 -361h-77z" />
    <glyph glyph-name="tcommaaccent" unicode="&#x163;" horiz-adv-x="630" 
d="M615 108v-124q-83 -11 -144 -11q-293 0 -293 306v608h-179v123h179l7 254l146 14v-268h226v-123h-226v-634q0 -156 162 -156q54 0 122 11zM325 -109h166l-155 -361h-77z" />
    <glyph glyph-name="Tcaron" unicode="&#x164;" horiz-adv-x="994" 
d="M582 0h-170v1215h-391v150h953v-150h-392v-1215zM166 1741l141 20l191 -133l184 133l147 -20l-334 -259z" />
    <glyph glyph-name="tcaron" unicode="&#x165;" horiz-adv-x="671" 
d="M615 108v-124q-83 -11 -144 -11q-293 0 -293 306v608h-179v123h179l7 254l146 14v-268h226v-123h-226v-634q0 -156 162 -156q54 0 122 11zM506 1499h165l-155 -379h-77z" />
    <glyph glyph-name="Tbar" unicode="&#x166;" horiz-adv-x="994" 
d="M142 802v137h270v276h-391v150h953v-150h-392v-276h270v-137h-270v-802h-170v802h-270z" />
    <glyph glyph-name="tbar" unicode="&#x167;" horiz-adv-x="630" 
d="M549 726v-116h-218v-357q0 -156 162 -156q54 0 122 11v-124q-85 -11 -148 -11q-289 0 -289 306v331h-171v116h171v161h-179v123h179l7 254l146 14v-268h226v-123h-226v-161h218z" />
    <glyph glyph-name="Utilde" unicode="&#x168;" horiz-adv-x="1241" 
d="M949 1365h142v-891q0 -268 -131.5 -384.5t-344.5 -116.5q-237 0 -351 120t-114 381v891h171v-891q0 -159 37 -224t112 -96t157 -31q158 0 240 83t82 268v891zM906 1701l77 -72q-106 -101 -202 -101q-49 0 -129 35q-87 38 -134 38q-81 0 -135 -66l-84 58q88 128 224 128
q46 0 128 -34q89 -37 128 -37q65 0 127 51z" />
    <glyph glyph-name="utilde" unicode="&#x169;" horiz-adv-x="1109" 
d="M952 0h-141v193q-108 -220 -322 -220q-155 0 -243.5 102t-88.5 290v645h157v-645q0 -150 62.5 -206.5t137.5 -56.5q76 0 137.5 43t102.5 122.5t41 173.5v569h157v-1010zM819 1380l77 -72q-106 -101 -202 -101q-49 0 -129 35q-87 38 -134 38q-81 0 -135 -66l-84 58
q88 128 224 128q46 0 128 -34q89 -37 128 -37q65 0 127 51z" />
    <glyph glyph-name="Umacron" unicode="&#x16a;" horiz-adv-x="1241" 
d="M949 1365h142v-891q0 -268 -131.5 -384.5t-344.5 -116.5q-237 0 -351 120t-114 381v891h171v-891q0 -159 37 -224t112 -96t157 -31q158 0 240 83t82 268v891zM937 1659v-109h-621v109h621z" />
    <glyph glyph-name="umacron" unicode="&#x16b;" horiz-adv-x="1109" 
d="M952 0h-141v193q-108 -220 -322 -220q-155 0 -243.5 102t-88.5 290v645h157v-645q0 -150 62.5 -206.5t137.5 -56.5q76 0 137.5 43t102.5 122.5t41 173.5v569h157v-1010zM865 1345v-109h-621v109h621z" />
    <glyph glyph-name="Ubreve" unicode="&#x16c;" horiz-adv-x="1241" 
d="M949 1365h142v-891q0 -268 -131.5 -384.5t-344.5 -116.5q-237 0 -351 120t-114 381v891h171v-891q0 -159 37 -224t112 -96t157 -31q158 0 240 83t82 268v891zM321 1759h114q25 -136 181 -136q163 0 189 136h114q-43 -256 -286 -256q-275 0 -312 256z" />
    <glyph glyph-name="ubreve" unicode="&#x16d;" horiz-adv-x="1109" 
d="M952 0h-141v193q-108 -220 -322 -220q-155 0 -243.5 102t-88.5 290v645h157v-645q0 -150 62.5 -206.5t137.5 -56.5q76 0 137.5 43t102.5 122.5t41 173.5v569h157v-1010zM255 1438h114q25 -136 181 -136q163 0 189 136h114q-43 -256 -286 -256q-275 0 -312 256z" />
    <glyph glyph-name="Uring" unicode="&#x16e;" horiz-adv-x="1241" 
d="M949 1365h142v-891q0 -268 -131.5 -384.5t-344.5 -116.5q-237 0 -351 120t-114 381v891h171v-891q0 -159 37 -224t112 -96t157 -31q158 0 240 83t82 268v891zM800 1634q0 -71 -50.5 -121.5t-121.5 -50.5t-123 51t-52 122q0 70 51.5 122t127.5 52q67 0 117.5 -51.5
t50.5 -123.5zM717 1634q0 38 -26 65t-59 27q-43 0 -69.5 -27t-26.5 -63q0 -38 27 -65t65 -27q37 0 63 26.5t26 63.5z" />
    <glyph glyph-name="uring" unicode="&#x16f;" horiz-adv-x="1109" 
d="M952 0h-141v193q-108 -220 -322 -220q-155 0 -243.5 102t-88.5 290v645h157v-645q0 -150 62.5 -206.5t137.5 -56.5q76 0 137.5 43t102.5 122.5t41 173.5v569h157v-1010zM728 1326q0 -71 -50.5 -121.5t-121.5 -50.5t-123 51t-52 122q0 70 51.5 122t127.5 52
q67 0 117.5 -51.5t50.5 -123.5zM645 1326q0 38 -26 65t-59 27q-43 0 -69.5 -27t-26.5 -63q0 -38 27 -65t65 -27q37 0 63 26.5t26 63.5z" />
    <glyph glyph-name="Uhungarumlaut" unicode="&#x170;" horiz-adv-x="1241" 
d="M949 1365h142v-891q0 -268 -131.5 -384.5t-344.5 -116.5q-237 0 -351 120t-114 381v891h171v-891q0 -159 37 -224t112 -96t157 -31q158 0 240 83t82 268v891zM739 1686l-322 -198l-51 78l303 231zM1066 1686l-322 -198l-50 78l303 231z" />
    <glyph glyph-name="uhungarumlaut" unicode="&#x171;" horiz-adv-x="1109" 
d="M952 0h-141v193q-108 -220 -322 -220q-155 0 -243.5 102t-88.5 290v645h157v-645q0 -150 62.5 -206.5t137.5 -56.5q76 0 137.5 43t102.5 122.5t41 173.5v569h157v-1010zM674 1365l-322 -198l-51 78l303 231zM1001 1365l-322 -198l-50 78l303 231z" />
    <glyph glyph-name="Uogonek" unicode="&#x172;" horiz-adv-x="1241" 
d="M982 -233l19 -69q-67 -35 -151 -35q-92 0 -142 42t-50 112q0 113 132 179q-86 -23 -176 -23q-226 0 -345 116t-119 385v891h171v-891q0 -159 37 -224t112 -96t157 -31q158 0 240 83t82 268v891h142v-891q0 -167 -40 -252t-141 -184q-78 -77 -104.5 -115.5t-26.5 -77.5
q0 -92 116 -92q43 0 87 14z" />
    <glyph glyph-name="uogonek" unicode="&#x173;" horiz-adv-x="1109" 
d="M857 0h-46v193q-108 -220 -322 -220q-155 0 -243.5 102t-88.5 290v645h157v-645q0 -150 62.5 -206.5t137.5 -56.5q76 0 137.5 43t102.5 122.5t41 173.5v569h157v-1010q-91 -60 -108.5 -89t-17.5 -56q0 -86 112 -86q38 0 86 13l19 -63q-66 -32 -148 -32q-90 0 -139 38
t-49 102q0 110 150 173z" />
    <glyph glyph-name="Wcircumflex" unicode="&#x174;" horiz-adv-x="1674" 
d="M1635 1365l-329 -1365h-171l-298 1059l-277 -1059h-175l-346 1365h177l273 -1106l290 1106h138l313 -1106l255 1106h150zM1182 1515l-141 -20l-191 134l-184 -134l-147 20l334 260z" />
    <glyph glyph-name="wcircumflex" unicode="&#x175;" horiz-adv-x="1360" 
d="M1321 1010l-291 -1010h-127l-226 750l-207 -750h-129l-303 1010h158l219 -753l210 753h115l227 -756l227 756h127zM1011 1194l-141 -20l-191 134l-184 -134l-147 20l334 260z" />
    <glyph glyph-name="Ycircumflex" unicode="&#x176;" horiz-adv-x="1045" 
d="M1065 1365l-457 -791v-574h-171v574l-457 791h201l363 -628l365 628h156zM868 1515l-141 -20l-191 134l-184 -134l-147 20l334 260z" />
    <glyph glyph-name="ycircumflex" unicode="&#x177;" horiz-adv-x="850" 
d="M850 1011l-405 -1128q-88 -244 -281 -244q-61 0 -135 21v123q61 -14 105 -14q75 0 125.5 43t100.5 208l-349 991h160l270 -759l277 759h132zM766 1194l-141 -20l-191 134l-184 -134l-147 20l334 260z" />
    <glyph glyph-name="Zacute" unicode="&#x179;" horiz-adv-x="1066" 
d="M1019 146v-146h-963v146l741 1071h-707v139h907v-114l-750 -1096h772zM870 1677l-414 -189l-43 81l396 228z" />
    <glyph glyph-name="zacute" unicode="&#x17a;" horiz-adv-x="867" 
d="M812 121v-121h-744v121l537 766h-496v123h703v-85l-556 -804h556zM778 1356l-414 -189l-43 81l396 228z" />
    <glyph glyph-name="Zdotaccent" unicode="&#x17b;" horiz-adv-x="1066" 
d="M1019 146v-146h-963v146l741 1071h-707v139h907v-114l-750 -1096h772zM650 1628q0 -43 -31.5 -73t-74.5 -30t-74.5 30t-31.5 72q0 43 31.5 72.5t72.5 29.5q45 0 76.5 -29.5t31.5 -71.5z" />
    <glyph glyph-name="zdotaccent" unicode="&#x17c;" horiz-adv-x="867" 
d="M812 121v-121h-744v121l537 766h-496v123h703v-85l-556 -804h556zM564 1304q0 -43 -31.5 -73t-74.5 -30t-74.5 30t-31.5 72q0 43 31.5 72.5t72.5 29.5q45 0 76.5 -29.5t31.5 -71.5z" />
    <glyph glyph-name="longs" unicode="&#x17f;" horiz-adv-x="1201" 
d="M629 0h-157v1010q0 218 81 300.5t231 82.5q63 0 144 -14v-125q-51 13 -97 13q-116 0 -159 -50.5t-43 -206.5v-1010z" />
    <glyph glyph-name="Aringacute" unicode="&#x1fa;" horiz-adv-x="1097" 
d="M771 1834l-415 -175l-43 81l396 214zM449 1362q-80 50 -80 147q0 79 54 131.5t128 52.5q75 0 126.5 -53t51.5 -129q0 -101 -82 -149l443 -1362h-175l-138 399h-505l-122 -399h-143zM550 1613q-37 0 -64.5 -29.5t-27.5 -72.5q0 -37 26.5 -66t65.5 -29q37 0 63.5 27.5
t26.5 68.5q0 40 -26 70.5t-64 30.5zM741 527l-210 656l-212 -656h422z" />
    <glyph glyph-name="aringacute" unicode="&#x1fb;" horiz-adv-x="1083" 
d="M948 0h-156q-9 48 -18 182q-104 -209 -354 -209q-170 0 -261 90t-91 216q0 153 130 251.5t442 98.5q42 0 134 -4q0 120 -18.5 173.5t-78.5 85.5t-158 32q-239 0 -278 -182l-145 25q53 279 446 279q209 0 296.5 -92.5t87.5 -320.5v-429q0 -107 22 -196zM774 505
q-96 6 -146 6q-186 0 -289 -61t-103 -178q0 -74 55.5 -126t160.5 -52q142 0 233.5 103t91.5 242q0 28 -3 66zM709 1292q0 -71 -50.5 -121.5t-121.5 -50.5t-123 51t-52 122q0 70 51.5 122t127.5 52q67 0 117.5 -51.5t50.5 -123.5zM626 1292q0 38 -26 65t-59 27
q-43 0 -69.5 -27t-26.5 -63q0 -38 27 -65t65 -27q37 0 63 26.5t26 63.5zM750 1657l-414 -189l-43 81l396 228z" />
    <glyph glyph-name="AEacute" unicode="&#x1fc;" horiz-adv-x="1856" 
d="M1788 150v-150h-939v422h-459l-252 -422h-165l813 1365h976v-150h-742v-434h600v-139h-600v-492h768zM849 554v662l-385 -662h385zM1505 1677l-414 -189l-43 81l396 228z" />
    <glyph glyph-name="aeacute" unicode="&#x1fd;" horiz-adv-x="1722" 
d="M1484 297l142 -27q-40 -132 -155.5 -214.5t-267.5 -82.5q-277 0 -409 256q-106 -256 -365 -256q-183 0 -274 85.5t-91 214.5q0 159 132.5 256t425.5 97q63 0 139 -7q2 44 2 70q0 226 -256 226q-114 0 -178.5 -51.5t-77.5 -120.5l-149 26q31 136 150 202.5t274 66.5
q244 0 351 -147q127 147 329 147q182 0 306 -131t131 -416h-731q0 -217 91.5 -303t209.5 -86q189 0 271 195zM1472 608q-4 134 -74.5 220.5t-193.5 86.5q-121 0 -200 -87t-86 -220h554zM756 503q-56 9 -128 9q-196 0 -294.5 -64t-98.5 -165q0 -76 54 -128.5t142 -52.5
q127 0 226.5 92.5t99.5 253.5q0 18 -1 55zM1178 1356l-414 -189l-43 81l396 228z" />
    <glyph glyph-name="Oslashacute" unicode="&#x1fe;" horiz-adv-x="1292" 
d="M63 -49l157 241q-135 200 -135 493q0 297 151.5 502.5t412.5 205.5q182 0 326 -114l97 140h146l-158 -233q146 -197 146 -494q0 -284 -146.5 -501.5t-421.5 -217.5q-195 0 -336 125l-95 -147h-144zM876 1162q-91 91 -234 91q-171 0 -274.5 -156t-103.5 -412
q0 -213 68 -350zM404 224q92 -112 241 -112q192 0 287 171t95 409q0 223 -73 363zM889 1677l-414 -189l-43 81l396 228z" />
    <glyph glyph-name="oslashacute" unicode="&#x1ff;" horiz-adv-x="1064" 
d="M184 142q-106 148 -106 368q0 239 131 383.5t325 144.5q149 0 259 -82l90 120h140l-150 -200q112 -149 112 -368q0 -236 -129.5 -385.5t-336.5 -149.5q-158 0 -260 87l-87 -115h-136zM286 279l419 559q-78 70 -176 70q-116 0 -197.5 -95t-81.5 -305q0 -135 36 -229z
M773 743l-425 -565q79 -76 184 -76q119 0 200 99t81 308q0 146 -40 234zM785 1356l-414 -189l-43 81l396 228z" />
    <glyph glyph-name="tonos" unicode="&#x384;" horiz-adv-x="1024" 
d="M277 1365l-264 -294l-75 58l218 320z" />
    <glyph glyph-name="dieresistonos" unicode="&#x385;" horiz-adv-x="1024" 
d="M741 1622l-264 -199l-61 68l225 236zM777 1304q0 -43 -31.5 -73t-74.5 -30t-74.5 30t-31.5 72q0 43 31.5 72.5t73.5 29.5q44 0 75.5 -29.5t31.5 -71.5zM455 1303q0 -42 -31.5 -72t-73.5 -30t-72.5 30t-30.5 71q0 43 30.5 72.5t69.5 29.5q48 0 78 -30t30 -71z" />
    <glyph glyph-name="Alphatonos" unicode="&#x386;" horiz-adv-x="1111" 
d="M1090 0h-175l-138 399h-505l-122 -399h-143l443 1365h195zM741 527l-210 656l-212 -656h422zM320 1365l-264 -294l-75 58l218 320z" />
    <glyph glyph-name="anoteleia" unicode="&#x387;" horiz-adv-x="223" 
d="M223 631v-224h-223v224h223z" />
    <glyph glyph-name="Epsilontonos" unicode="&#x388;" horiz-adv-x="1122" 
d="M1054 150v-150h-883v1365h864v-150h-693v-434h550v-139h-550v-492h712zM104 1365l-264 -294l-75 58l218 320z" />
    <glyph glyph-name="Etatonos" unicode="&#x389;" horiz-adv-x="1316" 
d="M1146 0h-171v650h-633v-650h-171v1365h171v-565h633v565h171v-1365zM109 1365l-264 -294l-75 58l218 320z" />
    <glyph glyph-name="Iotatonos" unicode="&#x38a;" horiz-adv-x="512" 
d="M342 0h-171v1365h171v-1365zM89 1365l-264 -294l-75 58l218 320z" />
    <glyph glyph-name="Omicrontonos" unicode="&#x38c;" horiz-adv-x="1292" 
d="M642 -27q-263 0 -410 204.5t-147 501.5q0 310 154 512t408 202q253 0 406 -198.5t153 -500.5q0 -290 -148.5 -505.5t-415.5 -215.5zM646 112q179 0 280 163t101 420q0 264 -104.5 411t-277.5 147q-175 0 -278 -159t-103 -416q0 -251 104 -408.5t278 -157.5zM233 1365
l-264 -294l-75 58l218 320z" />
    <glyph glyph-name="Upsilontonos" unicode="&#x38e;" horiz-adv-x="1045" 
d="M1065 1365l-457 -791v-574h-171v574l-457 791h201l363 -628l365 628h156zM-54 1365l-264 -294l-75 58l218 320z" />
    <glyph glyph-name="Omegatonos" unicode="&#x38f;" horiz-adv-x="1305" 
d="M58 0v150h326q-299 180 -299 590q0 312 165 482.5t402 170.5t402 -170.5t165 -482.5q0 -410 -298 -590h326v-150h-501v150q294 189 294 593q0 239 -108.5 374.5t-279.5 135.5q-172 0 -280 -136.5t-108 -373.5q0 -404 295 -593v-150h-501zM226 1365l-264 -294l-75 58
l218 320z" />
    <glyph glyph-name="iotadieresistonos" unicode="&#x390;" horiz-adv-x="457" 
d="M150 0v1010h157v-1010h-157zM458 1622l-264 -199l-61 68l225 236zM494 1304q0 -43 -31.5 -73t-74.5 -30t-74.5 30t-31.5 72q0 43 31.5 72.5t73.5 29.5q44 0 75.5 -29.5t31.5 -71.5zM172 1303q0 -42 -31.5 -72t-73.5 -30t-72.5 30t-30.5 71q0 43 30.5 72.5t69.5 29.5
q48 0 78 -30t30 -71z" />
    <glyph glyph-name="Alpha" unicode="&#x391;" horiz-adv-x="1097" 
d="M1090 0h-175l-138 399h-505l-122 -399h-143l443 1365h195zM741 527l-210 656l-212 -656h422z" />
    <glyph glyph-name="Beta" unicode="&#x392;" horiz-adv-x="1238" 
d="M171 0v1365h540q204 0 302.5 -100t98.5 -232q0 -232 -242 -308q144 -37 214 -132t70 -215q0 -161 -108.5 -269.5t-334.5 -108.5h-540zM336 780h297q185 0 247 70.5t62 165.5q0 94 -66.5 152t-198.5 58h-341v-446zM336 150h366q134 0 207 65t73 169q0 73 -33 135.5
t-93 96.5t-179 34h-341v-500z" />
    <glyph glyph-name="Gamma" unicode="&#x393;" horiz-adv-x="912" 
d="M171 0v1365h742v-150h-571v-1215h-171z" />
    <glyph glyph-name="Delta" unicode="&#x394;" horiz-adv-x="1199" 
d="M7 0l473 1365h229l483 -1365h-1185zM205 150h742l-360 1080h-20z" />
    <glyph glyph-name="Epsilon" unicode="&#x395;" horiz-adv-x="1122" 
d="M1054 150v-150h-883v1365h864v-150h-693v-434h550v-139h-550v-492h712z" />
    <glyph glyph-name="Zeta" unicode="&#x396;" horiz-adv-x="1066" 
d="M1019 146v-146h-963v146l741 1071h-707v139h907v-114l-750 -1096h772z" />
    <glyph glyph-name="Eta" unicode="&#x397;" horiz-adv-x="1316" 
d="M1146 0h-171v650h-633v-650h-171v1365h171v-565h633v565h171v-1365z" />
    <glyph glyph-name="Theta" unicode="&#x398;" horiz-adv-x="1292" 
d="M649 1393q263 0 410 -205t147 -502q0 -308 -154 -510.5t-408 -202.5q-253 0 -406 198t-153 501q0 197 69.5 363t193.5 262t301 96zM645 1253q-162 0 -271.5 -149t-109.5 -433q0 -264 104 -411.5t279 -147.5t277.5 159t102.5 416q0 250 -103.5 408t-278.5 158zM838 779
v-150h-382v150h382z" />
    <glyph glyph-name="Iota" unicode="&#x399;" horiz-adv-x="512" 
d="M342 0h-171v1365h171v-1365z" />
    <glyph glyph-name="Kappa" unicode="&#x39a;" horiz-adv-x="1287" 
d="M1250 0h-187l-408 753l-313 -389v-364h-171v1365h171v-792l617 792h185l-370 -478z" />
    <glyph glyph-name="Lambda" unicode="&#x39b;" horiz-adv-x="1145" 
d="M162 0h-155l443 1365h216l472 -1365h-202l-389 1183h-16z" />
    <glyph glyph-name="Mu" unicode="&#x39c;" horiz-adv-x="1659" 
d="M1489 0h-166v1192l-444 -1192h-116l-447 1192v-1192h-145v1365h254l411 -1092l403 1092h250v-1365z" />
    <glyph glyph-name="Nu" unicode="&#x39d;" horiz-adv-x="1346" 
d="M1176 0h-166l-706 1190l2 -90q3 -51 3 -86v-1014h-138v1365h214l660 -1113l-2 95q-2 56 -2 99v919h135v-1365z" />
    <glyph glyph-name="Xi" unicode="&#x39e;" horiz-adv-x="1039" 
d="M79 1215v150h882v-150h-882zM176 649v150h685v-150h-685zM79 0v150h882v-150h-882z" />
    <glyph glyph-name="Omicron" unicode="&#x39f;" horiz-adv-x="1292" 
d="M642 -27q-263 0 -410 204.5t-147 501.5q0 310 154 512t408 202q253 0 406 -198.5t153 -500.5q0 -290 -148.5 -505.5t-415.5 -215.5zM646 112q179 0 280 163t101 420q0 264 -104.5 411t-277.5 147q-175 0 -278 -159t-103 -416q0 -251 104 -408.5t278 -157.5z" />
    <glyph glyph-name="Pi" unicode="&#x3a0;" horiz-adv-x="1274" 
d="M179 0v1365h916v-1365h-170v1215h-575v-1215h-171z" />
    <glyph glyph-name="Rho" unicode="&#x3a1;" horiz-adv-x="1145" 
d="M342 0h-171v1365h484q227 0 335 -123.5t108 -281.5q0 -176 -117.5 -291t-307.5 -115h-331v-554zM342 696h314q121 0 195 72.5t74 191.5q0 102 -66 182t-191 80h-326v-526z" />
    <glyph glyph-name="Sigma" unicode="&#x3a3;" horiz-adv-x="1001" 
d="M84 0v128l427 584l-406 525v128h816v-136h-609l399 -488l-437 -591h703v-150h-893z" />
    <glyph glyph-name="Tau" unicode="&#x3a4;" horiz-adv-x="994" 
d="M582 0h-170v1215h-391v150h953v-150h-392v-1215z" />
    <glyph glyph-name="Upsilon" unicode="&#x3a5;" horiz-adv-x="1045" 
d="M1065 1365l-457 -791v-574h-171v574l-457 791h201l363 -628l365 628h156z" />
    <glyph glyph-name="Phi" unicode="&#x3a6;" horiz-adv-x="1496" 
d="M669 126q-293 27 -430 176t-137 375q0 244 140 390.5t427 172.5v166h157v-166q293 -27 430.5 -176t137.5 -374q0 -245 -140.5 -391.5t-427.5 -172.5v-167h-157v167zM826 252q389 50 389 437q0 374 -389 425v-862zM669 1114q-388 -48 -388 -437q0 -374 388 -425v862z" />
    <glyph glyph-name="Chi" unicode="&#x3a7;" horiz-adv-x="1065" 
d="M1005 1365l-383 -625l438 -740h-193l-345 582l-358 -582h-159l437 706l-389 659h191l299 -504l306 504h156z" />
    <glyph glyph-name="Psi" unicode="&#x3a8;" horiz-adv-x="1559" 
d="M694 0v260q-235 17 -350 98.5t-153 208t-38 392.5v406h171v-406q0 -224 20 -320.5t105.5 -163.5t244.5 -76v966h171v-966q158 8 241 72.5t106 160.5t23 327v406h171v-406q0 -262 -34.5 -388.5t-155.5 -210t-351 -100.5v-260h-171z" />
    <glyph glyph-name="Omega" unicode="&#x3a9;" horiz-adv-x="1305" 
d="M58 0v150h326q-299 180 -299 590q0 312 165 482.5t402 170.5t402 -170.5t165 -482.5q0 -410 -298 -590h326v-150h-501v150q294 189 294 593q0 239 -108.5 374.5t-279.5 135.5q-172 0 -280 -136.5t-108 -373.5q0 -404 295 -593v-150h-501z" />
    <glyph glyph-name="Iotadieresis" unicode="&#x3aa;" horiz-adv-x="512" 
d="M342 0h-171v1365h171v-1365zM543 1625q0 -43 -31.5 -73t-74.5 -30t-74.5 30t-31.5 72q0 43 31.5 72.5t73.5 29.5q44 0 75.5 -29.5t31.5 -71.5zM221 1624q0 -42 -31.5 -72t-73.5 -30t-72.5 30t-30.5 71q0 43 30.5 72.5t69.5 29.5q48 0 78 -30t30 -71z" />
    <glyph glyph-name="Upsilondieresis" unicode="&#x3ab;" horiz-adv-x="1045" 
d="M1065 1365l-457 -791v-574h-171v574l-457 791h201l363 -628l365 628h156zM801 1625q0 -43 -31.5 -73t-74.5 -30t-74.5 30t-31.5 72q0 43 31.5 72.5t73.5 29.5q44 0 75.5 -29.5t31.5 -71.5zM479 1624q0 -42 -31.5 -72t-73.5 -30t-72.5 30t-30.5 71q0 43 30.5 72.5
t69.5 29.5q48 0 78 -30t30 -71z" />
    <glyph glyph-name="alphatonos" unicode="&#x3ac;" horiz-adv-x="1193" 
d="M1146 0h-172l-124 341q-128 -368 -373 -368q-176 0 -287 150t-111 375q0 248 119.5 394t302.5 146q229 0 345 -316l99 288h156l-170 -479zM793 531q-68 195 -133.5 286t-157.5 91q-102 0 -176.5 -105.5t-74.5 -303.5q0 -179 73 -288t177 -109q84 0 149.5 90t142.5 339z
M834 1356l-414 -189l-43 81l396 228z" />
    <glyph glyph-name="epsilontonos" unicode="&#x3ad;" horiz-adv-x="909" 
d="M564 593v-131q-133 0 -183 -10t-85.5 -49.5t-35.5 -108.5q0 -92 60 -142t147 -50q207 0 266 224l148 -26q-32 -138 -138.5 -232.5t-291.5 -94.5q-180 0 -271.5 93.5t-91.5 219.5q0 189 213 249q-187 77 -187 233q0 113 92 191.5t267 78.5q165 0 260.5 -82.5t115.5 -202.5
l-146 -27q-40 182 -230 182q-187 0 -187 -154q0 -79 56 -120t222 -41zM733 1356l-414 -189l-43 81l396 228z" />
    <glyph glyph-name="etatonos" unicode="&#x3ae;" horiz-adv-x="1090" 
d="M946 -341h-157v977q0 161 -57 214t-136 53q-127 0 -208 -98t-81 -251v-554h-157v1010h146v-186q123 214 330 214q119 0 192.5 -55.5t100.5 -135.5t27 -263v-925zM817 1356l-414 -189l-43 81l396 228z" />
    <glyph glyph-name="iotatonos" unicode="&#x3af;" horiz-adv-x="457" 
d="M151 0v1010h157v-1010h-157zM478 1356l-414 -189l-43 81l396 228z" />
    <glyph glyph-name="upsilondieresistonos" unicode="&#x3b0;" horiz-adv-x="1039" 
d="M293 1010v-639q0 -108 16 -157.5t70.5 -80.5t139.5 -31q82 0 137 30t72 79t17 160v639h157v-639q0 -160 -37.5 -236t-119 -119t-219.5 -43q-124 0 -212.5 33.5t-133 115t-44.5 249.5v639h157zM748 1622l-264 -199l-61 68l225 236zM784 1304q0 -43 -31.5 -73t-74.5 -30
t-74.5 30t-31.5 72q0 43 31.5 72.5t73.5 29.5q44 0 75.5 -29.5t31.5 -71.5zM462 1303q0 -42 -31.5 -72t-73.5 -30t-72.5 30t-30.5 71q0 43 30.5 72.5t69.5 29.5q48 0 78 -30t30 -71z" />
    <glyph glyph-name="alpha" unicode="&#x3b1;" horiz-adv-x="1193" 
d="M1146 0h-172l-124 341q-128 -368 -373 -368q-176 0 -287 150t-111 375q0 248 119.5 394t302.5 146q229 0 345 -316l99 288h156l-170 -479zM793 531q-68 195 -133.5 286t-157.5 91q-102 0 -176.5 -105.5t-74.5 -303.5q0 -179 73 -288t177 -109q84 0 149.5 90t142.5 339z
" />
    <glyph glyph-name="beta" unicode="&#x3b2;" horiz-adv-x="1106" 
d="M164 -341v1284q0 177 33 264t117.5 136.5t223.5 49.5q189 0 291 -89.5t102 -230.5q0 -202 -206 -297q292 -83 292 -377q0 -184 -114.5 -305t-307.5 -121q-188 0 -274 120v-434h-157zM321 203q86 -107 226 -107q137 0 217.5 87t80.5 225q0 131 -73.5 212.5t-238.5 81.5
v122q235 3 235 230q0 100 -58.5 160.5t-172.5 60.5q-85 0 -132 -34t-65.5 -91t-18.5 -199v-748z" />
    <glyph glyph-name="gamma" unicode="&#x3b3;" horiz-adv-x="875" 
d="M358 -341v373l-358 978h178l268 -783l264 783h151l-346 -978v-373h-157z" />
    <glyph glyph-name="delta" unicode="&#x3b4;" horiz-adv-x="1049" 
d="M850 1365v-123h-443l185 -142q220 -168 294.5 -285.5t74.5 -312.5q0 -245 -115.5 -387t-314.5 -142q-202 0 -322 135.5t-120 366.5q0 175 59.5 283.5t152 159.5t224.5 54l-330 270v123h655zM525 892q-113 0 -188.5 -95t-75.5 -296q0 -212 76 -305.5t189 -93.5
q119 0 191 99t72 298q0 214 -77 303.5t-187 89.5z" />
    <glyph glyph-name="epsilon" unicode="&#x3b5;" horiz-adv-x="909" 
d="M564 593v-131q-133 0 -183 -10t-85.5 -49.5t-35.5 -108.5q0 -92 60 -142t147 -50q207 0 266 224l148 -26q-32 -138 -138.5 -232.5t-291.5 -94.5q-180 0 -271.5 93.5t-91.5 219.5q0 189 213 249q-187 77 -187 233q0 113 92 191.5t267 78.5q165 0 260.5 -82.5t115.5 -202.5
l-146 -27q-40 182 -230 182q-187 0 -187 -154q0 -79 56 -120t222 -41z" />
    <glyph glyph-name="zeta" unicode="&#x3b6;" horiz-adv-x="741" 
d="M123 1242v123h567v-92q-430 -430 -430 -862q0 -100 25.5 -159t68 -80t147.5 -27q125 -8 164 -58.5t39 -127.5q0 -125 -82 -314l-150 27q76 165 76 243q0 45 -29.5 62t-108.5 20q-130 6 -194.5 56t-96 142.5t-31.5 199.5q0 241 139.5 475t289.5 372h-394z" />
    <glyph glyph-name="eta" unicode="&#x3b7;" horiz-adv-x="1090" 
d="M946 -341h-157v977q0 161 -57 214t-136 53q-127 0 -208 -98t-81 -251v-554h-157v1010h146v-186q123 214 330 214q119 0 192.5 -55.5t100.5 -135.5t27 -263v-925z" />
    <glyph glyph-name="theta" unicode="&#x3b8;" horiz-adv-x="1073" 
d="M536 1393q203 0 320.5 -177t117.5 -533q0 -358 -118 -534t-320 -176q-131 0 -233.5 80t-153 242t-50.5 388q0 255 57.5 410t156.5 227.5t223 72.5zM262 771h549q-14 285 -91.5 392.5t-183.5 107.5q-105 0 -182.5 -107.5t-91.5 -392.5zM262 656q1 -293 77 -427.5
t197 -134.5q112 0 190 119t85 443h-549z" />
    <glyph glyph-name="iota" unicode="&#x3b9;" horiz-adv-x="457" 
d="M150 0v1010h157v-1010h-157z" />
    <glyph glyph-name="kappa" unicode="&#x3ba;" horiz-adv-x="986" 
d="M586 672l366 -672h-185l-291 556l-169 -177v-379h-157v1010h157v-331q0 -70 -7 -150q38 48 99 114l335 367h174z" />
    <glyph glyph-name="lambda" unicode="&#x3bb;" horiz-adv-x="846" 
d="M4 0l337 941l-149 424h165l482 -1365h-169l-262 764l-258 -764h-146z" />
    <glyph glyph-name="mu" unicode="&#x3bc;" horiz-adv-x="1095" 
d="M150 -341v1351h157v-566q0 -111 21 -174t77.5 -110.5t136.5 -47.5q246 0 246 344v554h157v-1010h-143v158q-89 -185 -255 -185q-159 0 -240 158v-472h-157z" />
    <glyph glyph-name="nu" unicode="&#x3bd;" horiz-adv-x="922" 
d="M897 1010l-349 -1010h-163l-361 1010h174l281 -821l278 821h140z" />
    <glyph glyph-name="xi" unicode="&#x3be;" horiz-adv-x="840" 
d="M615 -328q56 145 56 229q0 56 -33.5 75.5t-138.5 24.5q-135 7 -221.5 42t-143 120.5t-56.5 216.5q0 299 304 364q-231 56 -231 239q0 94 69 167.5t183 103.5h-268v111h675v-116h-116q-201 0 -291 -69t-90 -173q0 -210 318 -210h58v-121h-58q-130 0 -208 -25.5
t-125.5 -93.5t-47.5 -167q0 -94 52 -160.5t202 -74.5q140 -6 196 -18.5t94.5 -60.5t38.5 -137q0 -136 -64 -294z" />
    <glyph glyph-name="omicron" unicode="&#x3bf;" horiz-adv-x="1064" 
d="M519 -27q-208 0 -324.5 154t-116.5 382q0 241 131 385t326 144q209 0 329.5 -151.5t120.5 -378.5q0 -236 -130 -385.5t-336 -149.5zM531 102q120 0 201 99t81 308q0 210 -85 304.5t-199 94.5q-117 0 -198 -95.5t-81 -302.5q0 -219 81 -313.5t200 -94.5z" />
    <glyph glyph-name="pi" unicode="&#x3c0;" horiz-adv-x="1094" 
d="M188 0v887h-126v123h972v-123h-127v-887h-157v887h-405v-887h-157z" />
    <glyph glyph-name="rho" unicode="&#x3c1;" horiz-adv-x="1084" 
d="M123 -341v712q0 242 30.5 365t137.5 212.5t268 89.5q208 0 327.5 -142.5t119.5 -384.5q0 -241 -114.5 -381.5t-291.5 -140.5q-216 0 -320 219v-549h-157zM557 908q-265 0 -265 -382q0 -209 77 -307.5t198 -98.5q122 0 194.5 100.5t72.5 294.5q0 393 -277 393z" />
    <glyph glyph-name="sigma1" unicode="&#x3c2;" horiz-adv-x="925" 
d="M656 -328q56 107 56 228q0 62 -23.5 86t-101.5 35q-196 27 -297.5 82.5t-156 164t-54.5 260.5q0 227 109 368.5t307 141.5q322 0 383 -353l-151 -27q-36 250 -230 250q-114 0 -184.5 -91.5t-70.5 -280.5q0 -172 76.5 -258.5t296.5 -116.5q115 -16 161 -35.5t74 -67
t28 -131.5q0 -128 -68 -282z" />
    <glyph glyph-name="sigma" unicode="&#x3c3;" horiz-adv-x="1044" 
d="M1018 1010v-122h-254q187 -144 187 -398q0 -246 -122 -381.5t-316 -135.5q-198 0 -316.5 140.5t-118.5 376.5q0 244 121.5 389t326.5 145q54 0 115 -14h377zM515 894q-111 0 -188 -93.5t-77 -299.5q0 -210 79.5 -304.5t187.5 -94.5q110 0 186 96t76 301q0 215 -76.5 305
t-187.5 90z" />
    <glyph glyph-name="tau" unicode="&#x3c4;" horiz-adv-x="828" 
d="M333 0v887h-303v123h763v-123h-303v-887h-157z" />
    <glyph glyph-name="upsilon" unicode="&#x3c5;" horiz-adv-x="1039" 
d="M293 1010v-639q0 -108 16 -157.5t70.5 -80.5t139.5 -31q82 0 137 30t72 79t17 160v639h157v-639q0 -160 -37.5 -236t-119 -119t-219.5 -43q-124 0 -212.5 33.5t-133 115t-44.5 249.5v639h157z" />
    <glyph glyph-name="phi" unicode="&#x3c6;" horiz-adv-x="1283" 
d="M567 -341v314q-244 23 -361 170t-117 368q0 333 265 461l63 -121q-164 -94 -164 -341q0 -365 314 -414v932q44 10 93 10q253 0 394 -153t141 -383q0 -212 -125.5 -363t-352.5 -166v-314h-150zM717 96q314 42 314 418q0 190 -87.5 294t-226.5 111v-823z" />
    <glyph glyph-name="chi" unicode="&#x3c7;" horiz-adv-x="917" 
d="M359 391l-316 619h177l252 -501l259 501h153l-340 -641l361 -710h-179l-285 609l-304 -609h-160z" />
    <glyph glyph-name="psi" unicode="&#x3c8;" horiz-adv-x="1393" 
d="M618 -341v314q-169 5 -276 58.5t-149.5 148t-42.5 282.5v548h157v-548q0 -173 33 -234.5t102 -92.5t176 -32v907h157v-907q108 1 181.5 35.5t101.5 100.5t28 223v548h157v-548q0 -173 -36.5 -269t-143 -155.5t-288.5 -64.5v-314h-157z" />
    <glyph glyph-name="omega" unicode="&#x3c9;" horiz-adv-x="1377" 
d="M767 760v-365q0 -194 42 -243.5t98 -49.5q92 0 150.5 86t58.5 280q0 285 -161 490l111 80q223 -236 223 -552q0 -264 -111.5 -388.5t-262.5 -124.5q-153 0 -226 172q-74 -172 -226 -172q-157 0 -265.5 129t-108.5 377q0 329 223 559l111 -80q-162 -205 -162 -490
q0 -190 58.5 -278t151.5 -88q56 0 97.5 49.5t41.5 243.5v365h157z" />
    <glyph glyph-name="iotadieresis" unicode="&#x3ca;" horiz-adv-x="457" 
d="M150 0v1010h157v-1010h-157zM494 1304q0 -43 -31.5 -73t-74.5 -30t-74.5 30t-31.5 72q0 43 31.5 72.5t73.5 29.5q44 0 75.5 -29.5t31.5 -71.5zM172 1303q0 -42 -31.5 -72t-73.5 -30t-72.5 30t-30.5 71q0 43 30.5 72.5t69.5 29.5q48 0 78 -30t30 -71z" />
    <glyph glyph-name="upsilondieresis" unicode="&#x3cb;" horiz-adv-x="1039" 
d="M293 1010v-639q0 -108 16 -157.5t70.5 -80.5t139.5 -31q82 0 137 30t72 79t17 160v639h157v-639q0 -160 -37.5 -236t-119 -119t-219.5 -43q-124 0 -212.5 33.5t-133 115t-44.5 249.5v639h157zM784 1304q0 -43 -31.5 -73t-74.5 -30t-74.5 30t-31.5 72q0 43 31.5 72.5
t73.5 29.5q44 0 75.5 -29.5t31.5 -71.5zM462 1303q0 -42 -31.5 -72t-73.5 -30t-72.5 30t-30.5 71q0 43 30.5 72.5t69.5 29.5q48 0 78 -30t30 -71z" />
    <glyph glyph-name="omicrontonos" unicode="&#x3cc;" horiz-adv-x="1064" 
d="M519 -27q-208 0 -324.5 154t-116.5 382q0 241 131 385t326 144q209 0 329.5 -151.5t120.5 -378.5q0 -236 -130 -385.5t-336 -149.5zM531 102q120 0 201 99t81 308q0 210 -85 304.5t-199 94.5q-117 0 -198 -95.5t-81 -302.5q0 -219 81 -313.5t200 -94.5zM780 1356
l-414 -189l-43 81l396 228z" />
    <glyph glyph-name="upsilontonos" unicode="&#x3cd;" horiz-adv-x="1039" 
d="M293 1010v-639q0 -108 16 -157.5t70.5 -80.5t139.5 -31q82 0 137 30t72 79t17 160v639h157v-639q0 -160 -37.5 -236t-119 -119t-219.5 -43q-124 0 -212.5 33.5t-133 115t-44.5 249.5v639h157zM768 1356l-414 -189l-43 81l396 228z" />
    <glyph glyph-name="omegatonos" unicode="&#x3ce;" horiz-adv-x="1377" 
d="M767 760v-365q0 -194 42 -243.5t98 -49.5q92 0 150.5 86t58.5 280q0 285 -161 490l111 80q223 -236 223 -552q0 -264 -111.5 -388.5t-262.5 -124.5q-153 0 -226 172q-74 -172 -226 -172q-157 0 -265.5 129t-108.5 377q0 329 223 559l111 -80q-162 -205 -162 -490
q0 -190 58.5 -278t151.5 -88q56 0 97.5 49.5t41.5 243.5v365h157zM938 1356l-414 -189l-43 81l396 228z" />
    <glyph glyph-name="afii10023" unicode="&#x401;" horiz-adv-x="1095" 
d="M1054 150v-150h-883v1365h864v-150h-693v-434h550v-139h-550v-492h712zM881 1625q0 -43 -31.5 -73t-74.5 -30t-74.5 30t-31.5 72q0 43 31.5 72.5t73.5 29.5q44 0 75.5 -29.5t31.5 -71.5zM559 1624q0 -42 -31.5 -72t-73.5 -30t-72.5 30t-30.5 71q0 43 30.5 72.5t69.5 29.5
q48 0 78 -30t30 -71z" />
    <glyph glyph-name="afii10051" unicode="&#x402;" horiz-adv-x="1256" 
d="M233 0v1215h-233v150h944v-150h-541v-509q124 193 353 193q199 0 295 -109.5t96 -470.5q0 -414 -109 -543.5t-327 -130.5l-11 147q160 0 218.5 96t58.5 383q0 299 -51.5 394.5t-193.5 95.5q-158 0 -243.5 -87.5t-85.5 -246.5v-427h-170z" />
    <glyph glyph-name="afii10052" unicode="&#x403;" horiz-adv-x="872" 
d="M171 0v1365h701v-150h-530v-1215h-171zM786 1677l-414 -189l-43 81l396 228z" />
    <glyph glyph-name="afii10053" unicode="&#x404;" horiz-adv-x="1206" 
d="M801 786v-150h-527q2 -236 106.5 -377.5t281.5 -141.5q248 0 341 276l162 -34q-120 -386 -508 -386q-290 0 -431 217.5t-141 504.5q0 305 147.5 501.5t406.5 196.5q389 0 506 -367l-165 -33q-88 255 -334 255q-169 0 -264.5 -133t-107.5 -329h527z" />
    <glyph glyph-name="afii10054" unicode="&#x405;" horiz-adv-x="1166" 
d="M21 363l154 35q93 -279 403 -279q162 0 244 68.5t82 183.5q0 87 -62.5 140t-144.5 73l-273 68q-106 27 -173.5 65.5t-114.5 118.5t-47 183q0 171 129 272.5t331 101.5q372 0 489 -337l-155 -46q-27 120 -127 181.5t-213 61.5q-112 0 -199.5 -59t-87.5 -167
q0 -151 222 -204l255 -61q350 -84 350 -377q0 -177 -131.5 -294.5t-370.5 -117.5q-424 0 -560 390z" />
    <glyph glyph-name="afii10055" unicode="&#x406;" horiz-adv-x="512" 
d="M342 0h-171v1365h171v-1365z" />
    <glyph glyph-name="afii10056" unicode="&#x407;" horiz-adv-x="512" 
d="M342 0h-171v1365h171v-1365zM543 1625q0 -43 -31.5 -73t-74.5 -30t-74.5 30t-31.5 72q0 43 31.5 72.5t73.5 29.5q44 0 75.5 -29.5t31.5 -71.5zM221 1624q0 -42 -31.5 -72t-73.5 -30t-72.5 30t-30.5 71q0 43 30.5 72.5t69.5 29.5q48 0 78 -30t30 -71z" />
    <glyph glyph-name="afii10057" unicode="&#x408;" horiz-adv-x="765" 
d="M608 1365v-948q0 -248 -112 -346t-297 -98q-99 0 -199 27v140q98 -20 178 -20q114 0 168 34t72.5 88t18.5 175v948h171z" />
    <glyph glyph-name="afii10058" unicode="&#x409;" horiz-adv-x="1629" 
d="M837 821h230q226 0 317 -41t148 -137.5t57 -234.5q0 -196 -111.5 -302t-334.5 -106h-289l-263 1183h-53l-369 -1183h-162l450 1365h243zM1005 150h131q150 0 215 67t65 193q0 260 -280 260h-262zM1042 0z" />
    <glyph glyph-name="afii10059" unicode="&#x40a;" horiz-adv-x="1869" 
d="M1071 800h237q215 0 311 -35.5t153 -131t57 -237.5q0 -182 -110 -289t-335 -107h-484v650h-558v-650h-171v1365h171v-565h558v565h171v-565zM1071 150h306q281 0 281 259q0 241 -281 241h-306v-500z" />
    <glyph glyph-name="afii10060" unicode="&#x40b;" horiz-adv-x="1270" 
d="M403 1215v-495q138 180 358 180q160 0 273 -98t113 -350v-452h-171v466q0 293 -247 293q-207 0 -326 -166v-593h-170v1215h-233v150h951v-150h-548z" />
    <glyph glyph-name="afii10061" unicode="&#x40c;" horiz-adv-x="1236" 
d="M1250 0h-187l-408 753l-313 -389v-364h-171v1365h171v-792l617 792h185l-370 -478zM949 1684l-414 -189l-43 81l396 228z" />
    <glyph glyph-name="afii10062" unicode="&#x40e;" horiz-adv-x="1048" 
d="M476 386l-469 979h186l370 -779l311 779h167l-436 -1044q-95 -227 -176 -274t-209 -47h-38v150h63q84 0 123 31t84 143zM213 1759h114q25 -136 181 -136q163 0 189 136h114q-43 -256 -286 -256q-275 0 -312 256z" />
    <glyph glyph-name="afii10145" unicode="&#x40f;" horiz-adv-x="1316" 
d="M355 150h606v1215h171v-1365h-393l-20 -287h-132l-20 287h-383v1365h171v-1215z" />
    <glyph glyph-name="afii10017" unicode="&#x410;" horiz-adv-x="1097" 
d="M1090 0h-175l-138 399h-505l-122 -399h-143l443 1365h195zM741 527l-210 656l-212 -656h422z" />
    <glyph glyph-name="afii10018" unicode="&#x411;" horiz-adv-x="1184" 
d="M171 0v1365h786v-150h-621v-415h243q192 0 292.5 -30.5t164.5 -131t64 -248.5q0 -175 -110 -282.5t-335 -107.5h-484zM336 150h312q280 0 280 253q0 125 -69 186t-236 61h-287v-500z" />
    <glyph glyph-name="afii10019" unicode="&#x412;" horiz-adv-x="1238" 
d="M171 0v1365h540q204 0 302.5 -100t98.5 -232q0 -232 -242 -308q144 -37 214 -132t70 -215q0 -161 -108.5 -269.5t-334.5 -108.5h-540zM336 780h297q185 0 247 70.5t62 165.5q0 94 -66.5 152t-198.5 58h-341v-446zM336 150h366q134 0 207 65t73 169q0 73 -33 135.5
t-93 96.5t-179 34h-341v-500z" />
    <glyph glyph-name="afii10020" unicode="&#x413;" horiz-adv-x="872" 
d="M171 0v1365h701v-150h-530v-1215h-171z" />
    <glyph glyph-name="afii10021" unicode="&#x414;" horiz-adv-x="1253" 
d="M86 150l394 1215h283l403 -1215h80v-437h-136l-21 287h-925l-20 -287h-137v437h79zM246 150h735l-333 1080h-71z" />
    <glyph glyph-name="afii10022" unicode="&#x415;" horiz-adv-x="1122" 
d="M1054 150v-150h-883v1365h864v-150h-693v-434h550v-139h-550v-492h712z" />
    <glyph glyph-name="afii10024" unicode="&#x416;" horiz-adv-x="1597" 
d="M1082 784l508 -784h-203l-437 680l-88 -29v-651h-157v651l-88 29l-437 -680h-173l474 734l-441 631h203l412 -581l50 -17v598h157v-598l50 17l412 581h181z" />
    <glyph glyph-name="afii10025" unicode="&#x417;" horiz-adv-x="1114" 
d="M16 381l155 37q38 -164 130.5 -235t251.5 -71q151 0 229 76t78 193q0 257 -291 257h-129v147h118q118 0 191 62t73 173q0 106 -77 169.5t-202 63.5q-276 0 -326 -262l-165 19q85 383 487 383q213 0 337.5 -102t124.5 -261q0 -235 -264 -307q302 -51 302 -331
q0 -171 -124.5 -295t-376.5 -124q-218 0 -352 107t-170 301z" />
    <glyph glyph-name="afii10026" unicode="&#x418;" horiz-adv-x="1334" 
d="M342 114v-114h-171v1365h171v-882q0 -87 -7 -178q71 128 168 261l490 666v133h171v-1365h-171v795q0 74 7 246q-58 -111 -169 -261z" />
    <glyph glyph-name="afii10027" unicode="&#x419;" horiz-adv-x="1334" 
d="M342 114v-114h-171v1365h171v-882q0 -87 -7 -178q71 128 168 261l490 666v133h171v-1365h-171v795q0 74 7 246q-58 -111 -169 -261zM368 1759h114q25 -136 181 -136q163 0 189 136h114q-43 -256 -286 -256q-275 0 -312 256z" />
    <glyph glyph-name="afii10028" unicode="&#x41a;" horiz-adv-x="1287" 
d="M1250 0h-187l-408 753l-313 -389v-364h-171v1365h171v-792l617 792h185l-370 -478z" />
    <glyph glyph-name="afii10029" unicode="&#x41b;" horiz-adv-x="1145" 
d="M169 0h-162l450 1365h243l438 -1365h-189l-358 1183h-53z" />
    <glyph glyph-name="afii10030" unicode="&#x41c;" horiz-adv-x="1659" 
d="M1489 0h-166v1192l-444 -1192h-116l-447 1192v-1192h-145v1365h254l411 -1092l403 1092h250v-1365z" />
    <glyph glyph-name="afii10031" unicode="&#x41d;" horiz-adv-x="1316" 
d="M1146 0h-171v650h-633v-650h-171v1365h171v-565h633v565h171v-1365z" />
    <glyph glyph-name="afii10032" unicode="&#x41e;" horiz-adv-x="1292" 
d="M642 -27q-263 0 -410 204.5t-147 501.5q0 310 154 512t408 202q253 0 406 -198.5t153 -500.5q0 -290 -148.5 -505.5t-415.5 -215.5zM646 112q179 0 280 163t101 420q0 264 -104.5 411t-277.5 147q-175 0 -278 -159t-103 -416q0 -251 104 -408.5t278 -157.5z" />
    <glyph glyph-name="afii10033" unicode="&#x41f;" horiz-adv-x="1289" 
d="M171 0v1365h947v-1365h-170v1215h-606v-1215h-171z" />
    <glyph glyph-name="afii10034" unicode="&#x420;" horiz-adv-x="1145" 
d="M342 0h-171v1365h484q227 0 335 -123.5t108 -281.5q0 -176 -117.5 -291t-307.5 -115h-331v-554zM342 696h314q121 0 195 72.5t74 191.5q0 102 -66 182t-191 80h-326v-526z" />
    <glyph glyph-name="afii10035" unicode="&#x421;" horiz-adv-x="1186" 
d="M989 459l156 -35q-112 -451 -506 -451q-259 0 -406.5 209t-147.5 514q0 315 154 506t413 191q384 0 493 -439l-161 -32q-88 326 -333 326q-181 0 -280.5 -151.5t-99.5 -425.5q0 -251 102 -402.5t270 -151.5q261 0 346 342z" />
    <glyph glyph-name="afii10036" unicode="&#x422;" horiz-adv-x="994" 
d="M582 0h-170v1215h-391v150h953v-150h-392v-1215z" />
    <glyph glyph-name="afii10037" unicode="&#x423;" horiz-adv-x="1048" 
d="M476 386l-469 979h186l370 -779l311 779h167l-436 -1044q-95 -227 -176 -274t-209 -47h-38v150h63q84 0 123 31t84 143z" />
    <glyph glyph-name="afii10038" unicode="&#x424;" horiz-adv-x="1496" 
d="M669 126q-293 27 -430 176t-137 375q0 244 140 390.5t427 172.5v166h157v-166q293 -27 430.5 -176t137.5 -374q0 -245 -140.5 -391.5t-427.5 -172.5v-167h-157v167zM826 252q389 50 389 437q0 374 -389 425v-862zM669 1114q-388 -48 -388 -437q0 -374 388 -425v862z" />
    <glyph glyph-name="afii10039" unicode="&#x425;" horiz-adv-x="1065" 
d="M1005 1365l-383 -625l438 -740h-193l-345 582l-358 -582h-159l437 706l-389 659h191l299 -504l306 504h156z" />
    <glyph glyph-name="afii10040" unicode="&#x426;" horiz-adv-x="1323" 
d="M184 0v1365h171v-1215h613v1215h171v-1215h170v-437h-136l-21 287h-968z" />
    <glyph glyph-name="afii10041" unicode="&#x427;" horiz-adv-x="1211" 
d="M869 0v646q-144 -181 -368 -181q-192 0 -297.5 112t-105.5 336v452h171v-466q0 -162 68 -227.5t192 -65.5q216 0 340 166v593h171v-1365h-171z" />
    <glyph glyph-name="afii10042" unicode="&#x428;" horiz-adv-x="1851" 
d="M184 0v1365h171v-1215h485v1215h171v-1215h485v1215h171v-1365h-1483z" />
    <glyph glyph-name="afii10043" unicode="&#x429;" horiz-adv-x="1865" 
d="M1667 150h184v-437h-136l-21 287h-1510v1365h171v-1215h485v1215h171v-1215h485v1215h171v-1215z" />
    <glyph glyph-name="afii10044" unicode="&#x42a;" horiz-adv-x="1278" 
d="M323 1215h-364v150h534v-544h224q200 0 297 -32t161 -134t64 -249q0 -194 -111.5 -300t-334.5 -106h-470v1215zM493 150h293q150 0 215 67t65 193q0 260 -280 260h-293v-520z" />
    <glyph glyph-name="afii10045" unicode="&#x42b;" horiz-adv-x="1652" 
d="M1294 0v1365h171v-1365h-171zM187 0v1365h171v-544h223q226 0 317.5 -41t148 -137.5t56.5 -234.5q0 -196 -111.5 -302t-334.5 -106h-470zM358 150h292q151 0 216 67t65 193q0 260 -281 260h-292v-520z" />
    <glyph glyph-name="afii10046" unicode="&#x42c;" horiz-adv-x="1126" 
d="M171 0v1365h171v-544h223q226 0 317.5 -41t148 -137.5t56.5 -234.5q0 -196 -111.5 -302t-334.5 -106h-470zM342 150h292q151 0 216 67t65 193q0 260 -281 260h-292v-520z" />
    <glyph glyph-name="afii10047" unicode="&#x42d;" horiz-adv-x="1206" 
d="M405 786v-150h527q-2 -236 -106.5 -377.5t-281.5 -141.5q-248 0 -341 276l-162 -34q120 -386 508 -386q290 0 431 217.5t141 504.5q0 305 -147.5 501.5t-406.5 196.5q-389 0 -506 -367l165 -33q88 255 334 255q169 0 264.5 -133t107.5 -329h-527z" />
    <glyph glyph-name="afii10048" unicode="&#x42e;" horiz-adv-x="1810" 
d="M605 650h-263v-650h-171v1365h171v-565h267q33 265 180 429t376 164q245 0 402.5 -191.5t157.5 -507.5q0 -294 -150 -507.5t-409 -213.5q-263 0 -411 196.5t-150 480.5zM1163 1253q-174 0 -277 -158.5t-103 -422.5q0 -243 103.5 -401.5t278.5 -158.5q179 0 280 163.5
t101 419.5q0 275 -107.5 416.5t-275.5 141.5z" />
    <glyph glyph-name="afii10049" unicode="&#x42f;" horiz-adv-x="1235" 
d="M904 591h-391l-266 -591h-179l282 632q-135 43 -194.5 143t-59.5 209q0 159 115 270t315 111h538v-1365h-160v591zM904 1215h-378q-118 0 -188.5 -62t-70.5 -167q0 -104 68 -180t212 -76h357v485z" />
    <glyph glyph-name="afii10065" unicode="&#x430;" horiz-adv-x="1083" 
d="M948 0h-156q-9 48 -18 182q-104 -209 -354 -209q-170 0 -261 90t-91 216q0 153 130 251.5t442 98.5q42 0 134 -4q0 120 -18.5 173.5t-78.5 85.5t-158 32q-239 0 -278 -182l-145 25q53 279 446 279q209 0 296.5 -92.5t87.5 -320.5v-429q0 -107 22 -196zM774 505
q-96 6 -146 6q-186 0 -289 -61t-103 -178q0 -74 55.5 -126t160.5 -52q142 0 233.5 103t91.5 242q0 28 -3 66z" />
    <glyph glyph-name="afii10066" unicode="&#x431;" horiz-adv-x="1085" 
d="M705 1456h171q-7 -97 -62.5 -143t-204.5 -73q-112 -20 -166 -50t-94 -105t-59 -205q105 158 281 158q177 0 301 -133.5t124 -399.5q0 -259 -120 -395.5t-322 -136.5q-126 0 -221.5 52t-161 176t-65.5 363q0 196 32.5 354.5t93.5 247.5t133.5 125t191.5 57
q82 15 111.5 35.5t36.5 72.5zM551 908q-120 0 -200.5 -102t-80.5 -301q0 -194 79.5 -298.5t201.5 -104.5q121 0 197.5 104.5t76.5 298.5q0 201 -78 302t-196 101z" />
    <glyph glyph-name="afii10067" unicode="&#x432;" horiz-adv-x="1073" 
d="M164 0v1010h471q310 0 310 -244q0 -164 -173 -227q213 -60 213 -259q0 -125 -73.5 -202.5t-203.5 -77.5h-544zM321 590h314q149 0 149 154q0 143 -149 143h-314v-297zM321 123h314q178 0 178 171q0 177 -178 177h-314v-348z" />
    <glyph glyph-name="afii10068" unicode="&#x433;" horiz-adv-x="737" 
d="M150 0v1010h586v-123h-429v-887h-157z" />
    <glyph glyph-name="afii10069" unicode="&#x434;" horiz-adv-x="982" 
d="M96 123l291 887h233l267 -887h71v-355h-117l-20 232h-660l-21 -232h-116v355h72zM242 123h483l-209 737h-45z" />
    <glyph glyph-name="afii10070" unicode="&#x435;" horiz-adv-x="1066" 
d="M824 301l146 -30q-40 -129 -156 -213.5t-273 -84.5q-207 0 -335 145.5t-128 381.5q0 241 133 389.5t334 148.5q198 0 318.5 -137t123.5 -410h-734q0 -229 96 -309t203 -80q193 0 272 199zM815 608q-2 85 -28 151t-88 112.5t-149 46.5q-117 0 -198.5 -84t-91.5 -226h555z
" />
    <glyph glyph-name="afii10072" unicode="&#x436;" horiz-adv-x="1306" 
d="M909 585l373 -585h-186l-308 485l-66 -31v-454h-148v454l-65 31l-322 -485h-163l369 542l-322 468h180l289 -432l34 -15v447h148v-447l34 15l289 432h158z" />
    <glyph glyph-name="afii10073" unicode="&#x437;" horiz-adv-x="894" 
d="M340 462v131q147 0 212.5 36.5t65.5 128.5q0 69 -47.5 113t-131.5 44q-186 0 -224 -189l-148 27q63 285 373 285q164 0 257 -77.5t93 -192.5q0 -156 -187 -233q213 -60 213 -249q0 -130 -98 -221.5t-266 -91.5q-336 0 -415 327l148 26q53 -231 248 -231q103 0 157 56
t54 140q0 70 -36.5 111t-92 50.5t-175.5 9.5z" />
    <glyph glyph-name="afii10074" unicode="&#x438;" horiz-adv-x="1090" 
d="M307 96v-96h-157v1010h157v-531q0 -111 -7 -232q65 104 131 190l352 464v109h157v-1010h-157v509q0 141 7 232q-34 -62 -132 -189z" />
    <glyph glyph-name="afii10075" unicode="&#x439;" horiz-adv-x="1090" 
d="M307 96v-96h-157v1010h157v-531q0 -111 -7 -232q65 104 131 190l352 464v109h157v-1010h-157v509q0 141 7 232q-34 -62 -132 -189zM240 1425h114q25 -136 181 -136q163 0 189 136h114q-43 -256 -286 -256q-275 0 -312 256z" />
    <glyph glyph-name="afii10076" unicode="&#x43a;" horiz-adv-x="968" 
d="M628 655l356 -655h-177l-294 553l-206 -241v-312h-157v1010h157v-382q0 -108 -7 -164q52 76 99 129l373 417h172z" />
    <glyph glyph-name="afii10077" unicode="&#x43b;" horiz-adv-x="900" 
d="M25 0l333 1010h189l327 -1010h-163l-254 819h-31l-255 -819h-146z" />
    <glyph glyph-name="afii10078" unicode="&#x43c;" horiz-adv-x="1413" 
d="M150 0v1010h256l300 -871l317 871h240v-1010h-151v872h-13l-317 -872h-170l-312 886h-13v-886h-137z" />
    <glyph glyph-name="afii10079" unicode="&#x43d;" horiz-adv-x="1096" 
d="M150 0v1010h157v-418h482v418h157v-1010h-157v469h-482v-469h-157z" />
    <glyph glyph-name="afii10080" unicode="&#x43e;" horiz-adv-x="1064" 
d="M519 -27q-208 0 -324.5 154t-116.5 382q0 241 131 385t326 144q209 0 329.5 -151.5t120.5 -378.5q0 -236 -130 -385.5t-336 -149.5zM531 102q120 0 201 99t81 308q0 210 -85 304.5t-199 94.5q-117 0 -198 -95.5t-81 -302.5q0 -219 81 -313.5t200 -94.5z" />
    <glyph glyph-name="afii10081" unicode="&#x43f;" horiz-adv-x="1061" 
d="M150 0v1010h760v-1010h-157v887h-446v-887h-157z" />
    <glyph glyph-name="afii10082" unicode="&#x440;" horiz-adv-x="1094" 
d="M314 -341h-157v1351h141v-196q107 224 319 224q179 0 289 -149.5t110 -378.5q0 -247 -113 -392t-290 -145q-190 0 -299 181v-495zM314 651v-284q15 -115 97 -190t171 -75q103 0 182.5 90t79.5 311q0 191 -72 294.5t-191 103.5q-94 0 -168.5 -73t-98.5 -177z" />
    <glyph glyph-name="afii10083" unicode="&#x441;" horiz-adv-x="954" 
d="M754 354l142 -25q-30 -167 -133 -261.5t-257 -94.5q-209 0 -318.5 154t-109.5 376q0 230 115.5 382.5t314.5 152.5q165 0 264.5 -98.5t123.5 -254.5l-142 -27q-40 250 -242 250q-130 0 -200 -110.5t-70 -286.5q0 -194 69.5 -301.5t195.5 -107.5q195 0 247 252z" />
    <glyph glyph-name="afii10084" unicode="&#x442;" horiz-adv-x="720" 
d="M280 0v887h-280v123h720v-123h-283v-887h-157z" />
    <glyph glyph-name="afii10085" unicode="&#x443;" horiz-adv-x="850" 
d="M850 1010l-405 -1128q-88 -244 -281 -244q-61 0 -135 21v123q61 -14 105 -14q75 0 125.5 43t100.5 208l-349 991h160l270 -759l277 759h132z" />
    <glyph glyph-name="afii10086" unicode="&#x444;" horiz-adv-x="1282" 
d="M573 -341v341q-220 16 -355.5 157.5t-135.5 352.5q0 218 139 351t352 149v328h136v-328q214 -16 352.5 -149.5t138.5 -350.5q0 -211 -135 -352.5t-356 -157.5v-341h-136zM573 892q-319 -55 -319 -390q0 -329 319 -381v771zM709 121q319 53 319 384q0 334 -319 387v-771z
" />
    <glyph glyph-name="afii10087" unicode="&#x445;" horiz-adv-x="868" 
d="M861 0h-181l-257 410l-263 -410h-153l340 524l-307 486h181l216 -345l220 345h151l-294 -452z" />
    <glyph glyph-name="afii10088" unicode="&#x446;" horiz-adv-x="1056" 
d="M150 0v1010h157v-887h442v887h157v-887h150v-355h-116l-20 232h-770z" />
    <glyph glyph-name="afii10089" unicode="&#x447;" horiz-adv-x="1002" 
d="M695 0v434q-120 -101 -277 -101q-122 0 -215.5 61t-93.5 203v413h157v-376q0 -170 191 -170q143 0 238 68v478h157v-1010h-157z" />
    <glyph glyph-name="afii10090" unicode="&#x448;" horiz-adv-x="1569" 
d="M164 0v1010h157v-887h385v887h157v-887h385v887h157v-1010h-1241z" />
    <glyph glyph-name="afii10091" unicode="&#x449;" horiz-adv-x="1574" 
d="M167 0v1010h157v-887h385v887h157v-887h385v887h157v-887h167v-326h-116l-21 203h-1271z" />
    <glyph glyph-name="afii10092" unicode="&#x44a;" horiz-adv-x="1040" 
d="M235 0v887h-276v123h432v-389h301q157 0 235.5 -93t78.5 -234q0 -138 -85 -216t-229 -78h-457zM391 123h265q178 0 178 174q0 201 -178 201h-265v-375z" />
    <glyph glyph-name="afii10093" unicode="&#x44b;" horiz-adv-x="1397" 
d="M164 0v1010h157v-389h300q157 0 235.5 -93.5t78.5 -233.5q0 -138 -85 -216t-229 -78h-457zM321 123h265q177 0 177 174q0 201 -177 201h-265v-375zM1077 0v1010h157v-1010h-157z" />
    <glyph glyph-name="afii10094" unicode="&#x44c;" horiz-adv-x="956" 
d="M150 0v1010h157v-389h300q157 0 235.5 -93.5t78.5 -233.5q0 -138 -85 -216t-229 -78h-457zM307 123h265q177 0 177 174q0 201 -177 201h-265v-375z" />
    <glyph glyph-name="afii10095" unicode="&#x44d;" horiz-adv-x="972" 
d="M330 459v123h395q-32 326 -275 326q-188 0 -251 -192l-147 34q112 288 403 288q205 0 321.5 -145.5t116.5 -393.5q0 -237 -114 -381.5t-332 -144.5q-160 0 -267.5 84.5t-145.5 224.5l144 31q73 -211 267 -211q135 0 207.5 104t72.5 253h-395z" />
    <glyph glyph-name="afii10096" unicode="&#x44e;" horiz-adv-x="1525" 
d="M313 480v-480h-163v1010h163v-408h232q22 193 147 314.5t305 121.5q208 0 328.5 -151t120.5 -381q0 -233 -129 -383t-337 -150q-203 0 -318.5 147t-121.5 360h-227zM990 908q-126 0 -209 -96.5t-83 -303.5q0 -210 81 -308t211 -98q131 0 207.5 103t76.5 303
q0 205 -80 302.5t-204 97.5z" />
    <glyph glyph-name="afii10097" unicode="&#x44f;" horiz-adv-x="1034" 
d="M727 0v409h-278l-226 -409h-164l249 439q-197 60 -197 267q0 159 92 231.5t224 72.5h457v-1010h-157zM727 532v355h-273q-172 0 -172 -184q0 -171 158 -171h287z" />
    <glyph glyph-name="afii10071" unicode="&#x451;" horiz-adv-x="1066" 
d="M824 301l146 -30q-40 -129 -156 -213.5t-273 -84.5q-207 0 -335 145.5t-128 381.5q0 241 133 389.5t334 148.5q198 0 318.5 -137t123.5 -410h-734q0 -229 96 -309t203 -80q193 0 272 199zM815 608q-2 85 -28 151t-88 112.5t-149 46.5q-117 0 -198.5 -84t-91.5 -226h555z
M821 1304q0 -43 -31.5 -73t-74.5 -30t-74.5 30t-31.5 72q0 43 31.5 72.5t73.5 29.5q44 0 75.5 -29.5t31.5 -71.5zM499 1303q0 -42 -31.5 -72t-73.5 -30t-72.5 30t-30.5 71q0 43 30.5 72.5t69.5 29.5q48 0 78 -30t30 -71z" />
    <glyph glyph-name="afii10099" unicode="&#x452;" horiz-adv-x="1037" 
d="M143 0v1143h-192v123h192v120h157v-120h417v-123h-417v-346q106 213 307 213q120 0 197 -69t103.5 -200t26.5 -445q0 -301 -33 -410t-114.5 -170t-197.5 -65l-20 128q108 7 158.5 96.5t50.5 425.5q0 391 -49.5 485.5t-156.5 94.5q-109 0 -190.5 -94t-81.5 -270v-517h-157
z" />
    <glyph glyph-name="afii10100" unicode="&#x453;" horiz-adv-x="737" 
d="M150 0v1010h586v-123h-429v-887h-157zM712 1363l-414 -189l-43 81l396 228z" />
    <glyph glyph-name="afii10101" unicode="&#x454;" horiz-adv-x="972" 
d="M642 459v123h-395q32 326 275 326q188 0 251 -192l147 34q-112 288 -403 288q-205 0 -321.5 -145.5t-116.5 -393.5q0 -237 114 -381.5t332 -144.5q160 0 267.5 84.5t145.5 224.5l-144 31q-73 -211 -267 -211q-135 0 -207.5 104t-72.5 253h395z" />
    <glyph glyph-name="afii10102" unicode="&#x455;" horiz-adv-x="950" 
d="M21 262l150 31q50 -191 316 -191q98 0 166 44t68 124q0 119 -173 151l-213 40q-125 24 -199 94t-74 185q0 127 101 212.5t272 85.5q329 0 406 -257l-144 -31q-62 158 -255 158q-96 0 -157.5 -39.5t-61.5 -110.5q0 -112 157 -141l197 -35q309 -56 309 -299
q0 -139 -115 -224.5t-306 -85.5q-359 0 -444 289z" />
    <glyph glyph-name="afii10103" unicode="&#x456;" horiz-adv-x="470" 
d="M319 1365v-174h-169v174h169zM314 1010v-1010h-157v1010h157z" />
    <glyph glyph-name="afii10104" unicode="&#x457;" horiz-adv-x="470" 
d="M314 1010v-1010h-157v1010h157zM522 1304q0 -43 -31.5 -73t-74.5 -30t-74.5 30t-31.5 72q0 43 31.5 72.5t73.5 29.5q44 0 75.5 -29.5t31.5 -71.5zM200 1303q0 -42 -31.5 -72t-73.5 -30t-72.5 30t-30.5 71q0 43 30.5 72.5t69.5 29.5q48 0 78 -30t30 -71z" />
    <glyph glyph-name="afii10105" unicode="&#x458;" horiz-adv-x="469" 
d="M322 1365v-174h-178v174h178zM314 1010v-1041q0 -175 -83.5 -246.5t-205.5 -71.5q-61 0 -149 21v124q65 -16 116 -16q86 0 125.5 42t39.5 147v1041h157z" />
    <glyph glyph-name="afii10106" unicode="&#x459;" horiz-adv-x="1282" 
d="M646 621h308q156 0 235 -93t79 -234q0 -138 -85 -216t-229 -78h-312l-186 819h-31l-255 -819h-146l333 1010h189zM766 123h152q178 0 178 174q0 201 -178 201h-243zM788 0z" />
    <glyph glyph-name="afii10107" unicode="&#x45a;" horiz-adv-x="1554" 
d="M905 594h300q158 0 236 -87t78 -213q0 -138 -85 -216t-229 -78h-457v471h-441v-471h-157v1010h157v-416h441v416h157v-416zM905 123h265q177 0 177 171q0 177 -177 177h-265v-348z" />
    <glyph glyph-name="afii10108" unicode="&#x45b;" horiz-adv-x="1038" 
d="M144 1266v120h157v-120h417v-123h-417v-346q107 214 310 214q85 0 154 -35.5t106.5 -92.5t50.5 -112t13 -185v-586h-157v586q0 108 -13 161.5t-64 93.5t-116 40q-110 0 -197 -93t-87 -271v-517h-157v1143h-192v123h192z" />
    <glyph glyph-name="afii10109" unicode="&#x45c;" horiz-adv-x="968" 
d="M628 655l356 -655h-177l-294 553l-206 -241v-312h-157v1010h157v-382q0 -108 -7 -164q52 76 99 129l373 417h172zM801 1363l-414 -189l-43 81l396 228z" />
    <glyph glyph-name="afii10110" unicode="&#x45e;" horiz-adv-x="839" 
d="M812 1011l-405 -1128q-88 -244 -281 -244q-61 0 -135 21v123q61 -14 105 -14q75 0 125.5 43t100.5 208l-349 991h160l270 -759l277 759h132zM114 1425h114q25 -136 181 -136q163 0 189 136h114q-43 -256 -286 -256q-275 0 -312 256z" />
    <glyph glyph-name="afii10193" unicode="&#x45f;" horiz-adv-x="1056" 
d="M150 0v1010h157v-887h442v887h157v-1010h-298l-21 -232h-116l-20 232h-301z" />
    <glyph glyph-name="afii10050" unicode="&#x490;" horiz-adv-x="912" 
d="M913 1611v-396h-571v-1215h-171v1365h585v246h157z" />
    <glyph glyph-name="afii10098" unicode="&#x491;" horiz-adv-x="737" 
d="M600 1010v191h136v-314h-429v-887h-157v1010h450z" />
    <glyph glyph-name="Wgrave" unicode="&#x1e80;" horiz-adv-x="1674" 
d="M1635 1365l-329 -1365h-171l-298 1059l-277 -1059h-175l-346 1365h177l273 -1106l290 1106h138l313 -1106l255 1106h150zM588 1677l62 120l395 -228l-42 -81z" />
    <glyph glyph-name="wgrave" unicode="&#x1e81;" horiz-adv-x="1360" 
d="M1321 1010l-291 -1010h-127l-226 750l-207 -750h-129l-303 1010h158l219 -753l210 753h115l227 -756l227 756h127zM437 1356l62 120l395 -228l-42 -81z" />
    <glyph glyph-name="Wacute" unicode="&#x1e82;" horiz-adv-x="1674" 
d="M1635 1365l-329 -1365h-171l-298 1059l-277 -1059h-175l-346 1365h177l273 -1106l290 1106h138l313 -1106l255 1106h150zM1113 1677l-414 -189l-43 81l396 228z" />
    <glyph glyph-name="wacute" unicode="&#x1e83;" horiz-adv-x="1360" 
d="M1321 1010l-291 -1010h-127l-226 750l-207 -750h-129l-303 1010h158l219 -753l210 753h115l227 -756l227 756h127zM949 1356l-414 -189l-43 81l396 228z" />
    <glyph glyph-name="Wdieresis" unicode="&#x1e84;" horiz-adv-x="1674" 
d="M1635 1365l-329 -1365h-171l-298 1059l-277 -1059h-175l-346 1365h177l273 -1106l290 1106h138l313 -1106l255 1106h150zM1116 1625q0 -43 -31.5 -73t-74.5 -30t-74.5 30t-31.5 72q0 43 31.5 72.5t73.5 29.5q44 0 75.5 -29.5t31.5 -71.5zM794 1624q0 -42 -31.5 -72
t-73.5 -30t-72.5 30t-30.5 71q0 43 30.5 72.5t69.5 29.5q48 0 78 -30t30 -71z" />
    <glyph glyph-name="wdieresis" unicode="&#x1e85;" horiz-adv-x="1360" 
d="M1321 1010l-291 -1010h-127l-226 750l-207 -750h-129l-303 1010h158l219 -753l210 753h115l227 -756l227 756h127zM945 1304q0 -43 -31.5 -73t-74.5 -30t-74.5 30t-31.5 72q0 43 31.5 72.5t73.5 29.5q44 0 75.5 -29.5t31.5 -71.5zM623 1303q0 -42 -31.5 -72t-73.5 -30
t-72.5 30t-30.5 71q0 43 30.5 72.5t69.5 29.5q48 0 78 -30t30 -71z" />
    <glyph glyph-name="Ygrave" unicode="&#x1ef2;" horiz-adv-x="1045" 
d="M1065 1365l-457 -791v-574h-171v574l-457 791h201l363 -628l365 628h156zM294 1677l62 120l395 -228l-42 -81z" />
    <glyph glyph-name="ygrave" unicode="&#x1ef3;" horiz-adv-x="850" 
d="M850 1011l-405 -1128q-88 -244 -281 -244q-61 0 -135 21v123q61 -14 105 -14q75 0 125.5 43t100.5 208l-349 991h160l270 -759l277 759h132zM202 1356l62 120l395 -228l-42 -81z" />
    <glyph glyph-name="afii00208" unicode="&#x2015;" horiz-adv-x="1365" 
d="M1362 573v-122h-1359v122h1359z" />
    <glyph glyph-name="underscoredbl" unicode="&#x2017;" horiz-adv-x="1024" 
d="M0 -115h1024v-100h-1024v100zM0 -354h1024v-100h-1024v100z" />
    <glyph glyph-name="quotereversed" unicode="&#x201b;" horiz-adv-x="512" 
d="M154 1365h205v-203h-99l99 -239h-71l-134 239v203z" />
    <glyph glyph-name="minute" unicode="&#x2032;" horiz-adv-x="379" 
d="M156 837h-100l161 528h160z" />
    <glyph glyph-name="second" unicode="&#x2033;" horiz-adv-x="647" 
d="M129 837h-100l161 528h160zM452 837h-101l162 528h160z" />
    <glyph glyph-name="exclamdbl" unicode="&#x203c;" horiz-adv-x="1024" 
d="M372 1365v-366l-38 -617h-88l-37 617v366h163zM815 1365v-366l-37 -617h-88l-38 617v366h163zM374 239v-239h-168v239h168zM818 239v-239h-168v239h168z" />
    <glyph glyph-name="uni203E" unicode="&#x203e;" horiz-adv-x="1201" 
d="M-42 1869h1286v-74h-1286v74z" />
    <glyph glyph-name="uni2044" unicode="&#x2044;" horiz-adv-x="218" 
d="M-247 0h-112l827 1365h110z" />
    <glyph glyph-name="nsuperior" unicode="&#x207f;" horiz-adv-x="732" 
d="M625 546h-114v390q0 143 -119 143q-69 0 -117 -55.5t-48 -143.5v-334h-120v610h113v-83q68 99 187 99q73 0 125 -34.5t72.5 -79t20.5 -160.5v-352z" />
    <glyph glyph-name="lira" unicode="&#x20a4;" horiz-adv-x="1202" 
d="M155 491v117h224l-11 102h-213v117h198q-10 74 -10 132q0 196 107 315t265 119q198 0 328 -187l-111 -86q-103 136 -209 136q-84 0 -143 -65.5t-59 -174.5q0 -75 14 -189h300v-117h-286l11 -102h275v-117h-271q-5 -224 -161 -341h318q148 0 216 39t112 117l130 -85
q-49 -106 -148.5 -163.5t-205.5 -57.5h-830v150q154 2 218 21.5t122 92.5t58 175q0 18 -2 52h-236z" />
    <glyph glyph-name="peseta" unicode="&#x20a7;" horiz-adv-x="1980" 
d="M340 0h-164v1365h381q227 0 335.5 -123.5t108.5 -281.5q0 -175 -117.5 -290.5t-307.5 -115.5h-236v-554zM340 696h225q121 0 195 72.5t74 191.5q0 109 -69.5 185.5t-187.5 76.5h-237v-526zM1328 79v-87q-63 -8 -101 -8q-193 0 -193 187v353h-112v86h112l4 148l113 10
v-158h141v-86h-141v-368q0 -85 90 -85q35 0 87 8zM1368 166l115 22q21 -114 186 -114q137 0 137 92q0 65 -98 83l-133 23q-180 32 -180 171q0 78 66 130.5t180 52.5q212 0 262 -163l-109 -22q-37 95 -154 95q-123 0 -123 -83q0 -60 88 -75l123 -21q202 -35 202 -183
q0 -85 -75.5 -137.5t-197.5 -52.5q-235 0 -289 182z" />
    <glyph glyph-name="afii61248" unicode="&#x2105;" horiz-adv-x="1879" 
d="M592 942l107 -18q-52 -242 -277 -242q-137 0 -220.5 95.5t-83.5 258.5q0 154 82 255.5t223 101.5q230 0 276 -241l-107 -19q-27 166 -166 166q-90 0 -137.5 -72t-47.5 -186q0 -126 47.5 -196t134.5 -70q133 0 169 167zM564 0h-112l827 1365h110zM1431 -27
q-147 0 -229.5 103t-82.5 255q0 160 92.5 256.5t231.5 96.5q147 0 232.5 -101t85.5 -253q0 -157 -91.5 -257t-238.5 -100zM1440 66q83 0 138 64.5t55 200.5q0 137 -58 198t-136 61q-81 0 -136.5 -62t-55.5 -197q0 -137 54 -201t139 -64z" />
    <glyph glyph-name="afii61289" unicode="&#x2113;" horiz-adv-x="1201" 
d="M613 550q-65 -334 -65 -423q0 -53 37 -53q53 0 103 111q16 37 38 37q27 0 27 -28q0 -53 -64 -137t-145 -84q-70 0 -105 54.5t-35 134.5t23 250q-78 -78 -102 -78q-27 0 -27 32q0 21 42 56q44 38 102 106q73 393 171 627t230 234q63 0 96.5 -47t33.5 -110
q0 -317 -360 -682zM636 683q120 129 188 272.5t68 262.5q0 83 -47 83q-56 0 -100.5 -130.5t-108.5 -487.5z" />
    <glyph glyph-name="afii61352" unicode="&#x2116;" horiz-adv-x="2048" 
d="M1176 0h-166l-706 1190l2 -90q3 -51 3 -86v-1014h-138v1365h214l660 -1113l-2 95q-2 56 -2 99v919h135v-1365zM1621 377q-140 0 -220 97t-80 243q0 153 89.5 244t221.5 91q134 0 219.5 -91.5t85.5 -244.5q0 -149 -88 -244t-228 -95zM1629 484q71 0 117.5 57t46.5 176
q0 123 -50 175.5t-115 52.5q-70 0 -116.5 -55t-46.5 -173q0 -121 46 -177t118 -56zM1923 123v-123h-593v123h593z" />
    <glyph glyph-name="estimated" unicode="&#x212e;" horiz-adv-x="1229" 
d="M321 531v-371q120 -121 298 -121q254 0 395 246l72 -43q-118 -170 -231.5 -223t-235.5 -53q-232 0 -380.5 158.5t-148.5 406.5q0 252 149.5 408.5t379.5 156.5q214 0 366 -142t163 -423h-827zM917 605v297q-124 121 -300 121q-174 0 -296 -121v-297h596z" />
    <glyph glyph-name="oneeighth" unicode="&#x215b;" horiz-adv-x="1802" 
d="M659 635v-89h-550v89h225v599q-110 -108 -232 -170v117q167 83 262 201h86v-747h209zM510 0h-126l827 1365h124zM1246 425q-149 65 -149 193q0 95 82 156.5t217 61.5q137 0 214 -60t77 -151q0 -130 -153 -187q189 -80 189 -220q0 -100 -89 -167t-240 -67q-158 0 -248 68
t-90 163q0 137 190 210zM1392 482q103 26 146 60t43 85q0 119 -183 119q-78 0 -128.5 -32t-50.5 -87q0 -54 54.5 -93t118.5 -52zM1381 375q-207 -47 -207 -163q0 -62 56.5 -100t167.5 -38q94 0 150.5 37.5t56.5 95.5q0 113 -224 168z" />
    <glyph glyph-name="threeeighths" unicode="&#x215c;" horiz-adv-x="1802" 
d="M245 926v93h104q190 0 190 134q0 62 -49 98t-123 36q-147 0 -193 -131l-109 29q84 197 312 197q128 0 205.5 -65.5t77.5 -155.5q0 -135 -138 -183q171 -48 171 -199q0 -107 -88.5 -177.5t-240.5 -70.5q-248 0 -330 208l112 35q43 -147 217 -147q109 0 158 44t49 106
q0 67 -58.5 108t-162.5 41h-104zM558 0h-125l826 1365h124zM1280 425q-148 65 -148 193q0 96 82 157t217 61q140 0 215.5 -61.5t75.5 -150.5q0 -129 -153 -186q189 -80 189 -220q0 -100 -89 -167t-240 -67q-159 0 -248.5 68t-89.5 163q0 137 189 210zM1427 482
q103 26 146 60t43 85q0 119 -184 119q-78 0 -128.5 -32t-50.5 -87q0 -54 55 -93t119 -52zM1415 375q-206 -47 -206 -163q0 -59 54.5 -98.5t169.5 -39.5q94 0 150.5 37.5t56.5 95.5q0 113 -225 168z" />
    <glyph glyph-name="fiveeighths" unicode="&#x215d;" horiz-adv-x="1802" 
d="M634 1365l-10 -101h-415l-17 -238q88 79 199 79q117 0 208 -77.5t91 -208.5q0 -127 -96 -208t-234 -81q-110 0 -195.5 55t-112.5 147l103 34q59 -142 202 -142q102 0 159.5 55t57.5 141q0 89 -56.5 139t-136.5 50q-123 0 -197 -110l-94 18l29 448h515zM552 0h-126
l827 1365h124zM1281 425q-148 65 -148 193q0 95 81.5 156.5t217.5 61.5t213.5 -60t77.5 -152q0 -129 -154 -186q189 -80 189 -220q0 -100 -88.5 -167t-239.5 -67q-162 0 -250.5 68.5t-88.5 162.5q0 137 190 210zM1428 482q102 25 145 59.5t43 85.5q0 119 -183 119
q-78 0 -128.5 -32t-50.5 -87q0 -54 54.5 -93t119.5 -52zM1416 375q-207 -47 -207 -163q0 -61 57 -99.5t167 -38.5q94 0 151 37.5t57 95.5q0 113 -225 168z" />
    <glyph glyph-name="seveneighths" unicode="&#x215e;" horiz-adv-x="1802" 
d="M383 546h-123q0 389 290 717h-451l12 102h572v-70q-151 -172 -226 -359t-75 -356q0 -11 1 -34zM462 0h-125l827 1365h124zM1267 425q-149 65 -149 193q0 95 82 156.5t218 61.5t213 -60t77 -152q0 -129 -153 -186q189 -80 189 -220q0 -100 -89 -167t-240 -67
q-158 0 -248 68t-90 163q0 137 190 210zM1413 482q103 26 146 60t43 85q0 119 -183 119q-78 0 -128.5 -32t-50.5 -87q0 -54 54.5 -93t118.5 -52zM1402 375q-207 -47 -207 -163q0 -61 56.5 -99.5t167.5 -38.5q94 0 150.5 37.5t56.5 95.5q0 113 -224 168z" />
    <glyph glyph-name="arrowleft" unicode="&#x2190;" horiz-adv-x="2048" 
d="M492 157q-121 135 -209 205.5t-204 131.5v46q116 61 203 130.5t210 205.5h76q-46 -96 -77.5 -147.5t-88.5 -124.5h1566v-175h-1566q55 -69 88 -122.5t78 -149.5h-76z" />
    <glyph glyph-name="arrowup" unicode="&#x2191;" horiz-adv-x="1024" 
d="M153 926q135 122 205.5 209.5t131.5 203.5h45q61 -116 130.5 -202.5t206.5 -210.5v-76q-97 46 -148.5 78t-123.5 88v-1445h-175v1445q-69 -54 -122.5 -87t-149.5 -79v76z" />
    <glyph glyph-name="arrowright" unicode="&#x2192;" horiz-adv-x="2048" 
d="M1555 876q122 -135 209.5 -205t203.5 -132v-45q-116 -61 -202.5 -130.5t-210.5 -206.5h-76q46 97 78 148.5t88 123.5h-1566v175h1566q-54 69 -87 122.5t-79 149.5h76z" />
    <glyph glyph-name="arrowdown" unicode="&#x2193;" horiz-adv-x="1024" 
d="M871 -16q-135 -122 -205.5 -209.5t-131.5 -203.5h-45q-61 116 -131 202.5t-206 210.5v76q97 -46 148.5 -78t123.5 -88v1445h175v-1445q69 54 122.5 87t149.5 79v-76z" />
    <glyph glyph-name="arrowboth" unicode="&#x2194;" horiz-adv-x="2048" 
d="M402 604h1243q-54 68 -87 122t-79 150h76q122 -135 209.5 -205t203.5 -132v-45q-116 -61 -202.5 -130.5t-210.5 -206.5h-76q46 97 77.5 148t88.5 124h-1243q55 -69 88 -122.5t78 -149.5h-76q-121 135 -209 205.5t-204 131.5v46q116 61 203 130.5t210 205.5h76
q-46 -96 -77.5 -147.5t-88.5 -124.5z" />
    <glyph glyph-name="arrowupdn" unicode="&#x2195;" horiz-adv-x="1024" 
d="M600 1139v-1243q68 54 122 87.5t150 79.5v-77q-135 -121 -205.5 -208.5t-131.5 -204.5h-45q-61 116 -131 203t-206 210v77q96 -47 147.5 -78t124.5 -89v1243q-69 -54 -122.5 -87t-149.5 -79v76q135 122 205.5 209.5t131.5 204.5h45q61 -117 130.5 -203.5t206.5 -210.5
v-76q-97 46 -148.5 78t-123.5 88z" />
    <glyph glyph-name="arrowupdnbse" unicode="&#x21a8;" horiz-adv-x="1024" 
d="M599 1139v-1243q68 54 122 87.5t150 79.5v-77q-135 -121 -205.5 -208.5t-131.5 -204.5h-45q-61 116 -131 203t-206 210v77q96 -47 147.5 -78t124.5 -89v1243q-69 -54 -122.5 -87t-149.5 -79v76q135 122 205.5 209.5t131.5 204.5h45q61 -117 130.5 -203.5t206.5 -210.5
v-76q-97 46 -148.5 78t-123.5 88zM152 -502h719v-175h-719v175z" />
    <glyph glyph-name="orthogonal" unicode="&#x221f;" horiz-adv-x="2048" 
d="M123 0v1782h135v-1647h1667v-135h-1802z" />
    <glyph glyph-name="intersection" unicode="&#x2229;" horiz-adv-x="1473" 
d="M292 0h-134v637q0 279 13.5 392.5t81 222.5t200 182.5t283.5 73.5q152 0 284.5 -74.5t198 -178t81 -218t15.5 -400.5v-637h-134v644q0 241 -12 345.5t-60.5 188t-152.5 142t-220 58.5q-117 0 -221 -60t-151 -141t-59.5 -186t-12.5 -347v-644z" />
    <glyph glyph-name="equivalence" unicode="&#x2261;" horiz-adv-x="1201" 
d="M157 1064h887v-138h-887v138zM157 764h887v-139h-887v139zM157 464h887v-139h-887v139z" />
    <glyph glyph-name="house" unicode="&#x2302;" horiz-adv-x="1229" 
d="M153 0v634l461 519l462 -519v-634h-923zM234 81h761v519l-381 427l-380 -427v-519z" />
    <glyph glyph-name="revlogicalnot" unicode="&#x2310;" horiz-adv-x="1201" 
d="M1044 546v-138h-734v-408h-153v546h887z" />
    <glyph glyph-name="integraltp" unicode="&#x2320;" horiz-adv-x="1237" 
d="M691 -515h-145v1811q0 219 89.5 330t202.5 111q67 0 102.5 -32.5t35.5 -76.5q0 -40 -25.5 -66t-62.5 -26q-30 0 -57 15q-18 10 -41.5 46.5t-46.5 36.5q-17 0 -31 -12q-10 -8 -14 -27q-7 -33 -7 -139v-1971z" />
    <glyph glyph-name="integralbt" unicode="&#x2321;" horiz-adv-x="1237" 
d="M546 1737h145v-1811q0 -219 -89.5 -330t-202.5 -111q-67 0 -102.5 32.5t-35.5 76.5q0 40 25.5 66t61.5 26q31 0 59 -16q18 -10 41 -46t46 -36q17 0 31 11q10 8 14 29q7 32 7 138v1971z" />
    <glyph glyph-name="SF100000" unicode="&#x2500;" 
d="M1473 534h-1496v175h1496v-175z" />
    <glyph glyph-name="SF110000" unicode="&#x2502;" 
d="M638 -621v2485h175v-2485h-175z" />
    <glyph glyph-name="SF010000" unicode="&#x250c;" 
d="M1474 709v-175h-661v-1155h-175v1330h836z" />
    <glyph glyph-name="SF030000" unicode="&#x2510;" 
d="M637 534h-660v175h835v-1330h-175v1155z" />
    <glyph glyph-name="SF020000" unicode="&#x2514;" 
d="M638 534v1330h175v-1155h661v-175h-836z" />
    <glyph glyph-name="SF040000" unicode="&#x2518;" 
d="M812 534h-835v175h660v1155h175v-1330z" />
    <glyph glyph-name="SF080000" unicode="&#x251c;" 
d="M638 -621v2485h175v-1155h661v-175h-661v-1155h-175z" />
    <glyph glyph-name="SF090000" unicode="&#x2524;" 
d="M637 -621v1155h-660v175h660v1155h175v-2485h-175z" />
    <glyph glyph-name="SF060000" unicode="&#x252c;" 
d="M637 534h-660v175h1496v-175h-661v-1155h-175v1155z" />
    <glyph glyph-name="SF070000" unicode="&#x2534;" 
d="M1473 534h-1496v175h660v1155h175v-1155h661v-175z" />
    <glyph glyph-name="SF050000" unicode="&#x253c;" 
d="M637 534h-660v175h660v1155h175v-1155h661v-175h-661v-1155h-175v1155z" />
    <glyph glyph-name="SF430000" unicode="&#x2550;" 
d="M1473 724h-1496v175h1496v-175zM1473 344h-1496v175h1496v-175z" />
    <glyph glyph-name="SF240000" unicode="&#x2551;" 
d="M829 -621v2485h175v-2485h-175zM448 -621v2485h175v-2485h-175z" />
    <glyph glyph-name="SF510000" unicode="&#x2552;" 
d="M638 -621v1520h836v-175h-661v-205h661v-175h-661v-965h-175z" />
    <glyph glyph-name="SF520000" unicode="&#x2553;" 
d="M448 -621v1330h1027v-175h-471v-1155h-175v1155h-206v-1155h-175z" />
    <glyph glyph-name="SF390000" unicode="&#x2554;" 
d="M623 -621h-175v1520h1026v-175h-851v-1345zM1004 344v-965h-175v1140h645v-175h-470z" />
    <glyph glyph-name="SF220000" unicode="&#x2555;" 
d="M637 344h-660v175h660v205h-660v175h835v-1520h-175v965z" />
    <glyph glyph-name="SF210000" unicode="&#x2556;" 
d="M448 -621v1155h-471v175h1026v-1330h-175v1155h-206v-1155h-174z" />
    <glyph glyph-name="SF250000" unicode="&#x2557;" 
d="M828 -621v1345h-851v175h1026v-1520h-175zM447 344h-470v175h645v-1140h-175v965z" />
    <glyph glyph-name="SF500000" unicode="&#x2558;" 
d="M638 344v1520h175v-965h661v-175h-661v-205h661v-175h-836z" />
    <glyph glyph-name="SF490000" unicode="&#x2559;" 
d="M1475 534h-1027v1330h175v-1155h206v1155h175v-1155h471v-175z" />
    <glyph glyph-name="SF380000" unicode="&#x255a;" 
d="M623 1864v-1345h850v-175h-1025v1520h175zM1004 899h470v-175h-645v1140h175v-965z" />
    <glyph glyph-name="SF280000" unicode="&#x255b;" 
d="M812 344h-835v175h660v205h-660v175h660v965h175v-1520z" />
    <glyph glyph-name="SF270000" unicode="&#x255c;" 
d="M1003 534h-1026v175h470v1155h175v-1155h206v1155h175v-1330z" />
    <glyph glyph-name="SF260000" unicode="&#x255d;" 
d="M828 1864h175v-1520h-1026v175h851v1345zM447 899v965h175v-1140h-645v175h470z" />
    <glyph glyph-name="SF360000" unicode="&#x255e;" 
d="M638 -621v2485h175v-965h661v-175h-661v-205h661v-175h-661v-965h-175z" />
    <glyph glyph-name="SF370000" unicode="&#x255f;" 
d="M829 -621v2485h175v-1155h470v-175h-470v-1155h-175zM448 -621v2485h175v-2485h-175z" />
    <glyph glyph-name="SF420000" unicode="&#x2560;" 
d="M448 -621v2485h175v-2485h-175zM829 724v1140h175v-965h470v-175h-645zM829 -621v1140h645v-175h-470v-965h-175z" />
    <glyph glyph-name="SF190000" unicode="&#x2561;" 
d="M637 344h-660v175h660v205h-660v175h660v965h175v-2485h-175v965z" />
    <glyph glyph-name="SF200000" unicode="&#x2562;" 
d="M447 -621l1 1155h-471v175h470v1155h175v-2485h-175zM828 -621v2485h175v-2485h-175z" />
    <glyph glyph-name="SF230000" unicode="&#x2563;" 
d="M828 -621v2485h175v-2485h-175zM622 1864v-1140h-645v175h470v965h175zM447 344h-470v175h645v-1140h-175v965z" />
    <glyph glyph-name="SF470000" unicode="&#x2564;" 
d="M1473 724h-1496v175h1496v-175zM637 344h-660v175h1496v-175h-661v-965h-175v965z" />
    <glyph glyph-name="SF480000" unicode="&#x2565;" 
d="M447 -621v1155h-470v175h1496v-175h-470v-1155h-175v1155h-206v-1155h-175z" />
    <glyph glyph-name="SF410000" unicode="&#x2566;" 
d="M1473 724h-1496v175h1496v-175zM447 344h-470v175h645v-1140h-175v965zM828 -621v1140h645v-175h-470v-965h-175z" />
    <glyph glyph-name="SF450000" unicode="&#x2567;" 
d="M1473 724h-1496v175h660v965h175v-965h661v-175zM1473 344h-1496v175h1496v-175z" />
    <glyph glyph-name="SF460000" unicode="&#x2568;" 
d="M1473 534h-1496v175h470v1155h175v-1155h206v1155h175v-1155h470v-175z" />
    <glyph glyph-name="SF400000" unicode="&#x2569;" 
d="M622 724h-645v175h470v965h175v-1140zM1473 724h-645v1140h175v-965h470v-175zM1473 344h-1496v175h1496v-175z" />
    <glyph glyph-name="SF540000" unicode="&#x256a;" 
d="M637 344h-660v175h660v205h-660v175h660v965h175v-965h661v-175h-661v-205h661v-175h-661v-965h-175v965z" />
    <glyph glyph-name="SF530000" unicode="&#x256b;" 
d="M447 -621v1155h-470v175h470v1155h175v-1155h206v1155h175v-1155h470v-175h-470v-1155h-175v1155h-206v-1155h-175z" />
    <glyph glyph-name="SF440000" unicode="&#x256c;" 
d="M1003 899h470v-175h-645v1140h175v-965zM447 899v965h175v-1140h-645v175h470zM447 344h-470v175h645v-1140h-175v965zM1003 344v-965h-175v1140h645v-175h-470z" />
    <glyph glyph-name="upblock" unicode="&#x2580;" 
d="M1473 621h-1496v1243h1496v-1243z" />
    <glyph glyph-name="dnblock" unicode="&#x2584;" 
d="M1473 -621h-1496v1242h1496v-1242z" />
    <glyph glyph-name="block" unicode="&#x2588;" 
d="M-23 -621v2485h1496v-2485h-1496z" />
    <glyph glyph-name="lfblock" unicode="&#x258c;" 
d="M-23 -621v2485h748v-2485h-748z" />
    <glyph glyph-name="rtblock" unicode="&#x2590;" 
d="M726 -621v2485h748v-2485h-748z" />
    <glyph glyph-name="ltshade" unicode="&#x2591;" 
d="M0 1864h121v-125h-121v125zM482 1864h121v-125h-121v125zM965 1864h121v-125h-121v125zM241 1615h121v-125h-121v125zM723 1615h121v-125h-121v125zM1206 1615h121v-125h-121v125zM965 1366h121v-125h-121v125zM482 1366h121v-125h-121v125zM0 1366h121v-125h-121v125z
M1206 1117h121v-125h-121v125zM723 1117h121v-125h-121v125zM241 1117h121v-125h-121v125zM0 867h121v-125h-121v125zM482 867h121v-125h-121v125zM965 867h121v-125h-121v125zM1206 618h121v-125h-121v125zM723 618h121v-125h-121v125zM241 618h121v-125h-121v125zM0 369
h121v-125h-121v125zM482 369h121v-125h-121v125zM965 369h121v-125h-121v125zM241 120h121v-125h-121v125zM723 120h121v-125h-121v125zM1206 120h121v-125h-121v125zM965 -130h121v-125h-121v125zM482 -130h121v-125h-121v125zM0 -130h121v-125h-121v125zM241 -379h121
v-125h-121v125zM723 -379h121v-125h-121v125zM1206 -379h121v-125h-121v125z" />
    <glyph glyph-name="shade" unicode="&#x2592;" 
d="M121 1864h120v-125h-120v125zM362 1864h120v-125h-120v125zM603 1864h121v-125h-121v125zM844 1864h121v-125h-121v125zM1086 1864h120v-125h-120v125zM1327 1864h120v-125h-120v125zM0 1615h121v-125h-121v125zM241 1615h121v-125h-121v125zM482 1615h121v-125h-121v125
zM724 1615h120v-125h-120v125zM965 1615h121v-125h-121v125zM1206 1615h121v-125h-121v125zM121 1366h120v-125h-120v125zM362 1366h120v-125h-120v125zM603 1366h121v-125h-121v125zM844 1366h121v-125h-121v125zM1086 1366h120v-125h-120v125zM1327 1366h120v-125h-120
v125zM241 1116h121v-124h-121v124zM482 1116h121v-124h-121v124zM724 1116h120v-124h-120v124zM965 1116h121v-124h-121v124zM1206 1116h121v-124h-121v124zM0 1116h121v-124h-121v124zM121 867h120v-125h-120v125zM362 867h120v-125h-120v125zM603 867h121v-125h-121v125z
M844 867h121v-125h-121v125zM1086 867h120v-125h-120v125zM1327 867h120v-125h-120v125zM0 618h121v-125h-121v125zM482 618h121v-125h-121v125zM724 618h120v-125h-120v125zM965 618h121v-125h-121v125zM1206 618h121v-125h-121v125zM241 618h121v-125h-121v125zM1327 369
h120v-125h-120v125zM1086 369h120v-125h-120v125zM844 369h121v-125h-121v125zM603 369h121v-125h-121v125zM362 369h120v-125h-120v125zM121 369h120v-125h-120v125zM0 119h121v-124h-121v124zM241 119h121v-124h-121v124zM482 119h121v-124h-121v124zM724 119h120v-124
h-120v124zM965 119h121v-124h-121v124zM1206 119h121v-124h-121v124zM1327 -130h120v-125h-120v125zM1086 -130h120v-125h-120v125zM844 -130h121v-125h-121v125zM603 -130h121v-125h-121v125zM362 -130h120v-125h-120v125zM121 -130h120v-125h-120v125zM0 -379h121v-125
h-121v125zM241 -379h121v-125h-121v125zM482 -379h121v-125h-121v125zM724 -379h120v-125h-120v125zM965 -380l121 1v-125h-121v124zM1206 -379h121v-125h-121v125z" />
    <glyph glyph-name="dkshade" unicode="&#x2593;" 
d="M1447 1490v-374h-120v-124h120v-374h-120v-125h120v-374h-120v-124h120v-374h-120v-125h120v-124h-1447v373h121v125h-121v374h121v125h-121v373h121v125h-121v374h121v125h-121v373h121v125h120v-125h121v125h120v-125h121v125h121v-125h120v125h121v-125h121v125h120
v-125h121v125h120v-249h-120v-125h120zM121 1615v-125h120v125h-120zM362 1615v-125h120v125h-120zM603 1615v-125h121v125h-121zM844 1615v-125h121v125h-121zM1086 1615v-125h120v125h-120zM1327 1366h-121v-125h121v125zM1086 1366h-121v-125h121v125zM844 1366h-120
v-125h120v125zM603 1366h-121v-125h121v125zM362 1366h-121v-125h121v125zM121 1116v-124h120v124h-120zM362 1116v-124h120v124h-120zM603 1116v-124h121v124h-121zM844 1116v-124h121v124h-121zM1086 1116v-124h120v124h-120zM362 867h-121v-125h121v125zM482 867v-125
h121v125h-121zM724 867v-125h120v125h-120zM965 867v-125h121v125h-121zM1206 867v-125h121v125h-121zM121 618v-125h120v125h-120zM603 618v-125h121v125h-121zM482 493v125h-120v-125h120zM844 618v-125h121v125h-121zM1086 618v-125h120v125h-120zM1327 244v125h-121
v-125h121zM1086 244v125h-121v-125h121zM844 244v125h-120v-125h120zM603 244v125h-121v-125h121zM362 244v125h-121v-125h121zM121 119v-124h120v124h-120zM362 119v-124h120v124h-120zM603 119v-124h121v124h-121zM844 119v-124h121v124h-121zM1086 119v-124h120v124h-120
zM1327 -255v125h-121v-125h121zM1086 -255v125h-121v-125h121zM844 -255v125h-120v-125h120zM603 -255v125h-121v-125h121zM362 -255v125h-121v-125h121zM121 -379v-125h120v125h-120zM362 -379v-125h120v125h-120zM603 -379v-125h121v125h-121zM844 -379v-125h121v125h-121
zM1086 -379v-125h120v125h-120z" />
    <glyph glyph-name="filledbox" unicode="&#x25a0;" horiz-adv-x="1237" 
d="M146 944h944v-944h-944v944z" />
    <glyph glyph-name="H22073" unicode="&#x25a1;" horiz-adv-x="1237" 
d="M146 944h944v-944h-944v944zM222 868v-792h792v792h-792z" />
    <glyph glyph-name="H18543" unicode="&#x25aa;" horiz-adv-x="726" 
d="M594 909v-464h-463v463z" />
    <glyph glyph-name="H18551" unicode="&#x25ab;" horiz-adv-x="726" 
d="M594 909v-464h-463v463zM518 833l-311 -1v-311h311v312z" />
    <glyph glyph-name="filledrect" unicode="&#x25ac;" horiz-adv-x="2048" 
d="M340 386h1368v-386h-1368v386z" />
    <glyph glyph-name="triagup" unicode="&#x25b2;" horiz-adv-x="2027" 
d="M304 0l710 1419l710 -1419h-1420z" />
    <glyph glyph-name="triagrt" unicode="&#x25ba;" horiz-adv-x="2027" 
d="M288 1417l1451 -724l-1451 -724v1448z" />
    <glyph glyph-name="triagdn" unicode="&#x25bc;" horiz-adv-x="2027" 
d="M1724 1388l-710 -1419l-710 1419h1420z" />
    <glyph glyph-name="triaglf" unicode="&#x25c4;" horiz-adv-x="2027" 
d="M1739 1417v-1448l-1451 724z" />
    <glyph glyph-name="circle" unicode="&#x25cb;" horiz-adv-x="1237" 
d="M619 1018q110 0 216 -57t165 -163t59 -220q0 -183 -129 -312t-311 -129q-183 0 -312 129t-129 312q0 115 59 220.5t165 162.5t217 57zM619 942q-93 0 -180 -47t-136 -135t-49 -182q0 -151 107 -258t258 -107t257.5 107t106.5 258q0 94 -49 182t-136 135t-179 47z" />
    <glyph glyph-name="H18533" unicode="&#x25cf;" horiz-adv-x="1237" 
d="M619 1018q110 0 216 -57t165 -163t59 -220q0 -183 -129 -312t-311 -129q-183 0 -312 129t-129 312q0 115 59 220.5t165 162.5t217 57z" />
    <glyph glyph-name="invbullet" unicode="&#x25d8;" horiz-adv-x="1237" 
d="M128 0v980h980v-980h-980zM618 692q-84 0 -143 -59t-59 -143q0 -83 59.5 -142.5t142.5 -59.5q84 0 143 59.5t59 142.5q0 84 -59 143t-143 59z" />
    <glyph glyph-name="invcircle" unicode="&#x25d9;" horiz-adv-x="1237" 
d="M42 0v1155h1155v-1155h-1155zM619 1018q-111 0 -216.5 -57t-164.5 -163t-59 -221q0 -182 129 -311t311 -129q183 0 312 129t129 311q0 115 -59 221t-164.5 163t-217.5 57zM620 942q91 0 178.5 -47t136.5 -134.5t49 -183.5q0 -151 -106.5 -257.5t-257.5 -106.5
q-152 0 -258.5 106.5t-106.5 257.5q0 96 49 183.5t136.5 134.5t179.5 47z" />
    <glyph glyph-name="openbullet" unicode="&#x25e6;" horiz-adv-x="726" 
d="M363 928q104 0 177.5 -73.5t73.5 -177.5t-73.5 -177.5t-177.5 -73.5t-177.5 73.5t-73.5 177.5t73 177.5t178 73.5zM363 852q-73 0 -124 -51.5t-51 -123.5q0 -73 51.5 -124t123.5 -51t123.5 51t51.5 124q0 72 -51 123.5t-124 51.5z" />
    <glyph glyph-name="smileface" unicode="&#x263a;" horiz-adv-x="2048" 
d="M1024 1156q160 0 313 -82.5t239 -236t86 -319.5q0 -165 -84.5 -316.5t-236.5 -236t-317 -84.5q-166 0 -317.5 84.5t-236 236t-84.5 316.5q0 166 85.5 319.5t238.5 236t314 82.5zM1024 1063q-137 0 -267.5 -70.5t-204 -201.5t-73.5 -273q0 -141 72 -270.5t202 -201.5
t271 -72t271 72t202 201.5t72 270.5q0 142 -73.5 273t-204 201.5t-267.5 70.5zM779 731q34 0 57.5 -23.5t23.5 -57.5q0 -33 -23.5 -57t-57.5 -24q-33 0 -57 24t-24 57q0 34 24 57.5t57 23.5zM1268 731q34 0 57.5 -23.5t23.5 -57.5q0 -33 -23.5 -57t-57.5 -24q-33 0 -57 24
t-24 57q0 34 23.5 57.5t57.5 23.5zM730 313l62 36q79 -144 232 -144t231 144l63 -36q-50 -95 -123.5 -145t-170.5 -50q-98 0 -171 50t-123 145z" />
    <glyph glyph-name="invsmileface" unicode="&#x263b;" horiz-adv-x="2048" 
d="M1024 1156q160 0 313 -82.5t239 -236t86 -319.5q0 -165 -84.5 -316.5t-236.5 -236t-317 -84.5q-166 0 -317.5 84.5t-236 236t-84.5 316.5q0 166 85.5 319.5t238.5 236t314 82.5zM779 731q-33 0 -57 -23.5t-24 -57.5q0 -33 24 -57t57 -24q34 0 57.5 24t23.5 57
q0 34 -23.5 57.5t-57.5 23.5zM1268 731q-34 0 -57.5 -23.5t-23.5 -57.5q0 -33 24 -57t57 -24q34 0 57.5 24t23.5 57q0 34 -23.5 57.5t-57.5 23.5zM730 313q50 -95 123 -145t171 -50q97 0 170.5 50t123.5 145l-63 36q-78 -144 -231 -144t-232 144z" />
    <glyph glyph-name="sun" unicode="&#x263c;" horiz-adv-x="1877" 
d="M902 1621h76v-337q102 -7 181.5 -38.5t167.5 -102.5l290 284l52 -53l-286 -286q73 -95 103 -169q38 -96 41 -185h335v-69h-335q-19 -193 -143 -351l285 -291l-57 -50l-283 282q-98 -72 -171 -100.5t-180 -40.5v-337h-76v337q-112 15 -188.5 46t-156.5 92l-294 -278
l-51 51l285 286q-66 84 -100 166t-45 188h-336v69h336q9 106 42 185.5t102 163.5l-284 287l48 57l292 -282q101 70 179.5 100.5t170.5 38.5v337zM937 1211q-129 0 -252 -66t-191.5 -189.5t-68.5 -256.5t67.5 -255t189.5 -190t255 -68t255 68t190 190t68 255t-69 256.5
t-192 189.5t-252 66z" />
    <glyph glyph-name="female" unicode="&#x2640;" horiz-adv-x="1536" 
d="M796 461v-402h459v-59h-459v-439h-59v439h-460v59h460v402q-103 0 -225.5 65.5t-195 191t-72.5 265.5q0 136 69.5 261t193.5 194t261 69q136 0 260.5 -69.5t193.5 -194t69 -260.5q0 -209 -143.5 -360.5t-351.5 -161.5zM767 1451q-118 0 -230.5 -60.5t-175.5 -173.5
t-63 -235q0 -195 137.5 -332.5t331.5 -137.5q195 0 332.5 137.5t137.5 332.5q0 122 -63 235t-175.5 173.5t-231.5 60.5z" />
    <glyph glyph-name="male" unicode="&#x2642;" horiz-adv-x="1536" 
d="M1216 1620l36 -16l163 -666l-57 -15l-142 581l-358 -768q148 -75 224 -202t76 -272q0 -136 -69 -260.5t-193.5 -194t-261.5 -69.5q-136 0 -260.5 69.5t-193.5 194t-69 260.5q0 217 153.5 370t372.5 153q78 0 166 -27l360 771l-537 -265l-24 53zM634 731
q-118 0 -230.5 -60.5t-175.5 -173.5t-63 -235q0 -195 137.5 -332.5t331.5 -137.5q195 0 332.5 137.5t137.5 332.5q0 122 -63 235t-175.5 173.5t-231.5 60.5z" />
    <glyph glyph-name="spade" unicode="&#x2660;" horiz-adv-x="1344" 
d="M673 1231q26 -108 80 -193t192.5 -210.5t175.5 -193t37 -136.5q0 -95 -64 -159t-154 -64q-82 0 -154 57q-54 42 -101 133q1 -147 38.5 -233.5t119.5 -136t219 -58.5l7 -37h-792l7 37q184 0 285.5 107.5t97.5 320.5q-45 -95 -111.5 -142.5t-149.5 -47.5q-90 0 -155 65
t-65 154q0 74 32 133q45 83 146.5 166t149.5 137q74 83 107.5 148t51.5 153z" />
    <glyph glyph-name="club" unicode="&#x2663;" horiz-adv-x="1344" 
d="M1098 0h-848l8 34q165 35 219 69q81 51 132.5 151t51.5 210q0 16 -1 47q-61 -124 -148.5 -181t-178.5 -57q-116 0 -197 81t-81 199q0 116 74 195.5t165 81.5q63 -2 166 -53q-42 69 -54.5 105t-12.5 77q0 115 79 193.5t198 78.5q117 0 197.5 -78.5t80.5 -189.5
q0 -88 -69 -186q84 40 101 45q27 8 61 8q100 0 173.5 -78.5t73.5 -194.5q0 -120 -80.5 -201.5t-196.5 -82.5q-77 4 -134.5 33t-107.5 80q-35 37 -87 125q4 -159 48.5 -251.5t136.5 -153.5q62 -41 223 -72z" />
    <glyph glyph-name="heart" unicode="&#x2665;" horiz-adv-x="1344" 
d="M674 -24q-31 118 -88.5 221.5t-222.5 321.5q-121 160 -149 203q-46 70 -66.5 128.5t-20.5 118.5q0 111 74 186t180 76q113 -1 194 -79q61 -58 99 -173q32 112 92 171q83 81 191 81q109 0 184.5 -74t75.5 -176q0 -91 -43.5 -188t-170.5 -257q-164 -207 -239 -340
q-59 -105 -90 -220z" />
    <glyph glyph-name="diamond" unicode="&#x2666;" horiz-adv-x="1344" 
d="M671 1234q88 -154 218 -327q150 -200 242 -303q-74 -78 -242 -302q-136 -182 -218 -326q-27 52 -74 121q-81 120 -201 279q-26 35 -183 228q101 115 260 328q118 158 198 302z" />
    <glyph glyph-name="musicalnote" unicode="&#x266a;" horiz-adv-x="1024" 
d="M486 1363h38q172 0 227 -14q79 -20 139 -77q45 -42 71 -118.5t26 -178.5v-103h-99v43q0 68 -28.5 115.5t-84.5 72.5q-73 32 -162 32h-28v-835q0 -121 -32 -188.5t-110 -108t-170 -40.5q-109 0 -172.5 61.5t-63.5 161.5q0 105 76 176.5t199 71.5q78 0 174 -46v975z" />
    <glyph glyph-name="musicalnotedbl" unicode="&#x266b;" horiz-adv-x="1536" 
d="M534 1271l796 248v-1108q0 -124 -31.5 -187t-107 -104t-170.5 -41q-109 0 -174 62.5t-65 161.5q0 100 77 172.5t199 72.5q40 0 70.5 -7t99.5 -36v724l-595 -185v-836q0 -121 -32 -188.5t-110 -107.5t-170 -40q-109 0 -172.5 61.5t-63.5 160.5q0 105 76 176.5t199 71.5
q78 0 174 -46v975z" />
    <glyph glyph-name="uniF001" unicode="&#xf001;" horiz-adv-x="988" 
d="M576 1010v-123h-234v-887h-158v887h-177v123h177q3 142 26.5 213.5t94.5 120.5t173 49q38 0 98 -11v-124q-47 11 -83 11q-60 0 -96.5 -31t-45.5 -76t-9 -152h234zM837 1365v-174h-169v174h169zM830 1010v-1010h-157v1010h157z" />
    <glyph glyph-name="uniF002" unicode="&#xf002;" horiz-adv-x="987" 
d="M576 1010v-123h-234v-887h-158v887h-177v123h177q3 142 26.5 213.5t94.5 120.5t173 49q38 0 98 -11v-124q-47 11 -83 11q-60 0 -96.5 -31t-45.5 -76t-9 -152h234zM830 0h-157v1365h157v-1365z" />
    <glyph glyph-name="uniF003" unicode="&#xf003;" horiz-adv-x="792" 
d="M601 546h-116v191h-418v78l391 567h143v-551h138v-94h-138v-191zM485 831v436q-16 -29 -31 -52l-257 -384h288z" />
    <glyph glyph-name="uniF004" unicode="&#xf004;" horiz-adv-x="1024" 
d="M503 1365h165l-155 -379h-77z" />
    <glyph glyph-name="uniF005" unicode="&#xf005;" horiz-adv-x="1024" 
d="M464 -109h166l-155 -361h-77z" />
    <glyph glyph-name="currency" unicode="&#xa4;" horiz-adv-x="1365" 
d="M104 256l194 196q-102 139 -102 289q0 146 102 290l-198 196l92 91l198 -195q149 103 297 103q141 0 288 -103l196 195l91 -91l-194 -196q102 -151 102 -291q0 -143 -102 -288l198 -196l-91 -92l-197 197q-141 -103 -295 -103q-138 0 -293 101l-195 -195zM1029 741
q0 143 -101.5 245t-244.5 102t-244 -102.5t-101 -243.5q0 -144 101.5 -245.5t243.5 -101.5t244 101.5t102 244.5z" />
    </font>
</defs>
</svg>
